<?xml version="1.0" standalone="no"?>
 <!DOCTYPE svg PUBLIC "-//W3C//DTD SVG 1.1//EN" 
 "http://www.w3.org/Graphics/SVG/1.1/DTD/svg11.dtd"> 
<svg xmlns="http://www.w3.org/2000/svg" version="1.1" 
    width="59.4004cm" height="41.9989cm" viewBox="0 0 233860 165350 ">
<title>SVG Picture created as keyboard-F_SilkS.svg date 2022/08/12 20:24:26 </title>
  <desc>Picture generated by PCBNEW </desc>
<g style="fill:#000000; fill-opacity:1;stroke:#000000; stroke-opacity:1;
stroke-linecap:round; stroke-linejoin:round; "
 transform="translate(0 0) scale(1 1)">
</g>
<g style="fill:#000000; fill-opacity:0.0; 
stroke:#000000; stroke-width:-0.000393701; stroke-opacity:1; 
stroke-linecap:round; stroke-linejoin:round;">
</g>
<g style="fill:#000000; fill-opacity:0.0; 
stroke:#000000; stroke-width:39.3701; stroke-opacity:1; 
stroke-linecap:round; stroke-linejoin:round;">
</g>
<g style="fill:#000000; fill-opacity:0.0; 
stroke:#000000; stroke-width:59.0551; stroke-opacity:1; 
stroke-linecap:round; stroke-linejoin:round;">
<rect x="186616" y="148027" width="42519.7" height="12598.4" rx="0" />
</g>
<g style="fill:#000000; fill-opacity:0.0; 
stroke:#000000; stroke-width:39.3701; stroke-opacity:1; 
stroke-linecap:round; stroke-linejoin:round;">
</g>
<g style="fill:#000000; fill-opacity:0.0; 
stroke:#000000; stroke-width:59.0551; stroke-opacity:1; 
stroke-linecap:round; stroke-linejoin:round;">
<rect x="3937.01" y="3937.01" width="225986" height="157476" rx="0" />
</g>
<g style="fill:#000000; fill-opacity:0.0; 
stroke:#000000; stroke-width:39.3701; stroke-opacity:1; 
stroke-linecap:round; stroke-linejoin:round;">
</g>
<g style="fill:#000000; fill-opacity:0.0; 
stroke:#000000; stroke-width:59.0551; stroke-opacity:1; 
stroke-linecap:round; stroke-linejoin:round;">
<rect x="4724.41" y="4724.41" width="224411" height="155901" rx="0" />
</g>
<g style="fill:#000000; fill-opacity:0.0; 
stroke:#000000; stroke-width:39.3701; stroke-opacity:1; 
stroke-linecap:round; stroke-linejoin:round;">
</g>
<g style="fill:#000000; fill-opacity:0.0; 
stroke:#000000; stroke-width:59.0551; stroke-opacity:1; 
stroke-linecap:round; stroke-linejoin:round;">
<path d="M23622 4724
L23622 3937
" />
</g>
<g style="fill:#000000; fill-opacity:0.0; 
stroke:#000000; stroke-width:39.3701; stroke-opacity:1; 
stroke-linecap:round; stroke-linejoin:round;">
</g>
<g style="fill:#000000; fill-opacity:0.0; 
stroke:#000000; stroke-width:59.0551; stroke-opacity:1; 
stroke-linecap:round; stroke-linejoin:round;">
<path d="M43307 4724
L43307 3937
" />
</g>
<g style="fill:#000000; fill-opacity:0.0; 
stroke:#000000; stroke-width:39.3701; stroke-opacity:1; 
stroke-linecap:round; stroke-linejoin:round;">
</g>
<g style="fill:#000000; fill-opacity:0.0; 
stroke:#000000; stroke-width:59.0551; stroke-opacity:1; 
stroke-linecap:round; stroke-linejoin:round;">
<path d="M62992 4724
L62992 3937
" />
</g>
<g style="fill:#000000; fill-opacity:0.0; 
stroke:#000000; stroke-width:39.3701; stroke-opacity:1; 
stroke-linecap:round; stroke-linejoin:round;">
</g>
<g style="fill:#000000; fill-opacity:0.0; 
stroke:#000000; stroke-width:59.0551; stroke-opacity:1; 
stroke-linecap:round; stroke-linejoin:round;">
<path d="M82677 4724
L82677 3937
" />
</g>
<g style="fill:#000000; fill-opacity:0.0; 
stroke:#000000; stroke-width:39.3701; stroke-opacity:1; 
stroke-linecap:round; stroke-linejoin:round;">
</g>
<g style="fill:#000000; fill-opacity:0.0; 
stroke:#000000; stroke-width:59.0551; stroke-opacity:1; 
stroke-linecap:round; stroke-linejoin:round;">
<path d="M102362 4724
L102362 3937
" />
</g>
<g style="fill:#000000; fill-opacity:0.0; 
stroke:#000000; stroke-width:39.3701; stroke-opacity:1; 
stroke-linecap:round; stroke-linejoin:round;">
</g>
<g style="fill:#000000; fill-opacity:0.0; 
stroke:#000000; stroke-width:59.0551; stroke-opacity:1; 
stroke-linecap:round; stroke-linejoin:round;">
<path d="M122047 4724
L122047 3937
" />
</g>
<g style="fill:#000000; fill-opacity:0.0; 
stroke:#000000; stroke-width:39.3701; stroke-opacity:1; 
stroke-linecap:round; stroke-linejoin:round;">
</g>
<g style="fill:#000000; fill-opacity:0.0; 
stroke:#000000; stroke-width:59.0551; stroke-opacity:1; 
stroke-linecap:round; stroke-linejoin:round;">
<path d="M141732 4724
L141732 3937
" />
</g>
<g style="fill:#000000; fill-opacity:0.0; 
stroke:#000000; stroke-width:39.3701; stroke-opacity:1; 
stroke-linecap:round; stroke-linejoin:round;">
</g>
<g style="fill:#000000; fill-opacity:0.0; 
stroke:#000000; stroke-width:59.0551; stroke-opacity:1; 
stroke-linecap:round; stroke-linejoin:round;">
<path d="M161417 4724
L161417 3937
" />
</g>
<g style="fill:#000000; fill-opacity:0.0; 
stroke:#000000; stroke-width:39.3701; stroke-opacity:1; 
stroke-linecap:round; stroke-linejoin:round;">
</g>
<g style="fill:#000000; fill-opacity:0.0; 
stroke:#000000; stroke-width:59.0551; stroke-opacity:1; 
stroke-linecap:round; stroke-linejoin:round;">
<path d="M181102 4724
L181102 3937
" />
</g>
<g style="fill:#000000; fill-opacity:0.0; 
stroke:#000000; stroke-width:39.3701; stroke-opacity:1; 
stroke-linecap:round; stroke-linejoin:round;">
</g>
<g style="fill:#000000; fill-opacity:0.0; 
stroke:#000000; stroke-width:59.0551; stroke-opacity:1; 
stroke-linecap:round; stroke-linejoin:round;">
<path d="M200787 4724
L200787 3937
" />
</g>
<g style="fill:#000000; fill-opacity:0.0; 
stroke:#000000; stroke-width:39.3701; stroke-opacity:1; 
stroke-linecap:round; stroke-linejoin:round;">
</g>
<g style="fill:#000000; fill-opacity:0.0; 
stroke:#000000; stroke-width:59.0551; stroke-opacity:1; 
stroke-linecap:round; stroke-linejoin:round;">
<path d="M220472 4724
L220472 3937
" />
</g>
<g style="fill:#000000; fill-opacity:0.0; 
stroke:#000000; stroke-width:39.3701; stroke-opacity:1; 
stroke-linecap:round; stroke-linejoin:round;">
</g>
<g style="fill:#000000; fill-opacity:0.0; 
stroke:#000000; stroke-width:59.0551; stroke-opacity:1; 
stroke-linecap:round; stroke-linejoin:round;">
<path d="M14199 4562
L13906 4562
" />
<path d="M14052 4562
L14052 4050
L14004 4123
L13955 4172
L13906 4196
" />
</g>
<g style="fill:#000000; fill-opacity:0.0; 
stroke:#000000; stroke-width:39.3701; stroke-opacity:1; 
stroke-linecap:round; stroke-linejoin:round;">
</g>
<g style="fill:#000000; fill-opacity:0.0; 
stroke:#000000; stroke-width:59.0551; stroke-opacity:1; 
stroke-linecap:round; stroke-linejoin:round;">
<path d="M33591 4099
L33615 4074
L33664 4050
L33786 4050
L33835 4074
L33859 4099
L33884 4147
L33884 4196
L33859 4269
L33567 4562
L33884 4562
" />
</g>
<g style="fill:#000000; fill-opacity:0.0; 
stroke:#000000; stroke-width:39.3701; stroke-opacity:1; 
stroke-linecap:round; stroke-linejoin:round;">
</g>
<g style="fill:#000000; fill-opacity:0.0; 
stroke:#000000; stroke-width:59.0551; stroke-opacity:1; 
stroke-linecap:round; stroke-linejoin:round;">
<path d="M53252 4050
L53569 4050
L53398 4245
L53471 4245
L53520 4269
L53544 4294
L53569 4342
L53569 4464
L53544 4513
L53520 4537
L53471 4562
L53325 4562
L53276 4537
L53252 4513
" />
</g>
<g style="fill:#000000; fill-opacity:0.0; 
stroke:#000000; stroke-width:39.3701; stroke-opacity:1; 
stroke-linecap:round; stroke-linejoin:round;">
</g>
<g style="fill:#000000; fill-opacity:0.0; 
stroke:#000000; stroke-width:59.0551; stroke-opacity:1; 
stroke-linecap:round; stroke-linejoin:round;">
<path d="M73205 4221
L73205 4562
" />
<path d="M73083 4026
L72961 4391
L73278 4391
" />
</g>
<g style="fill:#000000; fill-opacity:0.0; 
stroke:#000000; stroke-width:39.3701; stroke-opacity:1; 
stroke-linecap:round; stroke-linejoin:round;">
</g>
<g style="fill:#000000; fill-opacity:0.0; 
stroke:#000000; stroke-width:59.0551; stroke-opacity:1; 
stroke-linecap:round; stroke-linejoin:round;">
<path d="M92914 4050
L92671 4050
L92646 4294
L92671 4269
L92719 4245
L92841 4245
L92890 4269
L92914 4294
L92939 4342
L92939 4464
L92914 4513
L92890 4537
L92841 4562
L92719 4562
L92671 4537
L92646 4513
" />
</g>
<g style="fill:#000000; fill-opacity:0.0; 
stroke:#000000; stroke-width:39.3701; stroke-opacity:1; 
stroke-linecap:round; stroke-linejoin:round;">
</g>
<g style="fill:#000000; fill-opacity:0.0; 
stroke:#000000; stroke-width:59.0551; stroke-opacity:1; 
stroke-linecap:round; stroke-linejoin:round;">
<path d="M112575 4050
L112477 4050
L112429 4074
L112404 4099
L112356 4172
L112331 4269
L112331 4464
L112356 4513
L112380 4537
L112429 4562
L112526 4562
L112575 4537
L112599 4513
L112624 4464
L112624 4342
L112599 4294
L112575 4269
L112526 4245
L112429 4245
L112380 4269
L112356 4294
L112331 4342
" />
</g>
<g style="fill:#000000; fill-opacity:0.0; 
stroke:#000000; stroke-width:39.3701; stroke-opacity:1; 
stroke-linecap:round; stroke-linejoin:round;">
</g>
<g style="fill:#000000; fill-opacity:0.0; 
stroke:#000000; stroke-width:59.0551; stroke-opacity:1; 
stroke-linecap:round; stroke-linejoin:round;">
<path d="M131992 4050
L132333 4050
L132114 4562
" />
</g>
<g style="fill:#000000; fill-opacity:0.0; 
stroke:#000000; stroke-width:39.3701; stroke-opacity:1; 
stroke-linecap:round; stroke-linejoin:round;">
</g>
<g style="fill:#000000; fill-opacity:0.0; 
stroke:#000000; stroke-width:59.0551; stroke-opacity:1; 
stroke-linecap:round; stroke-linejoin:round;">
<path d="M151799 4269
L151750 4245
L151726 4221
L151701 4172
L151701 4147
L151726 4099
L151750 4074
L151799 4050
L151896 4050
L151945 4074
L151969 4099
L151994 4147
L151994 4172
L151969 4221
L151945 4245
L151896 4269
L151799 4269
L151750 4294
L151726 4318
L151701 4367
L151701 4464
L151726 4513
L151750 4537
L151799 4562
L151896 4562
L151945 4537
L151969 4513
L151994 4464
L151994 4367
L151969 4318
L151945 4294
L151896 4269
" />
</g>
<g style="fill:#000000; fill-opacity:0.0; 
stroke:#000000; stroke-width:39.3701; stroke-opacity:1; 
stroke-linecap:round; stroke-linejoin:round;">
</g>
<g style="fill:#000000; fill-opacity:0.0; 
stroke:#000000; stroke-width:59.0551; stroke-opacity:1; 
stroke-linecap:round; stroke-linejoin:round;">
<path d="M171435 4562
L171533 4562
L171581 4537
L171606 4513
L171654 4440
L171679 4342
L171679 4147
L171654 4099
L171630 4074
L171581 4050
L171484 4050
L171435 4074
L171411 4099
L171386 4147
L171386 4269
L171411 4318
L171435 4342
L171484 4367
L171581 4367
L171630 4342
L171654 4318
L171679 4269
" />
</g>
<g style="fill:#000000; fill-opacity:0.0; 
stroke:#000000; stroke-width:39.3701; stroke-opacity:1; 
stroke-linecap:round; stroke-linejoin:round;">
</g>
<g style="fill:#000000; fill-opacity:0.0; 
stroke:#000000; stroke-width:59.0551; stroke-opacity:1; 
stroke-linecap:round; stroke-linejoin:round;">
<path d="M191364 4562
L191071 4562
" />
<path d="M191218 4562
L191218 4050
L191169 4123
L191120 4172
L191071 4196
" />
<path d="M191681 4050
L191729 4050
L191778 4074
L191803 4099
L191827 4147
L191851 4245
L191851 4367
L191827 4464
L191803 4513
L191778 4537
L191729 4562
L191681 4562
L191632 4537
L191608 4513
L191583 4464
L191559 4367
L191559 4245
L191583 4147
L191608 4099
L191632 4074
L191681 4050
" />
</g>
<g style="fill:#000000; fill-opacity:0.0; 
stroke:#000000; stroke-width:39.3701; stroke-opacity:1; 
stroke-linecap:round; stroke-linejoin:round;">
</g>
<g style="fill:#000000; fill-opacity:0.0; 
stroke:#000000; stroke-width:59.0551; stroke-opacity:1; 
stroke-linecap:round; stroke-linejoin:round;">
<path d="M211049 4562
L210756 4562
" />
<path d="M210903 4562
L210903 4050
L210854 4123
L210805 4172
L210756 4196
" />
<path d="M211536 4562
L211244 4562
" />
<path d="M211390 4562
L211390 4050
L211341 4123
L211293 4172
L211244 4196
" />
</g>
<g style="fill:#000000; fill-opacity:0.0; 
stroke:#000000; stroke-width:39.3701; stroke-opacity:1; 
stroke-linecap:round; stroke-linejoin:round;">
</g>
<g style="fill:#000000; fill-opacity:0.0; 
stroke:#000000; stroke-width:59.0551; stroke-opacity:1; 
stroke-linecap:round; stroke-linejoin:round;">
<path d="M23622 160625
L23622 161412
" />
</g>
<g style="fill:#000000; fill-opacity:0.0; 
stroke:#000000; stroke-width:39.3701; stroke-opacity:1; 
stroke-linecap:round; stroke-linejoin:round;">
</g>
<g style="fill:#000000; fill-opacity:0.0; 
stroke:#000000; stroke-width:59.0551; stroke-opacity:1; 
stroke-linecap:round; stroke-linejoin:round;">
<path d="M43307 160625
L43307 161412
" />
</g>
<g style="fill:#000000; fill-opacity:0.0; 
stroke:#000000; stroke-width:39.3701; stroke-opacity:1; 
stroke-linecap:round; stroke-linejoin:round;">
</g>
<g style="fill:#000000; fill-opacity:0.0; 
stroke:#000000; stroke-width:59.0551; stroke-opacity:1; 
stroke-linecap:round; stroke-linejoin:round;">
<path d="M62992 160625
L62992 161412
" />
</g>
<g style="fill:#000000; fill-opacity:0.0; 
stroke:#000000; stroke-width:39.3701; stroke-opacity:1; 
stroke-linecap:round; stroke-linejoin:round;">
</g>
<g style="fill:#000000; fill-opacity:0.0; 
stroke:#000000; stroke-width:59.0551; stroke-opacity:1; 
stroke-linecap:round; stroke-linejoin:round;">
<path d="M82677 160625
L82677 161412
" />
</g>
<g style="fill:#000000; fill-opacity:0.0; 
stroke:#000000; stroke-width:39.3701; stroke-opacity:1; 
stroke-linecap:round; stroke-linejoin:round;">
</g>
<g style="fill:#000000; fill-opacity:0.0; 
stroke:#000000; stroke-width:59.0551; stroke-opacity:1; 
stroke-linecap:round; stroke-linejoin:round;">
<path d="M102362 160625
L102362 161412
" />
</g>
<g style="fill:#000000; fill-opacity:0.0; 
stroke:#000000; stroke-width:39.3701; stroke-opacity:1; 
stroke-linecap:round; stroke-linejoin:round;">
</g>
<g style="fill:#000000; fill-opacity:0.0; 
stroke:#000000; stroke-width:59.0551; stroke-opacity:1; 
stroke-linecap:round; stroke-linejoin:round;">
<path d="M122047 160625
L122047 161412
" />
</g>
<g style="fill:#000000; fill-opacity:0.0; 
stroke:#000000; stroke-width:39.3701; stroke-opacity:1; 
stroke-linecap:round; stroke-linejoin:round;">
</g>
<g style="fill:#000000; fill-opacity:0.0; 
stroke:#000000; stroke-width:59.0551; stroke-opacity:1; 
stroke-linecap:round; stroke-linejoin:round;">
<path d="M141732 160625
L141732 161412
" />
</g>
<g style="fill:#000000; fill-opacity:0.0; 
stroke:#000000; stroke-width:39.3701; stroke-opacity:1; 
stroke-linecap:round; stroke-linejoin:round;">
</g>
<g style="fill:#000000; fill-opacity:0.0; 
stroke:#000000; stroke-width:59.0551; stroke-opacity:1; 
stroke-linecap:round; stroke-linejoin:round;">
<path d="M161417 160625
L161417 161412
" />
</g>
<g style="fill:#000000; fill-opacity:0.0; 
stroke:#000000; stroke-width:39.3701; stroke-opacity:1; 
stroke-linecap:round; stroke-linejoin:round;">
</g>
<g style="fill:#000000; fill-opacity:0.0; 
stroke:#000000; stroke-width:59.0551; stroke-opacity:1; 
stroke-linecap:round; stroke-linejoin:round;">
<path d="M181102 160625
L181102 161412
" />
</g>
<g style="fill:#000000; fill-opacity:0.0; 
stroke:#000000; stroke-width:39.3701; stroke-opacity:1; 
stroke-linecap:round; stroke-linejoin:round;">
</g>
<g style="fill:#000000; fill-opacity:0.0; 
stroke:#000000; stroke-width:59.0551; stroke-opacity:1; 
stroke-linecap:round; stroke-linejoin:round;">
<path d="M200787 160625
L200787 161412
" />
</g>
<g style="fill:#000000; fill-opacity:0.0; 
stroke:#000000; stroke-width:39.3701; stroke-opacity:1; 
stroke-linecap:round; stroke-linejoin:round;">
</g>
<g style="fill:#000000; fill-opacity:0.0; 
stroke:#000000; stroke-width:59.0551; stroke-opacity:1; 
stroke-linecap:round; stroke-linejoin:round;">
<path d="M220472 160625
L220472 161412
" />
</g>
<g style="fill:#000000; fill-opacity:0.0; 
stroke:#000000; stroke-width:39.3701; stroke-opacity:1; 
stroke-linecap:round; stroke-linejoin:round;">
</g>
<g style="fill:#000000; fill-opacity:0.0; 
stroke:#000000; stroke-width:59.0551; stroke-opacity:1; 
stroke-linecap:round; stroke-linejoin:round;">
<path d="M14199 161250
L13906 161250
" />
<path d="M14052 161250
L14052 160739
L14004 160812
L13955 160860
L13906 160885
" />
</g>
<g style="fill:#000000; fill-opacity:0.0; 
stroke:#000000; stroke-width:39.3701; stroke-opacity:1; 
stroke-linecap:round; stroke-linejoin:round;">
</g>
<g style="fill:#000000; fill-opacity:0.0; 
stroke:#000000; stroke-width:59.0551; stroke-opacity:1; 
stroke-linecap:round; stroke-linejoin:round;">
<path d="M33591 160787
L33615 160763
L33664 160739
L33786 160739
L33835 160763
L33859 160787
L33884 160836
L33884 160885
L33859 160958
L33567 161250
L33884 161250
" />
</g>
<g style="fill:#000000; fill-opacity:0.0; 
stroke:#000000; stroke-width:39.3701; stroke-opacity:1; 
stroke-linecap:round; stroke-linejoin:round;">
</g>
<g style="fill:#000000; fill-opacity:0.0; 
stroke:#000000; stroke-width:59.0551; stroke-opacity:1; 
stroke-linecap:round; stroke-linejoin:round;">
<path d="M53252 160739
L53569 160739
L53398 160933
L53471 160933
L53520 160958
L53544 160982
L53569 161031
L53569 161153
L53544 161202
L53520 161226
L53471 161250
L53325 161250
L53276 161226
L53252 161202
" />
</g>
<g style="fill:#000000; fill-opacity:0.0; 
stroke:#000000; stroke-width:39.3701; stroke-opacity:1; 
stroke-linecap:round; stroke-linejoin:round;">
</g>
<g style="fill:#000000; fill-opacity:0.0; 
stroke:#000000; stroke-width:59.0551; stroke-opacity:1; 
stroke-linecap:round; stroke-linejoin:round;">
<path d="M73205 160909
L73205 161250
" />
<path d="M73083 160714
L72961 161080
L73278 161080
" />
</g>
<g style="fill:#000000; fill-opacity:0.0; 
stroke:#000000; stroke-width:39.3701; stroke-opacity:1; 
stroke-linecap:round; stroke-linejoin:round;">
</g>
<g style="fill:#000000; fill-opacity:0.0; 
stroke:#000000; stroke-width:59.0551; stroke-opacity:1; 
stroke-linecap:round; stroke-linejoin:round;">
<path d="M92914 160739
L92671 160739
L92646 160982
L92671 160958
L92719 160933
L92841 160933
L92890 160958
L92914 160982
L92939 161031
L92939 161153
L92914 161202
L92890 161226
L92841 161250
L92719 161250
L92671 161226
L92646 161202
" />
</g>
<g style="fill:#000000; fill-opacity:0.0; 
stroke:#000000; stroke-width:39.3701; stroke-opacity:1; 
stroke-linecap:round; stroke-linejoin:round;">
</g>
<g style="fill:#000000; fill-opacity:0.0; 
stroke:#000000; stroke-width:59.0551; stroke-opacity:1; 
stroke-linecap:round; stroke-linejoin:round;">
<path d="M112575 160739
L112477 160739
L112429 160763
L112404 160787
L112356 160860
L112331 160958
L112331 161153
L112356 161202
L112380 161226
L112429 161250
L112526 161250
L112575 161226
L112599 161202
L112624 161153
L112624 161031
L112599 160982
L112575 160958
L112526 160933
L112429 160933
L112380 160958
L112356 160982
L112331 161031
" />
</g>
<g style="fill:#000000; fill-opacity:0.0; 
stroke:#000000; stroke-width:39.3701; stroke-opacity:1; 
stroke-linecap:round; stroke-linejoin:round;">
</g>
<g style="fill:#000000; fill-opacity:0.0; 
stroke:#000000; stroke-width:59.0551; stroke-opacity:1; 
stroke-linecap:round; stroke-linejoin:round;">
<path d="M131992 160739
L132333 160739
L132114 161250
" />
</g>
<g style="fill:#000000; fill-opacity:0.0; 
stroke:#000000; stroke-width:39.3701; stroke-opacity:1; 
stroke-linecap:round; stroke-linejoin:round;">
</g>
<g style="fill:#000000; fill-opacity:0.0; 
stroke:#000000; stroke-width:59.0551; stroke-opacity:1; 
stroke-linecap:round; stroke-linejoin:round;">
<path d="M151799 160958
L151750 160933
L151726 160909
L151701 160860
L151701 160836
L151726 160787
L151750 160763
L151799 160739
L151896 160739
L151945 160763
L151969 160787
L151994 160836
L151994 160860
L151969 160909
L151945 160933
L151896 160958
L151799 160958
L151750 160982
L151726 161007
L151701 161055
L151701 161153
L151726 161202
L151750 161226
L151799 161250
L151896 161250
L151945 161226
L151969 161202
L151994 161153
L151994 161055
L151969 161007
L151945 160982
L151896 160958
" />
</g>
<g style="fill:#000000; fill-opacity:0.0; 
stroke:#000000; stroke-width:39.3701; stroke-opacity:1; 
stroke-linecap:round; stroke-linejoin:round;">
</g>
<g style="fill:#000000; fill-opacity:0.0; 
stroke:#000000; stroke-width:59.0551; stroke-opacity:1; 
stroke-linecap:round; stroke-linejoin:round;">
<path d="M171435 161250
L171533 161250
L171581 161226
L171606 161202
L171654 161128
L171679 161031
L171679 160836
L171654 160787
L171630 160763
L171581 160739
L171484 160739
L171435 160763
L171411 160787
L171386 160836
L171386 160958
L171411 161007
L171435 161031
L171484 161055
L171581 161055
L171630 161031
L171654 161007
L171679 160958
" />
</g>
<g style="fill:#000000; fill-opacity:0.0; 
stroke:#000000; stroke-width:39.3701; stroke-opacity:1; 
stroke-linecap:round; stroke-linejoin:round;">
</g>
<g style="fill:#000000; fill-opacity:0.0; 
stroke:#000000; stroke-width:59.0551; stroke-opacity:1; 
stroke-linecap:round; stroke-linejoin:round;">
<path d="M191364 161250
L191071 161250
" />
<path d="M191218 161250
L191218 160739
L191169 160812
L191120 160860
L191071 160885
" />
<path d="M191681 160739
L191729 160739
L191778 160763
L191803 160787
L191827 160836
L191851 160933
L191851 161055
L191827 161153
L191803 161202
L191778 161226
L191729 161250
L191681 161250
L191632 161226
L191608 161202
L191583 161153
L191559 161055
L191559 160933
L191583 160836
L191608 160787
L191632 160763
L191681 160739
" />
</g>
<g style="fill:#000000; fill-opacity:0.0; 
stroke:#000000; stroke-width:39.3701; stroke-opacity:1; 
stroke-linecap:round; stroke-linejoin:round;">
</g>
<g style="fill:#000000; fill-opacity:0.0; 
stroke:#000000; stroke-width:59.0551; stroke-opacity:1; 
stroke-linecap:round; stroke-linejoin:round;">
<path d="M211049 161250
L210756 161250
" />
<path d="M210903 161250
L210903 160739
L210854 160812
L210805 160860
L210756 160885
" />
<path d="M211536 161250
L211244 161250
" />
<path d="M211390 161250
L211390 160739
L211341 160812
L211293 160860
L211244 160885
" />
</g>
<g style="fill:#000000; fill-opacity:0.0; 
stroke:#000000; stroke-width:39.3701; stroke-opacity:1; 
stroke-linecap:round; stroke-linejoin:round;">
</g>
<g style="fill:#000000; fill-opacity:0.0; 
stroke:#000000; stroke-width:59.0551; stroke-opacity:1; 
stroke-linecap:round; stroke-linejoin:round;">
<path d="M3937 23622
L4724 23622
" />
</g>
<g style="fill:#000000; fill-opacity:0.0; 
stroke:#000000; stroke-width:39.3701; stroke-opacity:1; 
stroke-linecap:round; stroke-linejoin:round;">
</g>
<g style="fill:#000000; fill-opacity:0.0; 
stroke:#000000; stroke-width:59.0551; stroke-opacity:1; 
stroke-linecap:round; stroke-linejoin:round;">
<path d="M3937 43307
L4724 43307
" />
</g>
<g style="fill:#000000; fill-opacity:0.0; 
stroke:#000000; stroke-width:39.3701; stroke-opacity:1; 
stroke-linecap:round; stroke-linejoin:round;">
</g>
<g style="fill:#000000; fill-opacity:0.0; 
stroke:#000000; stroke-width:59.0551; stroke-opacity:1; 
stroke-linecap:round; stroke-linejoin:round;">
<path d="M3937 62992
L4724 62992
" />
</g>
<g style="fill:#000000; fill-opacity:0.0; 
stroke:#000000; stroke-width:39.3701; stroke-opacity:1; 
stroke-linecap:round; stroke-linejoin:round;">
</g>
<g style="fill:#000000; fill-opacity:0.0; 
stroke:#000000; stroke-width:59.0551; stroke-opacity:1; 
stroke-linecap:round; stroke-linejoin:round;">
<path d="M3937 82677
L4724 82677
" />
</g>
<g style="fill:#000000; fill-opacity:0.0; 
stroke:#000000; stroke-width:39.3701; stroke-opacity:1; 
stroke-linecap:round; stroke-linejoin:round;">
</g>
<g style="fill:#000000; fill-opacity:0.0; 
stroke:#000000; stroke-width:59.0551; stroke-opacity:1; 
stroke-linecap:round; stroke-linejoin:round;">
<path d="M3937 102362
L4724 102362
" />
</g>
<g style="fill:#000000; fill-opacity:0.0; 
stroke:#000000; stroke-width:39.3701; stroke-opacity:1; 
stroke-linecap:round; stroke-linejoin:round;">
</g>
<g style="fill:#000000; fill-opacity:0.0; 
stroke:#000000; stroke-width:59.0551; stroke-opacity:1; 
stroke-linecap:round; stroke-linejoin:round;">
<path d="M3937 122047
L4724 122047
" />
</g>
<g style="fill:#000000; fill-opacity:0.0; 
stroke:#000000; stroke-width:39.3701; stroke-opacity:1; 
stroke-linecap:round; stroke-linejoin:round;">
</g>
<g style="fill:#000000; fill-opacity:0.0; 
stroke:#000000; stroke-width:59.0551; stroke-opacity:1; 
stroke-linecap:round; stroke-linejoin:round;">
<path d="M3937 141732
L4724 141732
" />
</g>
<g style="fill:#000000; fill-opacity:0.0; 
stroke:#000000; stroke-width:39.3701; stroke-opacity:1; 
stroke-linecap:round; stroke-linejoin:round;">
</g>
<g style="fill:#000000; fill-opacity:0.0; 
stroke:#000000; stroke-width:59.0551; stroke-opacity:1; 
stroke-linecap:round; stroke-linejoin:round;">
<path d="M4208 13864
L4452 13864
" />
<path d="M4160 14011
L4330 13499
L4501 14011
" />
</g>
<g style="fill:#000000; fill-opacity:0.0; 
stroke:#000000; stroke-width:39.3701; stroke-opacity:1; 
stroke-linecap:round; stroke-linejoin:round;">
</g>
<g style="fill:#000000; fill-opacity:0.0; 
stroke:#000000; stroke-width:59.0551; stroke-opacity:1; 
stroke-linecap:round; stroke-linejoin:round;">
<path d="M4367 33428
L4440 33452
L4464 33476
L4489 33525
L4489 33598
L4464 33647
L4440 33671
L4391 33696
L4196 33696
L4196 33184
L4367 33184
L4416 33208
L4440 33233
L4464 33281
L4464 33330
L4440 33379
L4416 33403
L4367 33428
L4196 33428
" />
</g>
<g style="fill:#000000; fill-opacity:0.0; 
stroke:#000000; stroke-width:39.3701; stroke-opacity:1; 
stroke-linecap:round; stroke-linejoin:round;">
</g>
<g style="fill:#000000; fill-opacity:0.0; 
stroke:#000000; stroke-width:59.0551; stroke-opacity:1; 
stroke-linecap:round; stroke-linejoin:round;">
<path d="M4489 53332
L4464 53356
L4391 53381
L4342 53381
L4269 53356
L4221 53308
L4196 53259
L4172 53161
L4172 53088
L4196 52991
L4221 52942
L4269 52893
L4342 52869
L4391 52869
L4464 52893
L4489 52918
" />
</g>
<g style="fill:#000000; fill-opacity:0.0; 
stroke:#000000; stroke-width:39.3701; stroke-opacity:1; 
stroke-linecap:round; stroke-linejoin:round;">
</g>
<g style="fill:#000000; fill-opacity:0.0; 
stroke:#000000; stroke-width:59.0551; stroke-opacity:1; 
stroke-linecap:round; stroke-linejoin:round;">
<path d="M4196 73066
L4196 72554
L4318 72554
L4391 72578
L4440 72627
L4464 72676
L4489 72773
L4489 72846
L4464 72944
L4440 72993
L4391 73041
L4318 73066
L4196 73066
" />
</g>
<g style="fill:#000000; fill-opacity:0.0; 
stroke:#000000; stroke-width:39.3701; stroke-opacity:1; 
stroke-linecap:round; stroke-linejoin:round;">
</g>
<g style="fill:#000000; fill-opacity:0.0; 
stroke:#000000; stroke-width:59.0551; stroke-opacity:1; 
stroke-linecap:round; stroke-linejoin:round;">
<path d="M4221 92483
L4391 92483
" />
<path d="M4464 92751
L4221 92751
L4221 92239
L4464 92239
" />
</g>
<g style="fill:#000000; fill-opacity:0.0; 
stroke:#000000; stroke-width:39.3701; stroke-opacity:1; 
stroke-linecap:round; stroke-linejoin:round;">
</g>
<g style="fill:#000000; fill-opacity:0.0; 
stroke:#000000; stroke-width:59.0551; stroke-opacity:1; 
stroke-linecap:round; stroke-linejoin:round;">
<path d="M4403 112168
L4233 112168
" />
<path d="M4233 112436
L4233 111924
L4476 111924
" />
</g>
<g style="fill:#000000; fill-opacity:0.0; 
stroke:#000000; stroke-width:39.3701; stroke-opacity:1; 
stroke-linecap:round; stroke-linejoin:round;">
</g>
<g style="fill:#000000; fill-opacity:0.0; 
stroke:#000000; stroke-width:59.0551; stroke-opacity:1; 
stroke-linecap:round; stroke-linejoin:round;">
<path d="M4464 131633
L4416 131609
L4342 131609
L4269 131633
L4221 131682
L4196 131731
L4172 131828
L4172 131901
L4196 131999
L4221 132048
L4269 132096
L4342 132121
L4391 132121
L4464 132096
L4489 132072
L4489 131901
L4391 131901
" />
</g>
<g style="fill:#000000; fill-opacity:0.0; 
stroke:#000000; stroke-width:39.3701; stroke-opacity:1; 
stroke-linecap:round; stroke-linejoin:round;">
</g>
<g style="fill:#000000; fill-opacity:0.0; 
stroke:#000000; stroke-width:59.0551; stroke-opacity:1; 
stroke-linecap:round; stroke-linejoin:round;">
<path d="M4184 151806
L4184 151294
" />
<path d="M4184 151538
L4476 151538
" />
<path d="M4476 151806
L4476 151294
" />
</g>
<g style="fill:#000000; fill-opacity:0.0; 
stroke:#000000; stroke-width:39.3701; stroke-opacity:1; 
stroke-linecap:round; stroke-linejoin:round;">
</g>
<g style="fill:#000000; fill-opacity:0.0; 
stroke:#000000; stroke-width:59.0551; stroke-opacity:1; 
stroke-linecap:round; stroke-linejoin:round;">
<path d="M229922 23622
L229135 23622
" />
</g>
<g style="fill:#000000; fill-opacity:0.0; 
stroke:#000000; stroke-width:39.3701; stroke-opacity:1; 
stroke-linecap:round; stroke-linejoin:round;">
</g>
<g style="fill:#000000; fill-opacity:0.0; 
stroke:#000000; stroke-width:59.0551; stroke-opacity:1; 
stroke-linecap:round; stroke-linejoin:round;">
<path d="M229922 43307
L229135 43307
" />
</g>
<g style="fill:#000000; fill-opacity:0.0; 
stroke:#000000; stroke-width:39.3701; stroke-opacity:1; 
stroke-linecap:round; stroke-linejoin:round;">
</g>
<g style="fill:#000000; fill-opacity:0.0; 
stroke:#000000; stroke-width:59.0551; stroke-opacity:1; 
stroke-linecap:round; stroke-linejoin:round;">
<path d="M229922 62992
L229135 62992
" />
</g>
<g style="fill:#000000; fill-opacity:0.0; 
stroke:#000000; stroke-width:39.3701; stroke-opacity:1; 
stroke-linecap:round; stroke-linejoin:round;">
</g>
<g style="fill:#000000; fill-opacity:0.0; 
stroke:#000000; stroke-width:59.0551; stroke-opacity:1; 
stroke-linecap:round; stroke-linejoin:round;">
<path d="M229922 82677
L229135 82677
" />
</g>
<g style="fill:#000000; fill-opacity:0.0; 
stroke:#000000; stroke-width:39.3701; stroke-opacity:1; 
stroke-linecap:round; stroke-linejoin:round;">
</g>
<g style="fill:#000000; fill-opacity:0.0; 
stroke:#000000; stroke-width:59.0551; stroke-opacity:1; 
stroke-linecap:round; stroke-linejoin:round;">
<path d="M229922 102362
L229135 102362
" />
</g>
<g style="fill:#000000; fill-opacity:0.0; 
stroke:#000000; stroke-width:39.3701; stroke-opacity:1; 
stroke-linecap:round; stroke-linejoin:round;">
</g>
<g style="fill:#000000; fill-opacity:0.0; 
stroke:#000000; stroke-width:59.0551; stroke-opacity:1; 
stroke-linecap:round; stroke-linejoin:round;">
<path d="M229922 122047
L229135 122047
" />
</g>
<g style="fill:#000000; fill-opacity:0.0; 
stroke:#000000; stroke-width:39.3701; stroke-opacity:1; 
stroke-linecap:round; stroke-linejoin:round;">
</g>
<g style="fill:#000000; fill-opacity:0.0; 
stroke:#000000; stroke-width:59.0551; stroke-opacity:1; 
stroke-linecap:round; stroke-linejoin:round;">
<path d="M229922 141732
L229135 141732
" />
</g>
<g style="fill:#000000; fill-opacity:0.0; 
stroke:#000000; stroke-width:39.3701; stroke-opacity:1; 
stroke-linecap:round; stroke-linejoin:round;">
</g>
<g style="fill:#000000; fill-opacity:0.0; 
stroke:#000000; stroke-width:59.0551; stroke-opacity:1; 
stroke-linecap:round; stroke-linejoin:round;">
<path d="M229407 13864
L229651 13864
" />
<path d="M229358 14011
L229529 13499
L229699 14011
" />
</g>
<g style="fill:#000000; fill-opacity:0.0; 
stroke:#000000; stroke-width:39.3701; stroke-opacity:1; 
stroke-linecap:round; stroke-linejoin:round;">
</g>
<g style="fill:#000000; fill-opacity:0.0; 
stroke:#000000; stroke-width:59.0551; stroke-opacity:1; 
stroke-linecap:round; stroke-linejoin:round;">
<path d="M229565 33428
L229638 33452
L229663 33476
L229687 33525
L229687 33598
L229663 33647
L229638 33671
L229590 33696
L229395 33696
L229395 33184
L229565 33184
L229614 33208
L229638 33233
L229663 33281
L229663 33330
L229638 33379
L229614 33403
L229565 33428
L229395 33428
" />
</g>
<g style="fill:#000000; fill-opacity:0.0; 
stroke:#000000; stroke-width:39.3701; stroke-opacity:1; 
stroke-linecap:round; stroke-linejoin:round;">
</g>
<g style="fill:#000000; fill-opacity:0.0; 
stroke:#000000; stroke-width:59.0551; stroke-opacity:1; 
stroke-linecap:round; stroke-linejoin:round;">
<path d="M229687 53332
L229663 53356
L229590 53381
L229541 53381
L229468 53356
L229419 53308
L229395 53259
L229370 53161
L229370 53088
L229395 52991
L229419 52942
L229468 52893
L229541 52869
L229590 52869
L229663 52893
L229687 52918
" />
</g>
<g style="fill:#000000; fill-opacity:0.0; 
stroke:#000000; stroke-width:39.3701; stroke-opacity:1; 
stroke-linecap:round; stroke-linejoin:round;">
</g>
<g style="fill:#000000; fill-opacity:0.0; 
stroke:#000000; stroke-width:59.0551; stroke-opacity:1; 
stroke-linecap:round; stroke-linejoin:round;">
<path d="M229395 73066
L229395 72554
L229517 72554
L229590 72578
L229638 72627
L229663 72676
L229687 72773
L229687 72846
L229663 72944
L229638 72993
L229590 73041
L229517 73066
L229395 73066
" />
</g>
<g style="fill:#000000; fill-opacity:0.0; 
stroke:#000000; stroke-width:39.3701; stroke-opacity:1; 
stroke-linecap:round; stroke-linejoin:round;">
</g>
<g style="fill:#000000; fill-opacity:0.0; 
stroke:#000000; stroke-width:59.0551; stroke-opacity:1; 
stroke-linecap:round; stroke-linejoin:round;">
<path d="M229419 92483
L229590 92483
" />
<path d="M229663 92751
L229419 92751
L229419 92239
L229663 92239
" />
</g>
<g style="fill:#000000; fill-opacity:0.0; 
stroke:#000000; stroke-width:39.3701; stroke-opacity:1; 
stroke-linecap:round; stroke-linejoin:round;">
</g>
<g style="fill:#000000; fill-opacity:0.0; 
stroke:#000000; stroke-width:59.0551; stroke-opacity:1; 
stroke-linecap:round; stroke-linejoin:round;">
<path d="M229602 112168
L229431 112168
" />
<path d="M229431 112436
L229431 111924
L229675 111924
" />
</g>
<g style="fill:#000000; fill-opacity:0.0; 
stroke:#000000; stroke-width:39.3701; stroke-opacity:1; 
stroke-linecap:round; stroke-linejoin:round;">
</g>
<g style="fill:#000000; fill-opacity:0.0; 
stroke:#000000; stroke-width:59.0551; stroke-opacity:1; 
stroke-linecap:round; stroke-linejoin:round;">
<path d="M229663 131633
L229614 131609
L229541 131609
L229468 131633
L229419 131682
L229395 131731
L229370 131828
L229370 131901
L229395 131999
L229419 132048
L229468 132096
L229541 132121
L229590 132121
L229663 132096
L229687 132072
L229687 131901
L229590 131901
" />
</g>
<g style="fill:#000000; fill-opacity:0.0; 
stroke:#000000; stroke-width:39.3701; stroke-opacity:1; 
stroke-linecap:round; stroke-linejoin:round;">
</g>
<g style="fill:#000000; fill-opacity:0.0; 
stroke:#000000; stroke-width:59.0551; stroke-opacity:1; 
stroke-linecap:round; stroke-linejoin:round;">
<path d="M229383 151806
L229383 151294
" />
<path d="M229383 151538
L229675 151538
" />
<path d="M229675 151806
L229675 151294
" />
</g>
<g style="fill:#000000; fill-opacity:0.0; 
stroke:#000000; stroke-width:39.3701; stroke-opacity:1; 
stroke-linecap:round; stroke-linejoin:round;">
</g>
<g style="fill:#000000; fill-opacity:0.0; 
stroke:#000000; stroke-width:59.0551; stroke-opacity:1; 
stroke-linecap:round; stroke-linejoin:round;">
<path d="M195841 158963
L195841 158373
L195981 158373
L196066 158401
L196122 158457
L196150 158513
L196178 158626
L196178 158710
L196150 158823
L196122 158879
L196066 158935
L195981 158963
L195841 158963
" />
<path d="M196684 158963
L196684 158654
L196656 158598
L196600 158569
L196487 158569
L196431 158598
" />
<path d="M196684 158935
L196628 158963
L196487 158963
L196431 158935
L196403 158879
L196403 158823
L196431 158766
L196487 158738
L196628 158738
L196684 158710
" />
<path d="M196881 158569
L197106 158569
" />
<path d="M196966 158373
L196966 158879
L196994 158935
L197050 158963
L197106 158963
" />
<path d="M197528 158935
L197472 158963
L197359 158963
L197303 158935
L197275 158879
L197275 158654
L197303 158598
L197359 158569
L197472 158569
L197528 158598
L197556 158654
L197556 158710
L197275 158766
" />
<path d="M197809 158907
L197837 158935
L197809 158963
L197781 158935
L197809 158907
L197809 158963
" />
<path d="M197809 158598
L197837 158626
L197809 158654
L197781 158626
L197809 158598
L197809 158654
" />
</g>
<g style="fill:#000000; fill-opacity:0.0; 
stroke:#000000; stroke-width:39.3701; stroke-opacity:1; 
stroke-linecap:round; stroke-linejoin:round;">
</g>
<g style="fill:#000000; fill-opacity:0.0; 
stroke:#000000; stroke-width:59.0551; stroke-opacity:1; 
stroke-linecap:round; stroke-linejoin:round;">
<path d="M186615 159247
L229135 159247
" />
</g>
<g style="fill:#000000; fill-opacity:0.0; 
stroke:#000000; stroke-width:39.3701; stroke-opacity:1; 
stroke-linecap:round; stroke-linejoin:round;">
</g>
<g style="fill:#000000; fill-opacity:0.0; 
stroke:#000000; stroke-width:59.0551; stroke-opacity:1; 
stroke-linecap:round; stroke-linejoin:round;">
<path d="M187179 160065
L187179 159475
" />
<path d="M187517 160065
L187264 159728
" />
<path d="M187517 159475
L187179 159812
" />
<path d="M187770 160065
L187770 159672
" />
<path d="M187770 159475
L187742 159503
L187770 159531
L187798 159503
L187770 159475
L187770 159531
" />
<path d="M188388 160009
L188360 160037
L188276 160065
L188220 160065
L188135 160037
L188079 159981
L188051 159925
L188023 159812
L188023 159728
L188051 159616
L188079 159559
L188135 159503
L188220 159475
L188276 159475
L188360 159503
L188388 159531
" />
<path d="M188895 160065
L188895 159756
L188867 159700
L188810 159672
L188698 159672
L188642 159700
" />
<path d="M188895 160037
L188838 160065
L188698 160065
L188642 160037
L188613 159981
L188613 159925
L188642 159869
L188698 159841
L188838 159841
L188895 159812
" />
<path d="M189429 160065
L189429 159475
" />
<path d="M189429 160037
L189373 160065
L189260 160065
L189204 160037
L189176 160009
L189148 159953
L189148 159784
L189176 159728
L189204 159700
L189260 159672
L189373 159672
L189429 159700
" />
<path d="M190160 159756
L190357 159756
" />
<path d="M190441 160065
L190160 160065
L190160 159475
L190441 159475
" />
<path d="M190694 160009
L190723 160037
L190694 160065
L190666 160037
L190694 160009
L190694 160065
" />
<path d="M190976 160065
L190976 159475
L191116 159475
L191201 159503
L191257 159559
L191285 159616
L191313 159728
L191313 159812
L191285 159925
L191257 159981
L191201 160037
L191116 160065
L190976 160065
" />
<path d="M191566 160009
L191594 160037
L191566 160065
L191538 160037
L191566 160009
L191566 160065
" />
<path d="M191819 159897
L192101 159897
" />
<path d="M191763 160065
L191960 159475
L192157 160065
" />
<path d="M192354 160009
L192382 160037
L192354 160065
L192325 160037
L192354 160009
L192354 160065
" />
<path d="M193535 160065
L193535 159475
" />
<path d="M193591 159841
L193760 160065
" />
<path d="M193760 159672
L193535 159897
" />
<path d="M194013 160065
L194013 159672
" />
<path d="M194013 159475
L193985 159503
L194013 159531
L194041 159503
L194013 159475
L194013 159531
" />
<path d="M194547 160037
L194491 160065
L194378 160065
L194322 160037
L194294 160009
L194266 159953
L194266 159784
L194294 159728
L194322 159700
L194378 159672
L194491 159672
L194547 159700
" />
<path d="M195053 160065
L195053 159756
L195025 159700
L194969 159672
L194856 159672
L194800 159700
" />
<path d="M195053 160037
L194997 160065
L194856 160065
L194800 160037
L194772 159981
L194772 159925
L194800 159869
L194856 159841
L194997 159841
L195053 159812
" />
<path d="M195588 160065
L195588 159475
" />
<path d="M195588 160037
L195531 160065
L195419 160065
L195363 160037
L195334 160009
L195306 159953
L195306 159784
L195334 159728
L195363 159700
L195419 159672
L195531 159672
L195588 159700
" />
<path d="M196487 160290
L196459 160262
L196403 160178
L196375 160122
L196347 160037
L196319 159897
L196319 159784
L196347 159644
L196375 159559
L196403 159503
L196459 159419
L196487 159391
" />
<path d="M196994 159475
L196712 159475
L196684 159756
L196712 159728
L196769 159700
L196909 159700
L196966 159728
L196994 159756
L197022 159812
L197022 159953
L196994 160009
L196966 160037
L196909 160065
L196769 160065
L196712 160037
L196684 160009
" />
<path d="M197275 160009
L197303 160037
L197275 160065
L197247 160037
L197275 160009
L197275 160065
" />
<path d="M197865 160065
L197528 160065
" />
<path d="M197697 160065
L197697 159475
L197640 159559
L197584 159616
L197528 159644
" />
<path d="M198118 160009
L198147 160037
L198118 160065
L198090 160037
L198118 160009
L198118 160065
" />
<path d="M198653 159672
L198653 160065
" />
<path d="M198512 159447
L198372 159869
L198737 159869
" />
<path d="M198962 159841
L199412 159841
" />
<path d="M199806 159475
L199862 159475
L199918 159503
L199946 159531
L199975 159587
L200003 159700
L200003 159841
L199975 159953
L199946 160009
L199918 160037
L199862 160065
L199806 160065
L199750 160037
L199721 160009
L199693 159953
L199665 159841
L199665 159700
L199693 159587
L199721 159531
L199750 159503
L199806 159475
" />
<path d="M200199 160290
L200228 160262
L200284 160178
L200312 160122
L200340 160037
L200368 159897
L200368 159784
L200340 159644
L200312 159559
L200284 159503
L200228 159419
L200199 159391
" />
</g>
<g style="fill:#000000; fill-opacity:0.0; 
stroke:#000000; stroke-width:39.3701; stroke-opacity:1; 
stroke-linecap:round; stroke-linejoin:round;">
</g>
<g style="fill:#000000; fill-opacity:0.0; 
stroke:#000000; stroke-width:59.0551; stroke-opacity:1; 
stroke-linecap:round; stroke-linejoin:round;">
<path d="M186615 158066
L229135 158066
" />
</g>
<g style="fill:#000000; fill-opacity:0.0; 
stroke:#000000; stroke-width:39.3701; stroke-opacity:1; 
stroke-linecap:round; stroke-linejoin:round;">
</g>
<g style="fill:#000000; fill-opacity:0.0; 
stroke:#000000; stroke-width:118.11; stroke-opacity:1; 
stroke-linecap:round; stroke-linejoin:round;">
<path d="M221029 158963
L220832 158682
" />
<path d="M220691 158963
L220691 158373
L220916 158373
L220972 158401
L221000 158429
L221029 158485
L221029 158569
L221000 158626
L220972 158654
L220916 158682
L220691 158682
" />
<path d="M221507 158935
L221450 158963
L221338 158963
L221282 158935
L221253 158879
L221253 158654
L221282 158598
L221338 158569
L221450 158569
L221507 158598
L221535 158654
L221535 158710
L221253 158766
" />
<path d="M221732 158569
L221872 158963
L222013 158569
" />
<path d="M222238 158907
L222266 158935
L222238 158963
L222210 158935
L222238 158907
L222238 158963
" />
<path d="M222238 158598
L222266 158626
L222238 158654
L222210 158626
L222238 158598
L222238 158654
" />
</g>
<g style="fill:#000000; fill-opacity:0.0; 
stroke:#000000; stroke-width:39.3701; stroke-opacity:1; 
stroke-linecap:round; stroke-linejoin:round;">
</g>
<g style="fill:#000000; fill-opacity:0.0; 
stroke:#000000; stroke-width:59.0551; stroke-opacity:1; 
stroke-linecap:round; stroke-linejoin:round;">
<path d="M187151 158935
L187235 158963
L187376 158963
L187432 158935
L187460 158907
L187489 158851
L187489 158794
L187460 158738
L187432 158710
L187376 158682
L187264 158654
L187207 158626
L187179 158598
L187151 158541
L187151 158485
L187179 158429
L187207 158401
L187264 158373
L187404 158373
L187489 158401
" />
<path d="M187742 158963
L187742 158569
" />
<path d="M187742 158373
L187714 158401
L187742 158429
L187770 158401
L187742 158373
L187742 158429
" />
<path d="M187967 158569
L188276 158569
L187967 158963
L188276 158963
" />
<path d="M188726 158935
L188670 158963
L188557 158963
L188501 158935
L188473 158879
L188473 158654
L188501 158598
L188557 158569
L188670 158569
L188726 158598
L188754 158654
L188754 158710
L188473 158766
" />
<path d="M189007 158907
L189035 158935
L189007 158963
L188979 158935
L189007 158907
L189007 158963
" />
<path d="M189007 158598
L189035 158626
L189007 158654
L188979 158626
L189007 158598
L189007 158654
" />
<path d="M189710 158794
L189991 158794
" />
<path d="M189654 158963
L189851 158373
L190048 158963
" />
<path d="M190216 158429
L190244 158401
L190301 158373
L190441 158373
L190498 158401
L190526 158429
L190554 158485
L190554 158541
L190526 158626
L190188 158963
L190554 158963
" />
</g>
<g style="fill:#000000; fill-opacity:0.0; 
stroke:#000000; stroke-width:39.3701; stroke-opacity:1; 
stroke-linecap:round; stroke-linejoin:round;">
</g>
<g style="fill:#000000; fill-opacity:0.0; 
stroke:#000000; stroke-width:59.0551; stroke-opacity:1; 
stroke-linecap:round; stroke-linejoin:round;">
<path d="M220644 160065
L220644 159475
" />
<path d="M221178 160065
L221178 159475
" />
<path d="M221178 160037
L221122 160065
L221009 160065
L220953 160037
L220925 160009
L220897 159953
L220897 159784
L220925 159728
L220953 159700
L221009 159672
L221122 159672
L221178 159700
" />
<path d="M221459 160009
L221487 160037
L221459 160065
L221431 160037
L221459 160009
L221459 160065
" />
<path d="M221459 159700
L221487 159728
L221459 159756
L221431 159728
L221459 159700
L221459 159756
" />
<path d="M222500 160065
L222162 160065
" />
<path d="M222331 160065
L222331 159475
L222275 159559
L222219 159616
L222162 159644
" />
<path d="M223175 159447
L222669 160206
" />
<path d="M223681 160065
L223343 160065
" />
<path d="M223512 160065
L223512 159475
L223456 159559
L223400 159616
L223343 159644
" />
</g>
<g style="fill:#000000; fill-opacity:0.0; 
stroke:#000000; stroke-width:39.3701; stroke-opacity:1; 
stroke-linecap:round; stroke-linejoin:round;">
</g>
<g style="fill:#000000; fill-opacity:0.0; 
stroke:#000000; stroke-width:59.0551; stroke-opacity:1; 
stroke-linecap:round; stroke-linejoin:round;">
<path d="M186615 156491
L229135 156491
" />
</g>
<g style="fill:#000000; fill-opacity:0.0; 
stroke:#000000; stroke-width:39.3701; stroke-opacity:1; 
stroke-linecap:round; stroke-linejoin:round;">
</g>
<g style="fill:#000000; fill-opacity:0.0; 
stroke:#000000; stroke-width:157.48; stroke-opacity:1; 
stroke-linecap:round; stroke-linejoin:round;">
<path d="M187290 156769
L187740 156769
" />
<path d="M187416 157556
L187515 156769
" />
<path d="M187904 157556
L187969 157031
" />
<path d="M188002 156769
L187960 156806
L187993 156844
L188035 156806
L188002 156769
L187993 156844
" />
<path d="M188232 157031
L188532 157031
" />
<path d="M188377 156769
L188293 157444
L188321 157519
L188391 157556
L188466 157556
" />
<path d="M188841 157556
L188771 157519
L188743 157444
L188827 156769
" />
<path d="M189446 157519
L189366 157556
L189216 157556
L189146 157519
L189117 157444
L189155 157144
L189202 157069
L189282 157031
L189431 157031
L189502 157069
L189530 157144
L189521 157219
L189136 157294
" />
<path d="M189825 157481
L189858 157519
L189816 157556
L189783 157519
L189825 157481
L189816 157556
" />
<path d="M189877 157069
L189910 157106
L189867 157144
L189835 157106
L189877 157069
L189867 157144
" />
</g>
<g style="fill:#000000; fill-opacity:0.0; 
stroke:#000000; stroke-width:39.3701; stroke-opacity:1; 
stroke-linecap:round; stroke-linejoin:round;">
</g>
<g style="fill:#000000; fill-opacity:0.0; 
stroke:#000000; stroke-width:59.0551; stroke-opacity:1; 
stroke-linecap:round; stroke-linejoin:round;">
<path d="M187376 155740
L187179 155740
" />
<path d="M187179 156050
L187179 155459
L187460 155459
" />
<path d="M187685 156050
L187685 155656
" />
<path d="M187685 155459
L187657 155487
L187685 155515
L187714 155487
L187685 155459
L187685 155515
" />
<path d="M188051 156050
L187995 156022
L187967 155965
L187967 155459
" />
<path d="M188501 156022
L188445 156050
L188332 156050
L188276 156022
L188248 155965
L188248 155740
L188276 155684
L188332 155656
L188445 155656
L188501 155684
L188529 155740
L188529 155797
L188248 155853
" />
<path d="M188782 155993
L188810 156022
L188782 156050
L188754 156022
L188782 155993
L188782 156050
" />
<path d="M188782 155684
L188810 155712
L188782 155740
L188754 155712
L188782 155684
L188782 155740
" />
<path d="M189513 156050
L189513 155459
" />
<path d="M189570 155825
L189738 156050
" />
<path d="M189738 155656
L189513 155881
" />
<path d="M190216 156022
L190160 156050
L190048 156050
L189991 156022
L189963 155965
L189963 155740
L189991 155684
L190048 155656
L190160 155656
L190216 155684
L190244 155740
L190244 155797
L189963 155853
" />
<path d="M190441 155656
L190582 156050
" />
<path d="M190723 155656
L190582 156050
L190526 156190
L190498 156218
L190441 156247
" />
<path d="M190948 156050
L190948 155459
" />
<path d="M190948 155684
L191004 155656
L191116 155656
L191172 155684
L191201 155712
L191229 155769
L191229 155937
L191201 155993
L191172 156022
L191116 156050
L191004 156050
L190948 156022
" />
<path d="M191566 156050
L191510 156022
L191482 155993
L191454 155937
L191454 155769
L191482 155712
L191510 155684
L191566 155656
L191651 155656
L191707 155684
L191735 155712
L191763 155769
L191763 155937
L191735 155993
L191707 156022
L191651 156050
L191566 156050
" />
<path d="M192269 156050
L192269 155740
L192241 155684
L192185 155656
L192072 155656
L192016 155684
" />
<path d="M192269 156022
L192213 156050
L192072 156050
L192016 156022
L191988 155965
L191988 155909
L192016 155853
L192072 155825
L192213 155825
L192269 155797
" />
<path d="M192550 156050
L192550 155656
" />
<path d="M192550 155769
L192579 155712
L192607 155684
L192663 155656
L192719 155656
" />
<path d="M193169 156050
L193169 155459
" />
<path d="M193169 156022
L193113 156050
L193000 156050
L192944 156022
L192916 155993
L192888 155937
L192888 155769
L192916 155712
L192944 155684
L193000 155656
L193113 155656
L193169 155684
" />
<path d="M193450 155993
L193478 156022
L193450 156050
L193422 156022
L193450 155993
L193450 156050
" />
<path d="M193732 156050
L193732 155459
" />
<path d="M193788 155825
L193957 156050
" />
<path d="M193957 155656
L193732 155881
" />
<path d="M194210 156050
L194210 155656
" />
<path d="M194210 155459
L194181 155487
L194210 155515
L194238 155487
L194210 155459
L194210 155515
" />
<path d="M194744 156022
L194688 156050
L194575 156050
L194519 156022
L194491 155993
L194463 155937
L194463 155769
L194491 155712
L194519 155684
L194575 155656
L194688 155656
L194744 155684
" />
<path d="M195250 156050
L195250 155740
L195222 155684
L195166 155656
L195053 155656
L194997 155684
" />
<path d="M195250 156022
L195194 156050
L195053 156050
L194997 156022
L194969 155965
L194969 155909
L194997 155853
L195053 155825
L195194 155825
L195250 155797
" />
<path d="M195784 156050
L195784 155459
" />
<path d="M195784 156022
L195728 156050
L195616 156050
L195559 156022
L195531 155993
L195503 155937
L195503 155769
L195531 155712
L195559 155684
L195616 155656
L195728 155656
L195784 155684
" />
<path d="M195925 156106
L196375 156106
" />
<path d="M196516 155656
L196516 156247
" />
<path d="M196516 155684
L196572 155656
L196684 155656
L196741 155684
L196769 155712
L196797 155769
L196797 155937
L196769 155993
L196741 156022
L196684 156050
L196572 156050
L196516 156022
" />
<path d="M197303 156022
L197247 156050
L197134 156050
L197078 156022
L197050 155993
L197022 155937
L197022 155769
L197050 155712
L197078 155684
L197134 155656
L197247 155656
L197303 155684
" />
<path d="M197556 156050
L197556 155459
" />
<path d="M197556 155684
L197612 155656
L197725 155656
L197781 155684
L197809 155712
L197837 155769
L197837 155937
L197809 155993
L197781 156022
L197725 156050
L197612 156050
L197556 156022
" />
</g>
<g style="fill:#000000; fill-opacity:0.0; 
stroke:#000000; stroke-width:39.3701; stroke-opacity:1; 
stroke-linecap:round; stroke-linejoin:round;">
</g>
<g style="fill:#000000; fill-opacity:0.0; 
stroke:#000000; stroke-width:59.0551; stroke-opacity:1; 
stroke-linecap:round; stroke-linejoin:round;">
<path d="M186615 154129
L229135 154129
" />
</g>
<g style="fill:#000000; fill-opacity:0.0; 
stroke:#000000; stroke-width:39.3701; stroke-opacity:1; 
stroke-linecap:round; stroke-linejoin:round;">
</g>
<g style="fill:#000000; fill-opacity:0.0; 
stroke:#000000; stroke-width:59.0551; stroke-opacity:1; 
stroke-linecap:round; stroke-linejoin:round;">
<path d="M187151 154959
L187235 154987
L187376 154987
L187432 154959
L187460 154930
L187489 154874
L187489 154818
L187460 154762
L187432 154734
L187376 154706
L187264 154677
L187207 154649
L187179 154621
L187151 154565
L187151 154509
L187179 154452
L187207 154424
L187264 154396
L187404 154396
L187489 154424
" />
<path d="M187742 154987
L187742 154396
" />
<path d="M187995 154987
L187995 154677
L187967 154621
L187910 154593
L187826 154593
L187770 154621
L187742 154649
" />
<path d="M188501 154959
L188445 154987
L188332 154987
L188276 154959
L188248 154902
L188248 154677
L188276 154621
L188332 154593
L188445 154593
L188501 154621
L188529 154677
L188529 154734
L188248 154790
" />
<path d="M189007 154959
L188951 154987
L188838 154987
L188782 154959
L188754 154902
L188754 154677
L188782 154621
L188838 154593
L188951 154593
L189007 154621
L189035 154677
L189035 154734
L188754 154790
" />
<path d="M189204 154593
L189429 154593
" />
<path d="M189288 154396
L189288 154902
L189316 154959
L189373 154987
L189429 154987
" />
<path d="M189626 154930
L189654 154959
L189626 154987
L189598 154959
L189626 154930
L189626 154987
" />
<path d="M189626 154621
L189654 154649
L189626 154677
L189598 154649
L189626 154621
L189626 154677
" />
</g>
<g style="fill:#000000; fill-opacity:0.0; 
stroke:#000000; stroke-width:39.3701; stroke-opacity:1; 
stroke-linecap:round; stroke-linejoin:round;">
</g>
<g style="fill:#000000; fill-opacity:0.0; 
stroke:#000000; stroke-width:59.0551; stroke-opacity:1; 
stroke-linecap:round; stroke-linejoin:round;">
<path d="M194489 158066
L194489 159247
" />
</g>
<g style="fill:#000000; fill-opacity:0.0; 
stroke:#000000; stroke-width:39.3701; stroke-opacity:1; 
stroke-linecap:round; stroke-linejoin:round;">
</g>
<g style="fill:#000000; fill-opacity:0.0; 
stroke:#000000; stroke-width:59.0551; stroke-opacity:1; 
stroke-linecap:round; stroke-linejoin:round;">
<path d="M219686 158066
L219686 160625
" />
</g>
<g style="fill:#008484; fill-opacity:0.0; 
stroke:#008484; stroke-width:59.0551; stroke-opacity:1; 
stroke-linecap:round; stroke-linejoin:round;">
</g>
<g style="fill:#008484; fill-opacity:0.0; 
stroke:#008484; stroke-width:150; stroke-opacity:1; 
stroke-linecap:round; stroke-linejoin:round;">
<path d="M187 14750
L187 7750
" />
<path d="M187 7750
L13187 7750
" />
<path d="M13187 7750
L13187 14750
" />
<path d="M13187 14750
L187 14750
" />
</g>
<g style="fill:#008484; fill-opacity:0.0; 
stroke:#008484; stroke-width:59.0551; stroke-opacity:1; 
stroke-linecap:round; stroke-linejoin:round;">
<path d="M2832 8755
L2832 8785
L2817 8815
L2802 8830
L2772 8845
L2712 8860
L2637 8860
L2577 8845
L2547 8830
L2532 8815
L2517 8785
L2517 8755
L2532 8725
L2547 8710
L2577 8695
L2637 8680
L2712 8680
L2772 8695
L2802 8710
L2817 8725
L2832 8755
" />
<path d="M2832 9055
L2832 9085
L2817 9114
L2802 9129
L2772 9144
L2712 9159
L2637 9159
L2577 9144
L2547 9129
L2532 9114
L2517 9085
L2517 9055
L2532 9025
L2547 9010
L2577 8995
L2637 8980
L2712 8980
L2772 8995
L2802 9010
L2817 9025
L2832 9055
" />
<path d="M2697 9339
L2712 9309
L2727 9294
L2757 9279
L2772 9279
L2802 9294
L2817 9309
L2832 9339
L2832 9399
L2817 9429
L2802 9444
L2772 9459
L2757 9459
L2727 9444
L2712 9429
L2697 9399
L2697 9339
L2682 9309
L2667 9294
L2637 9279
L2577 9279
L2547 9294
L2532 9309
L2517 9339
L2517 9399
L2532 9429
L2547 9444
L2577 9459
L2637 9459
L2667 9444
L2682 9429
L2697 9399
" />
<path d="M6887 8755
L6887 8785
L6872 8815
L6857 8830
L6827 8845
L6767 8860
L6692 8860
L6632 8845
L6602 8830
L6587 8815
L6572 8785
L6572 8755
L6587 8725
L6602 8710
L6632 8695
L6692 8680
L6767 8680
L6827 8695
L6857 8710
L6872 8725
L6887 8755
" />
<path d="M6857 8980
L6872 8995
L6887 9025
L6887 9100
L6872 9129
L6857 9144
L6827 9159
L6797 9159
L6752 9144
L6572 8965
L6572 9159
" />
<path d="M6887 9354
L6887 9384
L6872 9414
L6857 9429
L6827 9444
L6767 9459
L6692 9459
L6632 9444
L6602 9429
L6587 9414
L6572 9384
L6572 9354
L6587 9324
L6602 9309
L6632 9294
L6692 9279
L6767 9279
L6827 9294
L6857 9309
L6872 9324
L6887 9354
" />
<path d="M5859 8755
L5859 8785
L5844 8815
L5829 8830
L5799 8845
L5739 8860
L5665 8860
L5605 8845
L5575 8830
L5560 8815
L5545 8785
L5545 8755
L5560 8725
L5575 8710
L5605 8695
L5665 8680
L5739 8680
L5799 8695
L5829 8710
L5844 8725
L5859 8755
" />
<path d="M5545 9159
L5545 8980
" />
<path d="M5545 9070
L5859 9070
L5814 9040
L5784 9010
L5769 8980
" />
<path d="M5859 9264
L5859 9474
L5545 9339
" />
<path d="M4844 8860
L4859 8830
L4859 8785
L4844 8740
L4814 8710
L4784 8695
L4724 8680
L4680 8680
L4620 8695
L4590 8710
L4560 8740
L4545 8785
L4545 8815
L4560 8860
L4575 8875
L4680 8875
L4680 8815
" />
<path d="M4545 9010
L4859 9010
L4545 9189
L4859 9189
" />
<path d="M4545 9339
L4859 9339
L4859 9414
L4844 9459
L4814 9489
L4784 9504
L4724 9519
L4680 9519
L4620 9504
L4590 9489
L4560 9459
L4545 9414
L4545 9339
" />
<path d="M3844 8860
L3859 8830
L3859 8785
L3844 8740
L3814 8710
L3784 8695
L3724 8680
L3680 8680
L3620 8695
L3590 8710
L3560 8740
L3545 8785
L3545 8815
L3560 8860
L3575 8875
L3680 8875
L3680 8815
" />
<path d="M3545 9010
L3859 9010
L3545 9189
L3859 9189
" />
<path d="M3545 9339
L3859 9339
L3859 9414
L3844 9459
L3814 9489
L3784 9504
L3724 9519
L3680 9519
L3620 9504
L3590 9489
L3560 9459
L3545 9414
L3545 9339
" />
<path d="M7871 8755
L7871 8785
L7856 8815
L7841 8830
L7811 8845
L7751 8860
L7676 8860
L7616 8845
L7586 8830
L7571 8815
L7556 8785
L7556 8755
L7571 8725
L7586 8710
L7616 8695
L7676 8680
L7751 8680
L7811 8695
L7841 8710
L7856 8725
L7871 8755
" />
<path d="M7841 8980
L7856 8995
L7871 9025
L7871 9100
L7856 9129
L7841 9144
L7811 9159
L7781 9159
L7736 9144
L7556 8965
L7556 9159
" />
<path d="M7841 9279
L7856 9294
L7871 9324
L7871 9399
L7856 9429
L7841 9444
L7811 9459
L7781 9459
L7736 9444
L7556 9264
L7556 9459
" />
<path d="M8856 8755
L8856 8785
L8841 8815
L8826 8830
L8796 8845
L8736 8860
L8661 8860
L8601 8845
L8571 8830
L8556 8815
L8541 8785
L8541 8755
L8556 8725
L8571 8710
L8601 8695
L8661 8680
L8736 8680
L8796 8695
L8826 8710
L8841 8725
L8856 8755
" />
<path d="M8826 8980
L8841 8995
L8856 9025
L8856 9100
L8841 9129
L8826 9144
L8796 9159
L8766 9159
L8721 9144
L8541 8965
L8541 9159
" />
<path d="M8751 9429
L8541 9429
" />
<path d="M8871 9354
L8646 9279
L8646 9474
" />
<path d="M9545 8860
L9545 8680
" />
<path d="M9545 8770
L9859 8770
L9814 8740
L9784 8710
L9769 8680
" />
<path d="M9859 9055
L9859 9085
L9844 9114
L9829 9129
L9799 9144
L9739 9159
L9665 9159
L9605 9144
L9575 9129
L9560 9114
L9545 9085
L9545 9055
L9560 9025
L9575 9010
L9605 8995
L9665 8980
L9739 8980
L9799 8995
L9829 9010
L9844 9025
L9859 9055
" />
<path d="M9859 9354
L9859 9384
L9844 9414
L9829 9429
L9799 9444
L9739 9459
L9665 9459
L9605 9444
L9575 9429
L9560 9414
L9545 9384
L9545 9354
L9560 9324
L9575 9309
L9605 9294
L9665 9279
L9739 9279
L9799 9294
L9829 9309
L9844 9324
L9859 9354
" />
<path d="M11545 8860
L11545 8680
" />
<path d="M11545 8770
L11859 8770
L11814 8740
L11784 8710
L11769 8680
" />
<path d="M11859 9055
L11859 9085
L11844 9114
L11829 9129
L11799 9144
L11739 9159
L11665 9159
L11605 9144
L11575 9129
L11560 9114
L11545 9085
L11545 9055
L11560 9025
L11575 9010
L11605 8995
L11665 8980
L11739 8980
L11799 8995
L11829 9010
L11844 9025
L11859 9055
" />
<path d="M11754 9429
L11545 9429
" />
<path d="M11874 9354
L11650 9279
L11650 9474
" />
<path d="M10545 13220
L10545 13040
" />
<path d="M10545 13130
L10859 13130
L10814 13100
L10784 13070
L10769 13040
" />
<path d="M10545 13519
L10545 13340
" />
<path d="M10545 13429
L10859 13429
L10814 13400
L10784 13370
L10769 13340
" />
<path d="M10545 13819
L10545 13639
" />
<path d="M10545 13729
L10859 13729
L10814 13699
L10784 13669
L10769 13639
" />
<path d="M9545 13220
L9545 13040
" />
<path d="M9545 13130
L9859 13130
L9814 13100
L9784 13070
L9769 13040
" />
<path d="M9545 13519
L9545 13340
" />
<path d="M9545 13429
L9859 13429
L9814 13400
L9784 13370
L9769 13340
" />
<path d="M9859 13624
L9859 13819
L9739 13714
L9739 13759
L9724 13789
L9709 13804
L9680 13819
L9605 13819
L9575 13804
L9560 13789
L9545 13759
L9545 13669
L9560 13639
L9575 13624
" />
<path d="M5859 13115
L5859 13145
L5844 13175
L5829 13190
L5799 13205
L5739 13220
L5665 13220
L5605 13205
L5575 13190
L5560 13175
L5545 13145
L5545 13115
L5560 13085
L5575 13070
L5605 13055
L5665 13040
L5739 13040
L5799 13055
L5829 13070
L5844 13085
L5859 13115
" />
<path d="M5859 13325
L5859 13519
L5739 13414
L5739 13459
L5724 13489
L5709 13504
L5680 13519
L5605 13519
L5575 13504
L5560 13489
L5545 13459
L5545 13370
L5560 13340
L5575 13325
" />
<path d="M5545 13819
L5545 13639
" />
<path d="M5545 13729
L5859 13729
L5814 13699
L5784 13669
L5769 13639
" />
<path d="M4859 13010
L4545 13115
L4859 13220
" />
<path d="M4575 13504
L4560 13489
L4545 13444
L4545 13414
L4560 13370
L4590 13340
L4620 13325
L4680 13310
L4724 13310
L4784 13325
L4814 13340
L4844 13370
L4859 13414
L4859 13444
L4844 13489
L4829 13504
" />
<path d="M4575 13819
L4560 13804
L4545 13759
L4545 13729
L4560 13684
L4590 13654
L4620 13639
L4680 13624
L4724 13624
L4784 13639
L4814 13654
L4844 13684
L4859 13729
L4859 13759
L4844 13804
L4829 13819
" />
<path d="M2844 13157
L2859 13127
L2859 13082
L2844 13037
L2814 13007
L2784 12992
L2724 12977
L2680 12977
L2620 12992
L2590 13007
L2560 13037
L2545 13082
L2545 13112
L2560 13157
L2575 13172
L2680 13172
L2680 13112
" />
<path d="M2545 13307
L2859 13307
L2545 13487
L2859 13487
" />
<path d="M2545 13637
L2859 13637
L2859 13712
L2844 13757
L2814 13787
L2784 13802
L2724 13817
L2680 13817
L2620 13802
L2590 13787
L2560 13757
L2545 13712
L2545 13637
" />
<path d="M1545 13187
L1694 13082
" />
<path d="M1545 13007
L1859 13007
L1859 13127
L1844 13157
L1829 13172
L1799 13187
L1754 13187
L1724 13172
L1709 13157
L1694 13127
L1694 13007
" />
<path d="M1635 13307
L1635 13457
" />
<path d="M1545 13277
L1859 13382
L1545 13487
" />
<path d="M1859 13562
L1545 13637
L1769 13697
L1545 13757
L1859 13832
" />
<path d="M6859 13115
L6859 13145
L6844 13175
L6829 13190
L6799 13205
L6739 13220
L6665 13220
L6605 13205
L6575 13190
L6560 13175
L6545 13145
L6545 13115
L6560 13085
L6575 13070
L6605 13055
L6665 13040
L6739 13040
L6799 13055
L6829 13070
L6844 13085
L6859 13115
" />
<path d="M6829 13340
L6844 13355
L6859 13385
L6859 13459
L6844 13489
L6829 13504
L6799 13519
L6769 13519
L6724 13504
L6545 13325
L6545 13519
" />
<path d="M6545 13669
L6545 13729
L6560 13759
L6575 13774
L6620 13804
L6680 13819
L6799 13819
L6829 13804
L6844 13789
L6859 13759
L6859 13699
L6844 13669
L6829 13654
L6799 13639
L6724 13639
L6694 13654
L6680 13669
L6665 13699
L6665 13759
L6680 13789
L6694 13804
L6724 13819
" />
<path d="M7859 13115
L7859 13145
L7844 13175
L7829 13190
L7799 13205
L7739 13220
L7665 13220
L7605 13205
L7575 13190
L7560 13175
L7545 13145
L7545 13115
L7560 13085
L7575 13070
L7605 13055
L7665 13040
L7739 13040
L7799 13055
L7829 13070
L7844 13085
L7859 13115
" />
<path d="M7859 13414
L7859 13444
L7844 13474
L7829 13489
L7799 13504
L7739 13519
L7665 13519
L7605 13504
L7575 13489
L7560 13474
L7545 13444
L7545 13414
L7560 13385
L7575 13370
L7605 13355
L7665 13340
L7739 13340
L7799 13355
L7829 13370
L7844 13385
L7859 13414
" />
<path d="M7829 13639
L7844 13654
L7859 13684
L7859 13759
L7844 13789
L7829 13804
L7799 13819
L7769 13819
L7724 13804
L7545 13624
L7545 13819
" />
<path d="M8545 13220
L8545 13040
" />
<path d="M8545 13130
L8859 13130
L8814 13100
L8784 13070
L8769 13040
" />
<path d="M8545 13519
L8545 13340
" />
<path d="M8545 13429
L8859 13429
L8814 13400
L8784 13370
L8769 13340
" />
<path d="M8859 13804
L8859 13654
L8709 13639
L8724 13654
L8739 13684
L8739 13759
L8724 13789
L8709 13804
L8680 13819
L8605 13819
L8575 13804
L8560 13789
L8545 13759
L8545 13684
L8560 13654
L8575 13639
" />
<path d="M11859 13115
L11859 13145
L11844 13175
L11829 13190
L11799 13205
L11739 13220
L11665 13220
L11605 13205
L11575 13190
L11560 13175
L11545 13145
L11545 13115
L11560 13085
L11575 13070
L11605 13055
L11665 13040
L11739 13040
L11799 13055
L11829 13070
L11844 13085
L11859 13115
" />
<path d="M11545 13519
L11545 13340
" />
<path d="M11545 13429
L11859 13429
L11814 13400
L11784 13370
L11769 13340
" />
<path d="M11859 13714
L11859 13744
L11844 13774
L11829 13789
L11799 13804
L11739 13819
L11665 13819
L11605 13804
L11575 13789
L11560 13774
L11545 13744
L11545 13714
L11560 13684
L11575 13669
L11605 13654
L11665 13639
L11739 13639
L11799 13654
L11829 13669
L11844 13684
L11859 13714
" />
<path d="M1859 8755
L1859 8785
L1844 8815
L1829 8830
L1799 8845
L1739 8860
L1665 8860
L1605 8845
L1575 8830
L1560 8815
L1545 8785
L1545 8755
L1560 8725
L1575 8710
L1605 8695
L1665 8680
L1739 8680
L1799 8695
L1829 8710
L1844 8725
L1859 8755
" />
<path d="M1859 9055
L1859 9085
L1844 9114
L1829 9129
L1799 9144
L1739 9159
L1665 9159
L1605 9144
L1575 9129
L1560 9114
L1545 9085
L1545 9055
L1560 9025
L1575 9010
L1605 8995
L1665 8980
L1739 8980
L1799 8995
L1829 9010
L1844 9025
L1859 9055
" />
<path d="M1859 9429
L1859 9369
L1844 9339
L1829 9324
L1784 9294
L1724 9279
L1605 9279
L1575 9294
L1560 9309
L1545 9339
L1545 9399
L1560 9429
L1575 9444
L1605 9459
L1680 9459
L1709 9444
L1724 9429
L1739 9399
L1739 9339
L1724 9309
L1709 9294
L1680 9279
" />
<path d="M3545 13277
L3694 13172
" />
<path d="M3545 13097
L3859 13097
L3859 13217
L3844 13247
L3829 13262
L3799 13277
L3754 13277
L3724 13262
L3709 13247
L3694 13217
L3694 13097
" />
<path d="M3560 13397
L3545 13442
L3545 13517
L3560 13547
L3575 13562
L3605 13577
L3635 13577
L3665 13562
L3680 13547
L3694 13517
L3709 13457
L3724 13427
L3739 13412
L3769 13397
L3799 13397
L3829 13412
L3844 13427
L3859 13457
L3859 13532
L3844 13577
" />
<path d="M3859 13667
L3859 13847
" />
<path d="M3545 13757
L3859 13757
" />
<g >
</g>
</g>
<g style="fill:#000000; fill-opacity:0.0; 
stroke:#000000; stroke-width:59.0551; stroke-opacity:1; 
stroke-linecap:round; stroke-linejoin:round;">
</g>
<g style="fill:#C2C200; fill-opacity:0.0; 
stroke:#C2C200; stroke-width:59.0551; stroke-opacity:1; 
stroke-linecap:round; stroke-linejoin:round;">
</g>
<g style="fill:#C2C200; fill-opacity:0.0; 
stroke:#C2C200; stroke-width:39.3701; stroke-opacity:1; 
stroke-linecap:round; stroke-linejoin:round;">
<path d="M59375 37500 A625 625 0.0 0 0 60000 36875 " />
<path d="M60625 29062.5 A625 625 0.0 0 0 60000 29687.5 " />
<path d="M64062.5 29062.5 A625 625 0.0 0 0 64687.5 28437.5 " />
<path d="M64687.5 24062.5 A625 625 0.0 0 0 64062.5 23437.5 " />
<path d="M60937.5 22812.5 A625 625 0.0 0 0 61562.5 23437.5 " />
<path d="M60937.5 16562.5 A625 625 0.0 0 0 60312.5 15937.5 " />
<path d="M59062.5 15312.5 A625 625 0.0 0 0 59687.5 15937.5 " />
<path d="M59687.5 6562.5 A625 625 0.0 0 0 59062.5 7187.5 " />
<path d="M62187.5 6562.5 A625 625 0.0 0 0 62812.5 5937.5 " />
<path d="M62812.5 625 A625 625 0.0 0 0 62187.5 0 " />
<path d="M0 35937
L0 1562
" />
<path d="M1562.5 0 A1562.5 1562.5 0.0 0 0 0 1562.5 " />
<path d="M0 35937.5 A1562.5 1562.5 0.0 0 0 1562.5 37500 " />
<path d="M59375 37500
L1562 37500
" />
<path d="M60000 29687
L60000 36875
" />
<path d="M64062 29062
L60625 29062
" />
<path d="M64687 24062
L64687 28437
" />
<path d="M61562 23437
L64062 23437
" />
<path d="M60937 16562
L60937 22812
" />
<path d="M59687 15937
L60312 15937
" />
<path d="M59062 7187
L59062 15312
" />
<path d="M62187 6562
L59687 6562
" />
<path d="M62812 625
L62812 5937
" />
<path d="M1562 0
L62187 0
" />
<g >
</g>
<g >
</g>
<g >
</g>
<g >
</g>
<g >
</g>
<g >
</g>
<g >
</g>
<g >
</g>
<g >
</g>
<g >
</g>
<g >
</g>
<g >
</g>
<g >
</g>
<g >
</g>
<g >
</g>
<g >
</g>
<g >
</g>
<g >
</g>
<g >
</g>
<g >
</g>
<g >
</g>
<g >
</g>
<g >
</g>
<g >
</g>
<g >
</g>
<g >
</g>
<g >
</g>
<g >
</g>
<g >
</g>
<g >
</g>
<g >
</g>
<g >
</g>
<g >
</g>
<g >
</g>
<g >
</g>
<g >
</g>
<g >
</g>
<g >
</g>
<g >
</g>
<g >
</g>
<g >
</g>
<g >
</g>
<g >
</g>
<g >
</g>
<g >
</g>
<g >
</g>
<g >
</g>
<g >
</g>
<g >
</g>
<g >
</g>
<g >
</g>
<g >
</g>
<g >
</g>
<g >
</g>
<g >
</g>
<g >
</g>
<g >
</g>
<g >
</g>
<g >
</g>
<g >
</g>
<g >
</g>
<g >
</g>
<g >
</g>
<g >
</g>
<g >
</g>
<g >
</g>
<g >
</g>
<g >
</g>
<g >
</g>
<g >
</g>
</g> 
</svg>
