M48
; DRILL file {KiCad (5.1.4-0)} date Thursday, August 11, 2022 at 05:04:44 PM
; FORMAT={-:-/ absolute / inch / decimal}
; #@! TF.CreationDate,2022-08-11T17:04:44-05:00
; #@! TF.GenerationSoftware,Kicad,Pcbnew,(5.1.4-0)
; #@! TF.FileFunction,Plated,1,2,PTH
FMAT,2
INCH
T1C0.0157
T2C0.0315
T3C0.0430
T4C0.0579
T5C0.0866
%
G90
G05
T1
X0.9062Y-1.4375
X4.875Y-1.4375
X5.9375Y-1.2188
X6.0938Y-1.875
X6.1562Y-1.125
X6.1562Y-1.5625
T2
X2.7731Y-2.45
X2.7731Y-2.75
X0.8981Y-1.7
X0.8981Y-2.0
X4.8356Y-0.2312
X4.8356Y-0.5312
X4.2731Y-2.45
X4.2731Y-2.75
X3.5231Y-3.2
X5.0231Y-2.75
X5.0231Y-2.45
X6.0312Y-2.45
X6.0312Y-2.75
X3.5231Y-3.5
X1.6481Y-1.7
X1.6481Y-2.0
X4.2731Y-3.2
X4.2731Y-3.5
X2.3981Y-1.7
X2.3981Y-2.0
X3.1481Y-1.7
X2.2106Y-0.9812
X2.2106Y-1.2812
X1.4688Y-0.9812
X1.4688Y-1.2812
X0.6875Y-0.9812
X0.6875Y-1.2812
X5.9688Y-0.2312
X5.9688Y-0.5312
X3.1481Y-2.0
X4.6481Y-1.7
X4.6481Y-2.0
X1.0856Y-0.2312
X1.0856Y-0.5312
X5.0231Y-3.2
X5.0231Y-3.5
X3.8981Y-1.7
X3.8981Y-2.0
X4.4606Y-0.9812
X4.4606Y-1.2812
X3.7106Y-0.9812
X3.7106Y-1.2812
X2.9688Y-0.9812
X2.9688Y-1.2812
X5.7812Y-3.2
X5.7812Y-3.5
X5.8438Y-1.7
X5.8438Y-2.0
X1.8356Y-0.2312
X1.8356Y-0.5312
X2.5625Y-3.2
X2.5625Y-3.5
X1.25Y-3.2
X1.25Y-3.5
X4.6562Y-1.3125
X4.9562Y-1.3125
X1.2731Y-2.45
X1.2731Y-2.75
X2.5938Y-0.2312
X2.5938Y-0.5312
X2.0231Y-2.45
X2.0231Y-2.75
X3.5231Y-2.75
X6.25Y-1.575
X4.0938Y-0.2312
X4.0938Y-0.5312
X3.3356Y-0.2312
X3.3356Y-0.5312
X6.25Y-1.875
X3.5231Y-2.45
T3
X5.1063Y-0.825
X5.1063Y-1.425
X5.2062Y-0.825
X5.2062Y-1.425
X5.3062Y-0.825
X5.3062Y-1.125
X5.3062Y-1.225
X5.3062Y-1.325
X5.3062Y-1.425
X5.4062Y-0.825
X5.4062Y-1.425
X5.5062Y-0.825
X5.5062Y-1.425
X5.6063Y-0.825
X5.6063Y-1.425
X5.7062Y-0.825
X5.7062Y-1.425
X5.8062Y-0.825
X5.8062Y-1.425
X5.9062Y-0.825
X5.9062Y-1.425
X6.0062Y-0.825
X6.0062Y-1.425
X6.1063Y-0.825
X6.1063Y-1.425
X6.2062Y-0.825
X6.2062Y-1.425
T4
X4.5375Y-2.525
X4.7875Y-2.425
X5.6625Y-1.025
X5.9125Y-0.925
X0.6Y-0.275
X0.85Y-0.175
X5.475Y-0.275
X5.725Y-0.175
X4.1625Y-1.775
X4.4125Y-1.675
X0.225Y-1.025
X0.475Y-0.925
X4.725Y-1.025
X4.975Y-0.925
X3.7875Y-2.525
X4.0375Y-2.425
X3.975Y-1.025
X3.6625Y-1.675
X0.7875Y-3.275
X1.0375Y-3.175
X2.9125Y-1.675
X3.0375Y-2.525
X2.6625Y-1.775
X4.35Y-0.275
X4.6Y-0.175
X3.2875Y-2.425
X3.6Y-0.275
X3.85Y-0.175
X4.225Y-0.925
X3.4125Y-1.775
X3.0375Y-3.275
X3.2875Y-3.175
X3.225Y-1.025
X3.475Y-0.925
X2.1Y-3.275
X2.35Y-3.175
X2.2875Y-2.525
X2.5375Y-2.425
X2.475Y-1.025
X5.6312Y-1.675
X2.85Y-0.275
X3.1Y-0.175
X5.3812Y-1.775
X2.725Y-0.925
X2.1Y-0.275
X2.35Y-0.175
X4.5375Y-3.275
X4.7875Y-3.175
X1.9125Y-1.775
X2.1625Y-1.675
X1.725Y-1.025
X1.975Y-0.925
X5.2875Y-3.275
X5.5375Y-3.175
X5.5687Y-2.525
X5.8187Y-2.425
X1.1625Y-1.775
X1.4125Y-1.675
X1.5375Y-2.525
X1.7875Y-2.425
X0.7875Y-2.525
X1.0375Y-2.425
X3.7875Y-3.275
X4.0375Y-3.175
X0.4125Y-1.775
X0.6625Y-1.675
X1.35Y-0.275
X0.975Y-1.025
X1.225Y-0.925
X1.6Y-0.175
T5
X1.3125Y-3.0
X1.5Y-0.75
X3.75Y-0.75
X4.3125Y-3.0
T0
M30
