G04 #@! TF.GenerationSoftware,KiCad,Pcbnew,(5.1.4-0)*
G04 #@! TF.CreationDate,2022-08-11T17:04:41-05:00*
G04 #@! TF.ProjectId,keyboard,6b657962-6f61-4726-942e-6b696361645f,rev?*
G04 #@! TF.SameCoordinates,Original*
G04 #@! TF.FileFunction,Profile,NP*
%FSLAX46Y46*%
G04 Gerber Fmt 4.6, Leading zero omitted, Abs format (unit mm)*
G04 Created by KiCad (PCBNEW (5.1.4-0)) date 2022-08-11 17:04:41*
%MOMM*%
%LPD*%
G04 APERTURE LIST*
%ADD10C,0.100000*%
G04 APERTURE END LIST*
D10*
X160337500Y0D02*
G75*
G02X161925000Y-1587500I0J-1587500D01*
G01*
X18256250Y-95250000D02*
G75*
G02X16668750Y-93662500I0J1587500D01*
G01*
X15081250Y-54768750D02*
G75*
G02X16668750Y-56356250I0J-1587500D01*
G01*
X8731250Y-54768750D02*
G75*
G02X7143750Y-53181250I0J1587500D01*
G01*
X5556250Y-35718750D02*
G75*
G02X7143750Y-37306250I0J-1587500D01*
G01*
X3968750Y-35718750D02*
G75*
G02X2381250Y-34131250I0J1587500D01*
G01*
X2381250Y-23018750D02*
G75*
G02X3968750Y-21431250I1587500J0D01*
G01*
X11906250Y-19843750D02*
G75*
G02X10318750Y-21431250I-1587500J0D01*
G01*
X11906250Y-1587500D02*
G75*
G02X13493750Y0I1587500J0D01*
G01*
X161925000Y-91281250D02*
G75*
G02X157956250Y-95250000I-3968750J0D01*
G01*
X157956250Y-95250000D02*
X18256250Y-95250000D01*
X161925000Y-1587500D02*
X161925000Y-91281250D01*
X13493750Y0D02*
X160337500Y0D01*
X16668750Y-76200000D02*
X16668750Y-93662500D01*
X16668750Y-56356250D02*
X16668750Y-76200000D01*
X8731250Y-54768750D02*
X15081250Y-54768750D01*
X7143750Y-37306250D02*
X7143750Y-53181250D01*
X3968750Y-35718750D02*
X5556250Y-35718750D01*
X2381250Y-23018750D02*
X2381250Y-34131250D01*
X10318750Y-21431250D02*
X3968750Y-21431250D01*
X11906250Y-1587500D02*
X11906250Y-19843750D01*
M02*
