G04 #@! TF.GenerationSoftware,KiCad,Pcbnew,(5.1.4-0)*
G04 #@! TF.CreationDate,2022-08-11T17:04:41-05:00*
G04 #@! TF.ProjectId,keyboard,6b657962-6f61-4726-942e-6b696361645f,rev?*
G04 #@! TF.SameCoordinates,Original*
G04 #@! TF.FileFunction,Legend,Top*
G04 #@! TF.FilePolarity,Positive*
%FSLAX46Y46*%
G04 Gerber Fmt 4.6, Leading zero omitted, Abs format (unit mm)*
G04 Created by KiCad (PCBNEW (5.1.4-0)) date 2022-08-11 17:04:41*
%MOMM*%
%LPD*%
G04 APERTURE LIST*
%ADD10C,0.381000*%
%ADD11C,0.100000*%
%ADD12C,0.150000*%
G04 APERTURE END LIST*
D10*
X161448750Y-19685000D02*
X161448750Y-37465000D01*
X161448750Y-37465000D02*
X128428750Y-37465000D01*
X128428750Y-37465000D02*
X128428750Y-19685000D01*
X128428750Y-19685000D02*
X161448750Y-19685000D01*
D11*
X158465050Y-36195000D02*
G75*
G03X158465050Y-36195000I-826300J0D01*
G01*
X155925050Y-36195000D02*
G75*
G03X155925050Y-36195000I-826300J0D01*
G01*
X153385050Y-36195000D02*
G75*
G03X153385050Y-36195000I-826300J0D01*
G01*
X150845050Y-36195000D02*
G75*
G03X150845050Y-36195000I-826300J0D01*
G01*
X148305050Y-36195000D02*
G75*
G03X148305050Y-36195000I-826300J0D01*
G01*
X145765050Y-36195000D02*
G75*
G03X145765050Y-36195000I-826300J0D01*
G01*
X143225050Y-36195000D02*
G75*
G03X143225050Y-36195000I-826300J0D01*
G01*
X140685050Y-36195000D02*
G75*
G03X140685050Y-36195000I-826300J0D01*
G01*
X138145050Y-36195000D02*
G75*
G03X138145050Y-36195000I-826300J0D01*
G01*
X135605050Y-36195000D02*
G75*
G03X135605050Y-36195000I-826300J0D01*
G01*
X133065050Y-36195000D02*
G75*
G03X133065050Y-36195000I-826300J0D01*
G01*
X130525050Y-20955000D02*
G75*
G03X130525050Y-20955000I-826300J0D01*
G01*
X133065050Y-20955000D02*
G75*
G03X133065050Y-20955000I-826300J0D01*
G01*
X135605050Y-20955000D02*
G75*
G03X135605050Y-20955000I-826300J0D01*
G01*
X138145050Y-20955000D02*
G75*
G03X138145050Y-20955000I-826300J0D01*
G01*
X140685050Y-20955000D02*
G75*
G03X140685050Y-20955000I-826300J0D01*
G01*
X143225050Y-20955000D02*
G75*
G03X143225050Y-20955000I-826300J0D01*
G01*
X145765050Y-20955000D02*
G75*
G03X145765050Y-20955000I-826300J0D01*
G01*
X148305050Y-20955000D02*
G75*
G03X148305050Y-20955000I-826300J0D01*
G01*
X150845050Y-20955000D02*
G75*
G03X150845050Y-20955000I-826300J0D01*
G01*
X153385050Y-20955000D02*
G75*
G03X153385050Y-20955000I-826300J0D01*
G01*
X155925050Y-20955000D02*
G75*
G03X155925050Y-20955000I-826300J0D01*
G01*
X130525050Y-36195000D02*
G75*
G03X130525050Y-36195000I-826300J0D01*
G01*
X158465050Y-20955000D02*
G75*
G03X158465050Y-20955000I-826300J0D01*
G01*
X135605050Y-33655000D02*
G75*
G03X135605050Y-33655000I-826300J0D01*
G01*
X135605050Y-31115000D02*
G75*
G03X135605050Y-31115000I-826300J0D01*
G01*
X135605050Y-28575000D02*
G75*
G03X135605050Y-28575000I-826300J0D01*
G01*
D12*
X154730654Y-34912190D02*
X154730654Y-34835999D01*
X154768750Y-34759809D01*
X154806845Y-34721713D01*
X154883035Y-34683618D01*
X155035416Y-34645523D01*
X155225892Y-34645523D01*
X155378273Y-34683618D01*
X155454464Y-34721713D01*
X155492559Y-34759809D01*
X155530654Y-34835999D01*
X155530654Y-34912190D01*
X155492559Y-34988380D01*
X155454464Y-35026475D01*
X155378273Y-35064570D01*
X155225892Y-35102666D01*
X155035416Y-35102666D01*
X154883035Y-35064570D01*
X154806845Y-35026475D01*
X154768750Y-34988380D01*
X154730654Y-34912190D01*
X154730654Y-34150285D02*
X154730654Y-34074094D01*
X154768750Y-33997904D01*
X154806845Y-33959809D01*
X154883035Y-33921713D01*
X155035416Y-33883618D01*
X155225892Y-33883618D01*
X155378273Y-33921713D01*
X155454464Y-33959809D01*
X155492559Y-33997904D01*
X155530654Y-34074094D01*
X155530654Y-34150285D01*
X155492559Y-34226475D01*
X155454464Y-34264570D01*
X155378273Y-34302666D01*
X155225892Y-34340761D01*
X155035416Y-34340761D01*
X154883035Y-34302666D01*
X154806845Y-34264570D01*
X154768750Y-34226475D01*
X154730654Y-34150285D01*
X155073511Y-33426475D02*
X155035416Y-33502666D01*
X154997321Y-33540761D01*
X154921130Y-33578856D01*
X154883035Y-33578856D01*
X154806845Y-33540761D01*
X154768750Y-33502666D01*
X154730654Y-33426475D01*
X154730654Y-33274094D01*
X154768750Y-33197904D01*
X154806845Y-33159809D01*
X154883035Y-33121713D01*
X154921130Y-33121713D01*
X154997321Y-33159809D01*
X155035416Y-33197904D01*
X155073511Y-33274094D01*
X155073511Y-33426475D01*
X155111607Y-33502666D01*
X155149702Y-33540761D01*
X155225892Y-33578856D01*
X155378273Y-33578856D01*
X155454464Y-33540761D01*
X155492559Y-33502666D01*
X155530654Y-33426475D01*
X155530654Y-33274094D01*
X155492559Y-33197904D01*
X155454464Y-33159809D01*
X155378273Y-33121713D01*
X155225892Y-33121713D01*
X155149702Y-33159809D01*
X155111607Y-33197904D01*
X155073511Y-33274094D01*
X144430654Y-34912190D02*
X144430654Y-34835999D01*
X144468750Y-34759809D01*
X144506845Y-34721713D01*
X144583035Y-34683618D01*
X144735416Y-34645523D01*
X144925892Y-34645523D01*
X145078273Y-34683618D01*
X145154464Y-34721713D01*
X145192559Y-34759809D01*
X145230654Y-34835999D01*
X145230654Y-34912190D01*
X145192559Y-34988380D01*
X145154464Y-35026475D01*
X145078273Y-35064570D01*
X144925892Y-35102666D01*
X144735416Y-35102666D01*
X144583035Y-35064570D01*
X144506845Y-35026475D01*
X144468750Y-34988380D01*
X144430654Y-34912190D01*
X144506845Y-34340761D02*
X144468750Y-34302666D01*
X144430654Y-34226475D01*
X144430654Y-34035999D01*
X144468750Y-33959809D01*
X144506845Y-33921713D01*
X144583035Y-33883618D01*
X144659226Y-33883618D01*
X144773511Y-33921713D01*
X145230654Y-34378856D01*
X145230654Y-33883618D01*
X144430654Y-33388380D02*
X144430654Y-33312190D01*
X144468750Y-33235999D01*
X144506845Y-33197904D01*
X144583035Y-33159809D01*
X144735416Y-33121713D01*
X144925892Y-33121713D01*
X145078273Y-33159809D01*
X145154464Y-33197904D01*
X145192559Y-33235999D01*
X145230654Y-33312190D01*
X145230654Y-33388380D01*
X145192559Y-33464570D01*
X145154464Y-33502666D01*
X145078273Y-33540761D01*
X144925892Y-33578856D01*
X144735416Y-33578856D01*
X144583035Y-33540761D01*
X144506845Y-33502666D01*
X144468750Y-33464570D01*
X144430654Y-33388380D01*
X147040654Y-34912190D02*
X147040654Y-34835999D01*
X147078750Y-34759809D01*
X147116845Y-34721713D01*
X147193035Y-34683618D01*
X147345416Y-34645523D01*
X147535892Y-34645523D01*
X147688273Y-34683618D01*
X147764464Y-34721713D01*
X147802559Y-34759809D01*
X147840654Y-34835999D01*
X147840654Y-34912190D01*
X147802559Y-34988380D01*
X147764464Y-35026475D01*
X147688273Y-35064570D01*
X147535892Y-35102666D01*
X147345416Y-35102666D01*
X147193035Y-35064570D01*
X147116845Y-35026475D01*
X147078750Y-34988380D01*
X147040654Y-34912190D01*
X147840654Y-33883618D02*
X147840654Y-34340761D01*
X147840654Y-34112190D02*
X147040654Y-34112190D01*
X147154940Y-34188380D01*
X147231130Y-34264570D01*
X147269226Y-34340761D01*
X147040654Y-33616951D02*
X147040654Y-33083618D01*
X147840654Y-33426475D01*
X149618750Y-34645523D02*
X149580654Y-34721714D01*
X149580654Y-34836000D01*
X149618750Y-34950285D01*
X149694940Y-35026476D01*
X149771130Y-35064571D01*
X149923511Y-35102666D01*
X150037797Y-35102666D01*
X150190178Y-35064571D01*
X150266369Y-35026476D01*
X150342559Y-34950285D01*
X150380654Y-34836000D01*
X150380654Y-34759809D01*
X150342559Y-34645523D01*
X150304464Y-34607428D01*
X150037797Y-34607428D01*
X150037797Y-34759809D01*
X150380654Y-34264571D02*
X149580654Y-34264571D01*
X150380654Y-33807428D01*
X149580654Y-33807428D01*
X150380654Y-33426476D02*
X149580654Y-33426476D01*
X149580654Y-33236000D01*
X149618750Y-33121714D01*
X149694940Y-33045523D01*
X149771130Y-33007428D01*
X149923511Y-32969333D01*
X150037797Y-32969333D01*
X150190178Y-33007428D01*
X150266369Y-33045523D01*
X150342559Y-33121714D01*
X150380654Y-33236000D01*
X150380654Y-33426476D01*
X152158750Y-34645523D02*
X152120654Y-34721714D01*
X152120654Y-34836000D01*
X152158750Y-34950285D01*
X152234940Y-35026476D01*
X152311130Y-35064571D01*
X152463511Y-35102666D01*
X152577797Y-35102666D01*
X152730178Y-35064571D01*
X152806369Y-35026476D01*
X152882559Y-34950285D01*
X152920654Y-34836000D01*
X152920654Y-34759809D01*
X152882559Y-34645523D01*
X152844464Y-34607428D01*
X152577797Y-34607428D01*
X152577797Y-34759809D01*
X152920654Y-34264571D02*
X152120654Y-34264571D01*
X152920654Y-33807428D01*
X152120654Y-33807428D01*
X152920654Y-33426476D02*
X152120654Y-33426476D01*
X152120654Y-33236000D01*
X152158750Y-33121714D01*
X152234940Y-33045523D01*
X152311130Y-33007428D01*
X152463511Y-32969333D01*
X152577797Y-32969333D01*
X152730178Y-33007428D01*
X152806369Y-33045523D01*
X152882559Y-33121714D01*
X152920654Y-33236000D01*
X152920654Y-33426476D01*
X141930654Y-34912190D02*
X141930654Y-34835999D01*
X141968750Y-34759809D01*
X142006845Y-34721713D01*
X142083035Y-34683618D01*
X142235416Y-34645523D01*
X142425892Y-34645523D01*
X142578273Y-34683618D01*
X142654464Y-34721713D01*
X142692559Y-34759809D01*
X142730654Y-34835999D01*
X142730654Y-34912190D01*
X142692559Y-34988380D01*
X142654464Y-35026475D01*
X142578273Y-35064570D01*
X142425892Y-35102666D01*
X142235416Y-35102666D01*
X142083035Y-35064570D01*
X142006845Y-35026475D01*
X141968750Y-34988380D01*
X141930654Y-34912190D01*
X142006845Y-34340761D02*
X141968750Y-34302666D01*
X141930654Y-34226475D01*
X141930654Y-34035999D01*
X141968750Y-33959809D01*
X142006845Y-33921713D01*
X142083035Y-33883618D01*
X142159226Y-33883618D01*
X142273511Y-33921713D01*
X142730654Y-34378856D01*
X142730654Y-33883618D01*
X142006845Y-33578856D02*
X141968750Y-33540761D01*
X141930654Y-33464570D01*
X141930654Y-33274094D01*
X141968750Y-33197904D01*
X142006845Y-33159809D01*
X142083035Y-33121713D01*
X142159226Y-33121713D01*
X142273511Y-33159809D01*
X142730654Y-33616951D01*
X142730654Y-33121713D01*
X139430654Y-34912190D02*
X139430654Y-34835999D01*
X139468750Y-34759809D01*
X139506845Y-34721713D01*
X139583035Y-34683618D01*
X139735416Y-34645523D01*
X139925892Y-34645523D01*
X140078273Y-34683618D01*
X140154464Y-34721713D01*
X140192559Y-34759809D01*
X140230654Y-34835999D01*
X140230654Y-34912190D01*
X140192559Y-34988380D01*
X140154464Y-35026475D01*
X140078273Y-35064570D01*
X139925892Y-35102666D01*
X139735416Y-35102666D01*
X139583035Y-35064570D01*
X139506845Y-35026475D01*
X139468750Y-34988380D01*
X139430654Y-34912190D01*
X139506845Y-34340761D02*
X139468750Y-34302666D01*
X139430654Y-34226475D01*
X139430654Y-34035999D01*
X139468750Y-33959809D01*
X139506845Y-33921713D01*
X139583035Y-33883618D01*
X139659226Y-33883618D01*
X139773511Y-33921713D01*
X140230654Y-34378856D01*
X140230654Y-33883618D01*
X139697321Y-33197904D02*
X140230654Y-33197904D01*
X139392559Y-33388380D02*
X139963988Y-33578856D01*
X139963988Y-33083618D01*
X137680654Y-34645523D02*
X137680654Y-35102666D01*
X137680654Y-34874094D02*
X136880654Y-34874094D01*
X136994940Y-34950285D01*
X137071130Y-35026475D01*
X137109226Y-35102666D01*
X136880654Y-34150285D02*
X136880654Y-34074094D01*
X136918750Y-33997904D01*
X136956845Y-33959809D01*
X137033035Y-33921713D01*
X137185416Y-33883618D01*
X137375892Y-33883618D01*
X137528273Y-33921713D01*
X137604464Y-33959809D01*
X137642559Y-33997904D01*
X137680654Y-34074094D01*
X137680654Y-34150285D01*
X137642559Y-34226475D01*
X137604464Y-34264570D01*
X137528273Y-34302666D01*
X137375892Y-34340761D01*
X137185416Y-34340761D01*
X137033035Y-34302666D01*
X136956845Y-34264570D01*
X136918750Y-34226475D01*
X136880654Y-34150285D01*
X136880654Y-33388380D02*
X136880654Y-33312190D01*
X136918750Y-33235999D01*
X136956845Y-33197904D01*
X137033035Y-33159809D01*
X137185416Y-33121713D01*
X137375892Y-33121713D01*
X137528273Y-33159809D01*
X137604464Y-33197904D01*
X137642559Y-33235999D01*
X137680654Y-33312190D01*
X137680654Y-33388380D01*
X137642559Y-33464570D01*
X137604464Y-33502666D01*
X137528273Y-33540761D01*
X137375892Y-33578856D01*
X137185416Y-33578856D01*
X137033035Y-33540761D01*
X136956845Y-33502666D01*
X136918750Y-33464570D01*
X136880654Y-33388380D01*
X132600654Y-34645523D02*
X132600654Y-35102666D01*
X132600654Y-34874094D02*
X131800654Y-34874094D01*
X131914940Y-34950285D01*
X131991130Y-35026475D01*
X132029226Y-35102666D01*
X131800654Y-34150285D02*
X131800654Y-34074094D01*
X131838750Y-33997904D01*
X131876845Y-33959809D01*
X131953035Y-33921713D01*
X132105416Y-33883618D01*
X132295892Y-33883618D01*
X132448273Y-33921713D01*
X132524464Y-33959809D01*
X132562559Y-33997904D01*
X132600654Y-34074094D01*
X132600654Y-34150285D01*
X132562559Y-34226475D01*
X132524464Y-34264570D01*
X132448273Y-34302666D01*
X132295892Y-34340761D01*
X132105416Y-34340761D01*
X131953035Y-34302666D01*
X131876845Y-34264570D01*
X131838750Y-34226475D01*
X131800654Y-34150285D01*
X132067321Y-33197904D02*
X132600654Y-33197904D01*
X131762559Y-33388380D02*
X132333988Y-33578856D01*
X132333988Y-33083618D01*
X135140654Y-23571142D02*
X135140654Y-24028285D01*
X135140654Y-23799713D02*
X134340654Y-23799713D01*
X134454940Y-23875904D01*
X134531130Y-23952094D01*
X134569226Y-24028285D01*
X135140654Y-22809237D02*
X135140654Y-23266380D01*
X135140654Y-23037809D02*
X134340654Y-23037809D01*
X134454940Y-23113999D01*
X134531130Y-23190189D01*
X134569226Y-23266380D01*
X135140654Y-22047332D02*
X135140654Y-22504475D01*
X135140654Y-22275904D02*
X134340654Y-22275904D01*
X134454940Y-22352094D01*
X134531130Y-22428285D01*
X134569226Y-22504475D01*
X137680654Y-23571142D02*
X137680654Y-24028285D01*
X137680654Y-23799713D02*
X136880654Y-23799713D01*
X136994940Y-23875904D01*
X137071130Y-23952094D01*
X137109226Y-24028285D01*
X137680654Y-22809237D02*
X137680654Y-23266380D01*
X137680654Y-23037809D02*
X136880654Y-23037809D01*
X136994940Y-23113999D01*
X137071130Y-23190189D01*
X137109226Y-23266380D01*
X136880654Y-22542570D02*
X136880654Y-22047332D01*
X137185416Y-22313999D01*
X137185416Y-22199713D01*
X137223511Y-22123523D01*
X137261607Y-22085428D01*
X137337797Y-22047332D01*
X137528273Y-22047332D01*
X137604464Y-22085428D01*
X137642559Y-22123523D01*
X137680654Y-22199713D01*
X137680654Y-22428285D01*
X137642559Y-22504475D01*
X137604464Y-22542570D01*
X147040654Y-23837809D02*
X147040654Y-23761618D01*
X147078750Y-23685428D01*
X147116845Y-23647332D01*
X147193035Y-23609237D01*
X147345416Y-23571142D01*
X147535892Y-23571142D01*
X147688273Y-23609237D01*
X147764464Y-23647332D01*
X147802559Y-23685428D01*
X147840654Y-23761618D01*
X147840654Y-23837809D01*
X147802559Y-23913999D01*
X147764464Y-23952094D01*
X147688273Y-23990189D01*
X147535892Y-24028285D01*
X147345416Y-24028285D01*
X147193035Y-23990189D01*
X147116845Y-23952094D01*
X147078750Y-23913999D01*
X147040654Y-23837809D01*
X147040654Y-23304475D02*
X147040654Y-22809237D01*
X147345416Y-23075904D01*
X147345416Y-22961618D01*
X147383511Y-22885428D01*
X147421607Y-22847332D01*
X147497797Y-22809237D01*
X147688273Y-22809237D01*
X147764464Y-22847332D01*
X147802559Y-22885428D01*
X147840654Y-22961618D01*
X147840654Y-23190189D01*
X147802559Y-23266380D01*
X147764464Y-23304475D01*
X147840654Y-22047332D02*
X147840654Y-22504475D01*
X147840654Y-22275904D02*
X147040654Y-22275904D01*
X147154940Y-22352094D01*
X147231130Y-22428285D01*
X147269226Y-22504475D01*
X149580654Y-24104475D02*
X150380654Y-23837809D01*
X149580654Y-23571142D01*
X150304464Y-22847332D02*
X150342559Y-22885428D01*
X150380654Y-22999713D01*
X150380654Y-23075904D01*
X150342559Y-23190189D01*
X150266369Y-23266380D01*
X150190178Y-23304475D01*
X150037797Y-23342570D01*
X149923511Y-23342570D01*
X149771130Y-23304475D01*
X149694940Y-23266380D01*
X149618750Y-23190189D01*
X149580654Y-23075904D01*
X149580654Y-22999713D01*
X149618750Y-22885428D01*
X149656845Y-22847332D01*
X150304464Y-22047332D02*
X150342559Y-22085428D01*
X150380654Y-22199713D01*
X150380654Y-22275904D01*
X150342559Y-22390189D01*
X150266369Y-22466380D01*
X150190178Y-22504475D01*
X150037797Y-22542570D01*
X149923511Y-22542570D01*
X149771130Y-22504475D01*
X149694940Y-22466380D01*
X149618750Y-22390189D01*
X149580654Y-22275904D01*
X149580654Y-22199713D01*
X149618750Y-22085428D01*
X149656845Y-22047332D01*
X154698750Y-23729856D02*
X154660654Y-23806047D01*
X154660654Y-23920333D01*
X154698750Y-24034618D01*
X154774940Y-24110809D01*
X154851130Y-24148904D01*
X155003511Y-24186999D01*
X155117797Y-24186999D01*
X155270178Y-24148904D01*
X155346369Y-24110809D01*
X155422559Y-24034618D01*
X155460654Y-23920333D01*
X155460654Y-23844142D01*
X155422559Y-23729856D01*
X155384464Y-23691761D01*
X155117797Y-23691761D01*
X155117797Y-23844142D01*
X155460654Y-23348904D02*
X154660654Y-23348904D01*
X155460654Y-22891761D01*
X154660654Y-22891761D01*
X155460654Y-22510809D02*
X154660654Y-22510809D01*
X154660654Y-22320333D01*
X154698750Y-22206047D01*
X154774940Y-22129856D01*
X154851130Y-22091761D01*
X155003511Y-22053666D01*
X155117797Y-22053666D01*
X155270178Y-22091761D01*
X155346369Y-22129856D01*
X155422559Y-22206047D01*
X155460654Y-22320333D01*
X155460654Y-22510809D01*
X158000654Y-23653665D02*
X157619702Y-23920332D01*
X158000654Y-24110808D02*
X157200654Y-24110808D01*
X157200654Y-23806046D01*
X157238750Y-23729856D01*
X157276845Y-23691761D01*
X157353035Y-23653665D01*
X157467321Y-23653665D01*
X157543511Y-23691761D01*
X157581607Y-23729856D01*
X157619702Y-23806046D01*
X157619702Y-24110808D01*
X157772083Y-23348904D02*
X157772083Y-22967951D01*
X158000654Y-23425094D02*
X157200654Y-23158427D01*
X158000654Y-22891761D01*
X157200654Y-22701285D02*
X158000654Y-22510808D01*
X157429226Y-22358427D01*
X158000654Y-22206046D01*
X157200654Y-22015570D01*
X144500654Y-23837809D02*
X144500654Y-23761618D01*
X144538750Y-23685428D01*
X144576845Y-23647332D01*
X144653035Y-23609237D01*
X144805416Y-23571142D01*
X144995892Y-23571142D01*
X145148273Y-23609237D01*
X145224464Y-23647332D01*
X145262559Y-23685428D01*
X145300654Y-23761618D01*
X145300654Y-23837809D01*
X145262559Y-23913999D01*
X145224464Y-23952094D01*
X145148273Y-23990189D01*
X144995892Y-24028285D01*
X144805416Y-24028285D01*
X144653035Y-23990189D01*
X144576845Y-23952094D01*
X144538750Y-23913999D01*
X144500654Y-23837809D01*
X144576845Y-23266380D02*
X144538750Y-23228285D01*
X144500654Y-23152094D01*
X144500654Y-22961618D01*
X144538750Y-22885428D01*
X144576845Y-22847332D01*
X144653035Y-22809237D01*
X144729226Y-22809237D01*
X144843511Y-22847332D01*
X145300654Y-23304475D01*
X145300654Y-22809237D01*
X145300654Y-22428285D02*
X145300654Y-22275904D01*
X145262559Y-22199713D01*
X145224464Y-22161618D01*
X145110178Y-22085428D01*
X144957797Y-22047332D01*
X144653035Y-22047332D01*
X144576845Y-22085428D01*
X144538750Y-22123523D01*
X144500654Y-22199713D01*
X144500654Y-22352094D01*
X144538750Y-22428285D01*
X144576845Y-22466380D01*
X144653035Y-22504475D01*
X144843511Y-22504475D01*
X144919702Y-22466380D01*
X144957797Y-22428285D01*
X144995892Y-22352094D01*
X144995892Y-22199713D01*
X144957797Y-22123523D01*
X144919702Y-22085428D01*
X144843511Y-22047332D01*
X141960654Y-23837809D02*
X141960654Y-23761618D01*
X141998750Y-23685428D01*
X142036845Y-23647332D01*
X142113035Y-23609237D01*
X142265416Y-23571142D01*
X142455892Y-23571142D01*
X142608273Y-23609237D01*
X142684464Y-23647332D01*
X142722559Y-23685428D01*
X142760654Y-23761618D01*
X142760654Y-23837809D01*
X142722559Y-23913999D01*
X142684464Y-23952094D01*
X142608273Y-23990189D01*
X142455892Y-24028285D01*
X142265416Y-24028285D01*
X142113035Y-23990189D01*
X142036845Y-23952094D01*
X141998750Y-23913999D01*
X141960654Y-23837809D01*
X141960654Y-23075904D02*
X141960654Y-22999713D01*
X141998750Y-22923523D01*
X142036845Y-22885428D01*
X142113035Y-22847332D01*
X142265416Y-22809237D01*
X142455892Y-22809237D01*
X142608273Y-22847332D01*
X142684464Y-22885428D01*
X142722559Y-22923523D01*
X142760654Y-22999713D01*
X142760654Y-23075904D01*
X142722559Y-23152094D01*
X142684464Y-23190189D01*
X142608273Y-23228285D01*
X142455892Y-23266380D01*
X142265416Y-23266380D01*
X142113035Y-23228285D01*
X142036845Y-23190189D01*
X141998750Y-23152094D01*
X141960654Y-23075904D01*
X142036845Y-22504475D02*
X141998750Y-22466380D01*
X141960654Y-22390189D01*
X141960654Y-22199713D01*
X141998750Y-22123523D01*
X142036845Y-22085428D01*
X142113035Y-22047332D01*
X142189226Y-22047332D01*
X142303511Y-22085428D01*
X142760654Y-22542570D01*
X142760654Y-22047332D01*
X140220654Y-23571142D02*
X140220654Y-24028285D01*
X140220654Y-23799713D02*
X139420654Y-23799713D01*
X139534940Y-23875904D01*
X139611130Y-23952094D01*
X139649226Y-24028285D01*
X140220654Y-22809237D02*
X140220654Y-23266380D01*
X140220654Y-23037809D02*
X139420654Y-23037809D01*
X139534940Y-23113999D01*
X139611130Y-23190189D01*
X139649226Y-23266380D01*
X139420654Y-22085428D02*
X139420654Y-22466380D01*
X139801607Y-22504475D01*
X139763511Y-22466380D01*
X139725416Y-22390189D01*
X139725416Y-22199713D01*
X139763511Y-22123523D01*
X139801607Y-22085428D01*
X139877797Y-22047332D01*
X140068273Y-22047332D01*
X140144464Y-22085428D01*
X140182559Y-22123523D01*
X140220654Y-22199713D01*
X140220654Y-22390189D01*
X140182559Y-22466380D01*
X140144464Y-22504475D01*
X131800654Y-23837809D02*
X131800654Y-23761618D01*
X131838750Y-23685428D01*
X131876845Y-23647332D01*
X131953035Y-23609237D01*
X132105416Y-23571142D01*
X132295892Y-23571142D01*
X132448273Y-23609237D01*
X132524464Y-23647332D01*
X132562559Y-23685428D01*
X132600654Y-23761618D01*
X132600654Y-23837809D01*
X132562559Y-23913999D01*
X132524464Y-23952094D01*
X132448273Y-23990189D01*
X132295892Y-24028285D01*
X132105416Y-24028285D01*
X131953035Y-23990189D01*
X131876845Y-23952094D01*
X131838750Y-23913999D01*
X131800654Y-23837809D01*
X132600654Y-22809237D02*
X132600654Y-23266380D01*
X132600654Y-23037809D02*
X131800654Y-23037809D01*
X131914940Y-23113999D01*
X131991130Y-23190189D01*
X132029226Y-23266380D01*
X131800654Y-22313999D02*
X131800654Y-22237809D01*
X131838750Y-22161618D01*
X131876845Y-22123523D01*
X131953035Y-22085428D01*
X132105416Y-22047332D01*
X132295892Y-22047332D01*
X132448273Y-22085428D01*
X132524464Y-22123523D01*
X132562559Y-22161618D01*
X132600654Y-22237809D01*
X132600654Y-22313999D01*
X132562559Y-22390189D01*
X132524464Y-22428285D01*
X132448273Y-22466380D01*
X132295892Y-22504475D01*
X132105416Y-22504475D01*
X131953035Y-22466380D01*
X131876845Y-22428285D01*
X131838750Y-22390189D01*
X131800654Y-22313999D01*
X157200654Y-34912190D02*
X157200654Y-34835999D01*
X157238750Y-34759809D01*
X157276845Y-34721713D01*
X157353035Y-34683618D01*
X157505416Y-34645523D01*
X157695892Y-34645523D01*
X157848273Y-34683618D01*
X157924464Y-34721713D01*
X157962559Y-34759809D01*
X158000654Y-34835999D01*
X158000654Y-34912190D01*
X157962559Y-34988380D01*
X157924464Y-35026475D01*
X157848273Y-35064570D01*
X157695892Y-35102666D01*
X157505416Y-35102666D01*
X157353035Y-35064570D01*
X157276845Y-35026475D01*
X157238750Y-34988380D01*
X157200654Y-34912190D01*
X157200654Y-34150285D02*
X157200654Y-34074094D01*
X157238750Y-33997904D01*
X157276845Y-33959809D01*
X157353035Y-33921713D01*
X157505416Y-33883618D01*
X157695892Y-33883618D01*
X157848273Y-33921713D01*
X157924464Y-33959809D01*
X157962559Y-33997904D01*
X158000654Y-34074094D01*
X158000654Y-34150285D01*
X157962559Y-34226475D01*
X157924464Y-34264570D01*
X157848273Y-34302666D01*
X157695892Y-34340761D01*
X157505416Y-34340761D01*
X157353035Y-34302666D01*
X157276845Y-34264570D01*
X157238750Y-34226475D01*
X157200654Y-34150285D01*
X157200654Y-33197904D02*
X157200654Y-33350285D01*
X157238750Y-33426475D01*
X157276845Y-33464570D01*
X157391130Y-33540761D01*
X157543511Y-33578856D01*
X157848273Y-33578856D01*
X157924464Y-33540761D01*
X157962559Y-33502666D01*
X158000654Y-33426475D01*
X158000654Y-33274094D01*
X157962559Y-33197904D01*
X157924464Y-33159809D01*
X157848273Y-33121713D01*
X157657797Y-33121713D01*
X157581607Y-33159809D01*
X157543511Y-33197904D01*
X157505416Y-33274094D01*
X157505416Y-33426475D01*
X157543511Y-33502666D01*
X157581607Y-33540761D01*
X157657797Y-33578856D01*
X152920654Y-23425095D02*
X152539702Y-23691761D01*
X152920654Y-23882238D02*
X152120654Y-23882238D01*
X152120654Y-23577476D01*
X152158750Y-23501285D01*
X152196845Y-23463190D01*
X152273035Y-23425095D01*
X152387321Y-23425095D01*
X152463511Y-23463190D01*
X152501607Y-23501285D01*
X152539702Y-23577476D01*
X152539702Y-23882238D01*
X152882559Y-23120333D02*
X152920654Y-23006047D01*
X152920654Y-22815571D01*
X152882559Y-22739380D01*
X152844464Y-22701285D01*
X152768273Y-22663190D01*
X152692083Y-22663190D01*
X152615892Y-22701285D01*
X152577797Y-22739380D01*
X152539702Y-22815571D01*
X152501607Y-22967952D01*
X152463511Y-23044142D01*
X152425416Y-23082238D01*
X152349226Y-23120333D01*
X152273035Y-23120333D01*
X152196845Y-23082238D01*
X152158750Y-23044142D01*
X152120654Y-22967952D01*
X152120654Y-22777476D01*
X152158750Y-22663190D01*
X152120654Y-22434619D02*
X152120654Y-21977476D01*
X152920654Y-22206047D02*
X152120654Y-22206047D01*
M02*
