G04 #@! TF.GenerationSoftware,KiCad,Pcbnew,(5.1.4-0)*
G04 #@! TF.CreationDate,2022-08-11T17:04:41-05:00*
G04 #@! TF.ProjectId,keyboard,6b657962-6f61-4726-942e-6b696361645f,rev?*
G04 #@! TF.SameCoordinates,Original*
G04 #@! TF.FileFunction,Legend,Bot*
G04 #@! TF.FilePolarity,Positive*
%FSLAX46Y46*%
G04 Gerber Fmt 4.6, Leading zero omitted, Abs format (unit mm)*
G04 Created by KiCad (PCBNEW (5.1.4-0)) date 2022-08-11 17:04:41*
%MOMM*%
%LPD*%
G04 APERTURE LIST*
%ADD10C,0.381000*%
%ADD11C,0.120000*%
%ADD12C,0.100000*%
%ADD13C,0.300000*%
%ADD14C,0.150000*%
G04 APERTURE END LIST*
D10*
X161448750Y-37465000D02*
X158908750Y-37465000D01*
X161448750Y-19685000D02*
X161448750Y-37465000D01*
X158908750Y-19685000D02*
X161448750Y-19685000D01*
X128428750Y-19685000D02*
X158908750Y-19685000D01*
X128428750Y-37465000D02*
X128428750Y-19685000D01*
X158908750Y-37465000D02*
X128428750Y-37465000D01*
D11*
X147963750Y-86610000D02*
X145723750Y-86610000D01*
X147963750Y-86370000D02*
X145723750Y-86370000D01*
X147963750Y-86490000D02*
X145723750Y-86490000D01*
X146843750Y-82320000D02*
X146843750Y-82970000D01*
X146843750Y-87860000D02*
X146843750Y-87210000D01*
X147963750Y-82970000D02*
X147963750Y-87210000D01*
X145723750Y-82970000D02*
X147963750Y-82970000D01*
X145723750Y-87210000D02*
X145723750Y-82970000D01*
X147963750Y-87210000D02*
X145723750Y-87210000D01*
X128707500Y-86610000D02*
X126467500Y-86610000D01*
X128707500Y-86370000D02*
X126467500Y-86370000D01*
X128707500Y-86490000D02*
X126467500Y-86490000D01*
X127587500Y-82320000D02*
X127587500Y-82970000D01*
X127587500Y-87860000D02*
X127587500Y-87210000D01*
X128707500Y-82970000D02*
X128707500Y-87210000D01*
X126467500Y-82970000D02*
X128707500Y-82970000D01*
X126467500Y-87210000D02*
X126467500Y-82970000D01*
X128707500Y-87210000D02*
X126467500Y-87210000D01*
X109657500Y-86610000D02*
X107417500Y-86610000D01*
X109657500Y-86370000D02*
X107417500Y-86370000D01*
X109657500Y-86490000D02*
X107417500Y-86490000D01*
X108537500Y-82320000D02*
X108537500Y-82970000D01*
X108537500Y-87860000D02*
X108537500Y-87210000D01*
X109657500Y-82970000D02*
X109657500Y-87210000D01*
X107417500Y-82970000D02*
X109657500Y-82970000D01*
X107417500Y-87210000D02*
X107417500Y-82970000D01*
X109657500Y-87210000D02*
X107417500Y-87210000D01*
X90607500Y-86610000D02*
X88367500Y-86610000D01*
X90607500Y-86370000D02*
X88367500Y-86370000D01*
X90607500Y-86490000D02*
X88367500Y-86490000D01*
X89487500Y-82320000D02*
X89487500Y-82970000D01*
X89487500Y-87860000D02*
X89487500Y-87210000D01*
X90607500Y-82970000D02*
X90607500Y-87210000D01*
X88367500Y-82970000D02*
X90607500Y-82970000D01*
X88367500Y-87210000D02*
X88367500Y-82970000D01*
X90607500Y-87210000D02*
X88367500Y-87210000D01*
X66207500Y-86610000D02*
X63967500Y-86610000D01*
X66207500Y-86370000D02*
X63967500Y-86370000D01*
X66207500Y-86490000D02*
X63967500Y-86490000D01*
X65087500Y-82320000D02*
X65087500Y-82970000D01*
X65087500Y-87860000D02*
X65087500Y-87210000D01*
X66207500Y-82970000D02*
X66207500Y-87210000D01*
X63967500Y-82970000D02*
X66207500Y-82970000D01*
X63967500Y-87210000D02*
X63967500Y-82970000D01*
X66207500Y-87210000D02*
X63967500Y-87210000D01*
X32870000Y-86610000D02*
X30630000Y-86610000D01*
X32870000Y-86370000D02*
X30630000Y-86370000D01*
X32870000Y-86490000D02*
X30630000Y-86490000D01*
X31750000Y-82320000D02*
X31750000Y-82970000D01*
X31750000Y-87860000D02*
X31750000Y-87210000D01*
X32870000Y-82970000D02*
X32870000Y-87210000D01*
X30630000Y-82970000D02*
X32870000Y-82970000D01*
X30630000Y-87210000D02*
X30630000Y-82970000D01*
X32870000Y-87210000D02*
X30630000Y-87210000D01*
X154313750Y-67560000D02*
X152073750Y-67560000D01*
X154313750Y-67320000D02*
X152073750Y-67320000D01*
X154313750Y-67440000D02*
X152073750Y-67440000D01*
X153193750Y-63270000D02*
X153193750Y-63920000D01*
X153193750Y-68810000D02*
X153193750Y-68160000D01*
X154313750Y-63920000D02*
X154313750Y-68160000D01*
X152073750Y-63920000D02*
X154313750Y-63920000D01*
X152073750Y-68160000D02*
X152073750Y-63920000D01*
X154313750Y-68160000D02*
X152073750Y-68160000D01*
X128707500Y-67560000D02*
X126467500Y-67560000D01*
X128707500Y-67320000D02*
X126467500Y-67320000D01*
X128707500Y-67440000D02*
X126467500Y-67440000D01*
X127587500Y-63270000D02*
X127587500Y-63920000D01*
X127587500Y-68810000D02*
X127587500Y-68160000D01*
X128707500Y-63920000D02*
X128707500Y-68160000D01*
X126467500Y-63920000D02*
X128707500Y-63920000D01*
X126467500Y-68160000D02*
X126467500Y-63920000D01*
X128707500Y-68160000D02*
X126467500Y-68160000D01*
X109657500Y-67560000D02*
X107417500Y-67560000D01*
X109657500Y-67320000D02*
X107417500Y-67320000D01*
X109657500Y-67440000D02*
X107417500Y-67440000D01*
X108537500Y-63270000D02*
X108537500Y-63920000D01*
X108537500Y-68810000D02*
X108537500Y-68160000D01*
X109657500Y-63920000D02*
X109657500Y-68160000D01*
X107417500Y-63920000D02*
X109657500Y-63920000D01*
X107417500Y-68160000D02*
X107417500Y-63920000D01*
X109657500Y-68160000D02*
X107417500Y-68160000D01*
X90607500Y-67560000D02*
X88367500Y-67560000D01*
X90607500Y-67320000D02*
X88367500Y-67320000D01*
X90607500Y-67440000D02*
X88367500Y-67440000D01*
X89487500Y-63270000D02*
X89487500Y-63920000D01*
X89487500Y-68810000D02*
X89487500Y-68160000D01*
X90607500Y-63920000D02*
X90607500Y-68160000D01*
X88367500Y-63920000D02*
X90607500Y-63920000D01*
X88367500Y-68160000D02*
X88367500Y-63920000D01*
X90607500Y-68160000D02*
X88367500Y-68160000D01*
X71557500Y-67560000D02*
X69317500Y-67560000D01*
X71557500Y-67320000D02*
X69317500Y-67320000D01*
X71557500Y-67440000D02*
X69317500Y-67440000D01*
X70437500Y-63270000D02*
X70437500Y-63920000D01*
X70437500Y-68810000D02*
X70437500Y-68160000D01*
X71557500Y-63920000D02*
X71557500Y-68160000D01*
X69317500Y-63920000D02*
X71557500Y-63920000D01*
X69317500Y-68160000D02*
X69317500Y-63920000D01*
X71557500Y-68160000D02*
X69317500Y-68160000D01*
X52507500Y-67560000D02*
X50267500Y-67560000D01*
X52507500Y-67320000D02*
X50267500Y-67320000D01*
X52507500Y-67440000D02*
X50267500Y-67440000D01*
X51387500Y-63270000D02*
X51387500Y-63920000D01*
X51387500Y-68810000D02*
X51387500Y-68160000D01*
X52507500Y-63920000D02*
X52507500Y-68160000D01*
X50267500Y-63920000D02*
X52507500Y-63920000D01*
X50267500Y-68160000D02*
X50267500Y-63920000D01*
X52507500Y-68160000D02*
X50267500Y-68160000D01*
X33457500Y-67560000D02*
X31217500Y-67560000D01*
X33457500Y-67320000D02*
X31217500Y-67320000D01*
X33457500Y-67440000D02*
X31217500Y-67440000D01*
X32337500Y-63270000D02*
X32337500Y-63920000D01*
X32337500Y-68810000D02*
X32337500Y-68160000D01*
X33457500Y-63920000D02*
X33457500Y-68160000D01*
X31217500Y-63920000D02*
X33457500Y-63920000D01*
X31217500Y-68160000D02*
X31217500Y-63920000D01*
X33457500Y-68160000D02*
X31217500Y-68160000D01*
X149551250Y-48510000D02*
X147311250Y-48510000D01*
X149551250Y-48270000D02*
X147311250Y-48270000D01*
X149551250Y-48390000D02*
X147311250Y-48390000D01*
X148431250Y-44220000D02*
X148431250Y-44870000D01*
X148431250Y-49760000D02*
X148431250Y-49110000D01*
X149551250Y-44870000D02*
X149551250Y-49110000D01*
X147311250Y-44870000D02*
X149551250Y-44870000D01*
X147311250Y-49110000D02*
X147311250Y-44870000D01*
X149551250Y-49110000D02*
X147311250Y-49110000D01*
X119182500Y-48510000D02*
X116942500Y-48510000D01*
X119182500Y-48270000D02*
X116942500Y-48270000D01*
X119182500Y-48390000D02*
X116942500Y-48390000D01*
X118062500Y-44220000D02*
X118062500Y-44870000D01*
X118062500Y-49760000D02*
X118062500Y-49110000D01*
X119182500Y-44870000D02*
X119182500Y-49110000D01*
X116942500Y-44870000D02*
X119182500Y-44870000D01*
X116942500Y-49110000D02*
X116942500Y-44870000D01*
X119182500Y-49110000D02*
X116942500Y-49110000D01*
X100132500Y-48510000D02*
X97892500Y-48510000D01*
X100132500Y-48270000D02*
X97892500Y-48270000D01*
X100132500Y-48390000D02*
X97892500Y-48390000D01*
X99012500Y-44220000D02*
X99012500Y-44870000D01*
X99012500Y-49760000D02*
X99012500Y-49110000D01*
X100132500Y-44870000D02*
X100132500Y-49110000D01*
X97892500Y-44870000D02*
X100132500Y-44870000D01*
X97892500Y-49110000D02*
X97892500Y-44870000D01*
X100132500Y-49110000D02*
X97892500Y-49110000D01*
X81082500Y-48510000D02*
X78842500Y-48510000D01*
X81082500Y-48270000D02*
X78842500Y-48270000D01*
X81082500Y-48390000D02*
X78842500Y-48390000D01*
X79962500Y-44220000D02*
X79962500Y-44870000D01*
X79962500Y-49760000D02*
X79962500Y-49110000D01*
X81082500Y-44870000D02*
X81082500Y-49110000D01*
X78842500Y-44870000D02*
X81082500Y-44870000D01*
X78842500Y-49110000D02*
X78842500Y-44870000D01*
X81082500Y-49110000D02*
X78842500Y-49110000D01*
X62032500Y-48510000D02*
X59792500Y-48510000D01*
X62032500Y-48270000D02*
X59792500Y-48270000D01*
X62032500Y-48390000D02*
X59792500Y-48390000D01*
X60912500Y-44220000D02*
X60912500Y-44870000D01*
X60912500Y-49760000D02*
X60912500Y-49110000D01*
X62032500Y-44870000D02*
X62032500Y-49110000D01*
X59792500Y-44870000D02*
X62032500Y-44870000D01*
X59792500Y-49110000D02*
X59792500Y-44870000D01*
X62032500Y-49110000D02*
X59792500Y-49110000D01*
X42982500Y-48510000D02*
X40742500Y-48510000D01*
X42982500Y-48270000D02*
X40742500Y-48270000D01*
X42982500Y-48390000D02*
X40742500Y-48390000D01*
X41862500Y-44220000D02*
X41862500Y-44870000D01*
X41862500Y-49760000D02*
X41862500Y-49110000D01*
X42982500Y-44870000D02*
X42982500Y-49110000D01*
X40742500Y-44870000D02*
X42982500Y-44870000D01*
X40742500Y-49110000D02*
X40742500Y-44870000D01*
X42982500Y-49110000D02*
X40742500Y-49110000D01*
X23932500Y-48510000D02*
X21692500Y-48510000D01*
X23932500Y-48270000D02*
X21692500Y-48270000D01*
X23932500Y-48390000D02*
X21692500Y-48390000D01*
X22812500Y-44220000D02*
X22812500Y-44870000D01*
X22812500Y-49760000D02*
X22812500Y-49110000D01*
X23932500Y-44870000D02*
X23932500Y-49110000D01*
X21692500Y-44870000D02*
X23932500Y-44870000D01*
X21692500Y-49110000D02*
X21692500Y-44870000D01*
X23932500Y-49110000D02*
X21692500Y-49110000D01*
X159870000Y-45335000D02*
X157630000Y-45335000D01*
X159870000Y-45095000D02*
X157630000Y-45095000D01*
X159870000Y-45215000D02*
X157630000Y-45215000D01*
X158750000Y-41045000D02*
X158750000Y-41695000D01*
X158750000Y-46585000D02*
X158750000Y-45935000D01*
X159870000Y-41695000D02*
X159870000Y-45935000D01*
X157630000Y-41695000D02*
X159870000Y-41695000D01*
X157630000Y-45935000D02*
X157630000Y-41695000D01*
X159870000Y-45935000D02*
X157630000Y-45935000D01*
X120558750Y-34457500D02*
X120558750Y-32217500D01*
X120798750Y-34457500D02*
X120798750Y-32217500D01*
X120678750Y-34457500D02*
X120678750Y-32217500D01*
X124848750Y-33337500D02*
X124198750Y-33337500D01*
X119308750Y-33337500D02*
X119958750Y-33337500D01*
X124198750Y-34457500D02*
X119958750Y-34457500D01*
X124198750Y-32217500D02*
X124198750Y-34457500D01*
X119958750Y-32217500D02*
X124198750Y-32217500D01*
X119958750Y-34457500D02*
X119958750Y-32217500D01*
X114420000Y-30253750D02*
X112180000Y-30253750D01*
X114420000Y-30013750D02*
X112180000Y-30013750D01*
X114420000Y-30133750D02*
X112180000Y-30133750D01*
X113300000Y-25963750D02*
X113300000Y-26613750D01*
X113300000Y-31503750D02*
X113300000Y-30853750D01*
X114420000Y-26613750D02*
X114420000Y-30853750D01*
X112180000Y-26613750D02*
X114420000Y-26613750D01*
X112180000Y-30853750D02*
X112180000Y-26613750D01*
X114420000Y-30853750D02*
X112180000Y-30853750D01*
X95370000Y-30253750D02*
X93130000Y-30253750D01*
X95370000Y-30013750D02*
X93130000Y-30013750D01*
X95370000Y-30133750D02*
X93130000Y-30133750D01*
X94250000Y-25963750D02*
X94250000Y-26613750D01*
X94250000Y-31503750D02*
X94250000Y-30853750D01*
X95370000Y-26613750D02*
X95370000Y-30853750D01*
X93130000Y-26613750D02*
X95370000Y-26613750D01*
X93130000Y-30853750D02*
X93130000Y-26613750D01*
X95370000Y-30853750D02*
X93130000Y-30853750D01*
X76526250Y-30253750D02*
X74286250Y-30253750D01*
X76526250Y-30013750D02*
X74286250Y-30013750D01*
X76526250Y-30133750D02*
X74286250Y-30133750D01*
X75406250Y-25963750D02*
X75406250Y-26613750D01*
X75406250Y-31503750D02*
X75406250Y-30853750D01*
X76526250Y-26613750D02*
X76526250Y-30853750D01*
X74286250Y-26613750D02*
X76526250Y-26613750D01*
X74286250Y-30853750D02*
X74286250Y-26613750D01*
X76526250Y-30853750D02*
X74286250Y-30853750D01*
X57270000Y-30253750D02*
X55030000Y-30253750D01*
X57270000Y-30013750D02*
X55030000Y-30013750D01*
X57270000Y-30133750D02*
X55030000Y-30133750D01*
X56150000Y-25963750D02*
X56150000Y-26613750D01*
X56150000Y-31503750D02*
X56150000Y-30853750D01*
X57270000Y-26613750D02*
X57270000Y-30853750D01*
X55030000Y-26613750D02*
X57270000Y-26613750D01*
X55030000Y-30853750D02*
X55030000Y-26613750D01*
X57270000Y-30853750D02*
X55030000Y-30853750D01*
X38426250Y-30253750D02*
X36186250Y-30253750D01*
X38426250Y-30013750D02*
X36186250Y-30013750D01*
X38426250Y-30133750D02*
X36186250Y-30133750D01*
X37306250Y-25963750D02*
X37306250Y-26613750D01*
X37306250Y-31503750D02*
X37306250Y-30853750D01*
X38426250Y-26613750D02*
X38426250Y-30853750D01*
X36186250Y-26613750D02*
X38426250Y-26613750D01*
X36186250Y-30853750D02*
X36186250Y-26613750D01*
X38426250Y-30853750D02*
X36186250Y-30853750D01*
X18582500Y-30253750D02*
X16342500Y-30253750D01*
X18582500Y-30013750D02*
X16342500Y-30013750D01*
X18582500Y-30133750D02*
X16342500Y-30133750D01*
X17462500Y-25963750D02*
X17462500Y-26613750D01*
X17462500Y-31503750D02*
X17462500Y-30853750D01*
X18582500Y-26613750D02*
X18582500Y-30853750D01*
X16342500Y-26613750D02*
X18582500Y-26613750D01*
X16342500Y-30853750D02*
X16342500Y-26613750D01*
X18582500Y-30853750D02*
X16342500Y-30853750D01*
X152726250Y-11203750D02*
X150486250Y-11203750D01*
X152726250Y-10963750D02*
X150486250Y-10963750D01*
X152726250Y-11083750D02*
X150486250Y-11083750D01*
X151606250Y-6913750D02*
X151606250Y-7563750D01*
X151606250Y-12453750D02*
X151606250Y-11803750D01*
X152726250Y-7563750D02*
X152726250Y-11803750D01*
X150486250Y-7563750D02*
X152726250Y-7563750D01*
X150486250Y-11803750D02*
X150486250Y-7563750D01*
X152726250Y-11803750D02*
X150486250Y-11803750D01*
X123945000Y-11203750D02*
X121705000Y-11203750D01*
X123945000Y-10963750D02*
X121705000Y-10963750D01*
X123945000Y-11083750D02*
X121705000Y-11083750D01*
X122825000Y-6913750D02*
X122825000Y-7563750D01*
X122825000Y-12453750D02*
X122825000Y-11803750D01*
X123945000Y-7563750D02*
X123945000Y-11803750D01*
X121705000Y-7563750D02*
X123945000Y-7563750D01*
X121705000Y-11803750D02*
X121705000Y-7563750D01*
X123945000Y-11803750D02*
X121705000Y-11803750D01*
X105101250Y-11203750D02*
X102861250Y-11203750D01*
X105101250Y-10963750D02*
X102861250Y-10963750D01*
X105101250Y-11083750D02*
X102861250Y-11083750D01*
X103981250Y-6913750D02*
X103981250Y-7563750D01*
X103981250Y-12453750D02*
X103981250Y-11803750D01*
X105101250Y-7563750D02*
X105101250Y-11803750D01*
X102861250Y-7563750D02*
X105101250Y-7563750D01*
X102861250Y-11803750D02*
X102861250Y-7563750D01*
X105101250Y-11803750D02*
X102861250Y-11803750D01*
X85845000Y-11203750D02*
X83605000Y-11203750D01*
X85845000Y-10963750D02*
X83605000Y-10963750D01*
X85845000Y-11083750D02*
X83605000Y-11083750D01*
X84725000Y-6913750D02*
X84725000Y-7563750D01*
X84725000Y-12453750D02*
X84725000Y-11803750D01*
X85845000Y-7563750D02*
X85845000Y-11803750D01*
X83605000Y-7563750D02*
X85845000Y-7563750D01*
X83605000Y-11803750D02*
X83605000Y-7563750D01*
X85845000Y-11803750D02*
X83605000Y-11803750D01*
X67001250Y-11203750D02*
X64761250Y-11203750D01*
X67001250Y-10963750D02*
X64761250Y-10963750D01*
X67001250Y-11083750D02*
X64761250Y-11083750D01*
X65881250Y-6913750D02*
X65881250Y-7563750D01*
X65881250Y-12453750D02*
X65881250Y-11803750D01*
X67001250Y-7563750D02*
X67001250Y-11803750D01*
X64761250Y-7563750D02*
X67001250Y-7563750D01*
X64761250Y-11803750D02*
X64761250Y-7563750D01*
X67001250Y-11803750D02*
X64761250Y-11803750D01*
X47745000Y-11203750D02*
X45505000Y-11203750D01*
X47745000Y-10963750D02*
X45505000Y-10963750D01*
X47745000Y-11083750D02*
X45505000Y-11083750D01*
X46625000Y-6913750D02*
X46625000Y-7563750D01*
X46625000Y-12453750D02*
X46625000Y-11803750D01*
X47745000Y-7563750D02*
X47745000Y-11803750D01*
X45505000Y-7563750D02*
X47745000Y-7563750D01*
X45505000Y-11803750D02*
X45505000Y-7563750D01*
X47745000Y-11803750D02*
X45505000Y-11803750D01*
X28695000Y-11203750D02*
X26455000Y-11203750D01*
X28695000Y-10963750D02*
X26455000Y-10963750D01*
X28695000Y-11083750D02*
X26455000Y-11083750D01*
X27575000Y-6913750D02*
X27575000Y-7563750D01*
X27575000Y-12453750D02*
X27575000Y-11803750D01*
X28695000Y-7563750D02*
X28695000Y-11803750D01*
X26455000Y-7563750D02*
X28695000Y-7563750D01*
X26455000Y-11803750D02*
X26455000Y-7563750D01*
X28695000Y-11803750D02*
X26455000Y-11803750D01*
D12*
X158465050Y-36195000D02*
G75*
G03X158465050Y-36195000I-826300J0D01*
G01*
X155925050Y-36195000D02*
G75*
G03X155925050Y-36195000I-826300J0D01*
G01*
X153385050Y-36195000D02*
G75*
G03X153385050Y-36195000I-826300J0D01*
G01*
X150845050Y-36195000D02*
G75*
G03X150845050Y-36195000I-826300J0D01*
G01*
X148305050Y-36195000D02*
G75*
G03X148305050Y-36195000I-826300J0D01*
G01*
X145765050Y-36195000D02*
G75*
G03X145765050Y-36195000I-826300J0D01*
G01*
X143225050Y-36195000D02*
G75*
G03X143225050Y-36195000I-826300J0D01*
G01*
X140685050Y-36195000D02*
G75*
G03X140685050Y-36195000I-826300J0D01*
G01*
X138145050Y-36195000D02*
G75*
G03X138145050Y-36195000I-826300J0D01*
G01*
X135605050Y-36195000D02*
G75*
G03X135605050Y-36195000I-826300J0D01*
G01*
X133065050Y-36195000D02*
G75*
G03X133065050Y-36195000I-826300J0D01*
G01*
X130525050Y-20955000D02*
G75*
G03X130525050Y-20955000I-826300J0D01*
G01*
X133065050Y-20955000D02*
G75*
G03X133065050Y-20955000I-826300J0D01*
G01*
X135605050Y-20955000D02*
G75*
G03X135605050Y-20955000I-826300J0D01*
G01*
X138145050Y-20955000D02*
G75*
G03X138145050Y-20955000I-826300J0D01*
G01*
X140685050Y-20955000D02*
G75*
G03X140685050Y-20955000I-826300J0D01*
G01*
X143225050Y-20955000D02*
G75*
G03X143225050Y-20955000I-826300J0D01*
G01*
X145765050Y-20955000D02*
G75*
G03X145765050Y-20955000I-826300J0D01*
G01*
X148305050Y-20955000D02*
G75*
G03X148305050Y-20955000I-826300J0D01*
G01*
X150845050Y-20955000D02*
G75*
G03X150845050Y-20955000I-826300J0D01*
G01*
X153385050Y-20955000D02*
G75*
G03X153385050Y-20955000I-826300J0D01*
G01*
X155925050Y-20955000D02*
G75*
G03X155925050Y-20955000I-826300J0D01*
G01*
X130525050Y-36195000D02*
G75*
G03X130525050Y-36195000I-826300J0D01*
G01*
X158465050Y-20955000D02*
G75*
G03X158465050Y-20955000I-826300J0D01*
G01*
X135605050Y-33655000D02*
G75*
G03X135605050Y-33655000I-826300J0D01*
G01*
X135605050Y-31115000D02*
G75*
G03X135605050Y-31115000I-826300J0D01*
G01*
X135605050Y-28575000D02*
G75*
G03X135605050Y-28575000I-826300J0D01*
G01*
D13*
X129885321Y-23285285D02*
X130885321Y-23285285D01*
X130028178Y-23285285D02*
X129956750Y-23356714D01*
X129885321Y-23499571D01*
X129885321Y-23713857D01*
X129956750Y-23856714D01*
X130099607Y-23928142D01*
X130885321Y-23928142D01*
X130885321Y-24642428D02*
X129885321Y-24642428D01*
X129385321Y-24642428D02*
X129456750Y-24571000D01*
X129528178Y-24642428D01*
X129456750Y-24713857D01*
X129385321Y-24642428D01*
X129528178Y-24642428D01*
X130813892Y-25999571D02*
X130885321Y-25856714D01*
X130885321Y-25571000D01*
X130813892Y-25428142D01*
X130742464Y-25356714D01*
X130599607Y-25285285D01*
X130171035Y-25285285D01*
X130028178Y-25356714D01*
X129956750Y-25428142D01*
X129885321Y-25571000D01*
X129885321Y-25856714D01*
X129956750Y-25999571D01*
X130813892Y-27213857D02*
X130885321Y-27071000D01*
X130885321Y-26785285D01*
X130813892Y-26642428D01*
X130671035Y-26571000D01*
X130099607Y-26571000D01*
X129956750Y-26642428D01*
X129885321Y-26785285D01*
X129885321Y-27071000D01*
X129956750Y-27213857D01*
X130099607Y-27285285D01*
X130242464Y-27285285D01*
X130385321Y-26571000D01*
X130742464Y-27928142D02*
X130813892Y-27999571D01*
X130885321Y-27928142D01*
X130813892Y-27856714D01*
X130742464Y-27928142D01*
X130885321Y-27928142D01*
X130313892Y-27928142D02*
X129456750Y-27856714D01*
X129385321Y-27928142D01*
X129456750Y-27999571D01*
X130313892Y-27928142D01*
X129385321Y-27928142D01*
X129885321Y-28642428D02*
X130885321Y-28642428D01*
X130028178Y-28642428D02*
X129956750Y-28713857D01*
X129885321Y-28856714D01*
X129885321Y-29071000D01*
X129956750Y-29213857D01*
X130099607Y-29285285D01*
X130885321Y-29285285D01*
X130885321Y-30642428D02*
X130099607Y-30642428D01*
X129956750Y-30571000D01*
X129885321Y-30428142D01*
X129885321Y-30142428D01*
X129956750Y-29999571D01*
X130813892Y-30642428D02*
X130885321Y-30499571D01*
X130885321Y-30142428D01*
X130813892Y-29999571D01*
X130671035Y-29928142D01*
X130528178Y-29928142D01*
X130385321Y-29999571D01*
X130313892Y-30142428D01*
X130313892Y-30499571D01*
X130242464Y-30642428D01*
X129885321Y-31356714D02*
X130885321Y-31356714D01*
X130028178Y-31356714D02*
X129956750Y-31428142D01*
X129885321Y-31571000D01*
X129885321Y-31785285D01*
X129956750Y-31928142D01*
X130099607Y-31999571D01*
X130885321Y-31999571D01*
X130885321Y-32928142D02*
X130813892Y-32785285D01*
X130742464Y-32713857D01*
X130599607Y-32642428D01*
X130171035Y-32642428D01*
X130028178Y-32713857D01*
X129956750Y-32785285D01*
X129885321Y-32928142D01*
X129885321Y-33142428D01*
X129956750Y-33285285D01*
X130028178Y-33356714D01*
X130171035Y-33428142D01*
X130599607Y-33428142D01*
X130742464Y-33356714D01*
X130813892Y-33285285D01*
X130885321Y-33142428D01*
X130885321Y-32928142D01*
D14*
X131800654Y-22237809D02*
X131800654Y-22313999D01*
X131838750Y-22390189D01*
X131876845Y-22428285D01*
X131953035Y-22466380D01*
X132105416Y-22504475D01*
X132295892Y-22504475D01*
X132448273Y-22466380D01*
X132524464Y-22428285D01*
X132562559Y-22390189D01*
X132600654Y-22313999D01*
X132600654Y-22237809D01*
X132562559Y-22161618D01*
X132524464Y-22123523D01*
X132448273Y-22085428D01*
X132295892Y-22047332D01*
X132105416Y-22047332D01*
X131953035Y-22085428D01*
X131876845Y-22123523D01*
X131838750Y-22161618D01*
X131800654Y-22237809D01*
X132600654Y-23266380D02*
X132600654Y-22809237D01*
X132600654Y-23037809D02*
X131800654Y-23037809D01*
X131914940Y-22961618D01*
X131991130Y-22885428D01*
X132029226Y-22809237D01*
X131800654Y-23761618D02*
X131800654Y-23837809D01*
X131838750Y-23913999D01*
X131876845Y-23952094D01*
X131953035Y-23990189D01*
X132105416Y-24028285D01*
X132295892Y-24028285D01*
X132448273Y-23990189D01*
X132524464Y-23952094D01*
X132562559Y-23913999D01*
X132600654Y-23837809D01*
X132600654Y-23761618D01*
X132562559Y-23685428D01*
X132524464Y-23647332D01*
X132448273Y-23609237D01*
X132295892Y-23571142D01*
X132105416Y-23571142D01*
X131953035Y-23609237D01*
X131876845Y-23647332D01*
X131838750Y-23685428D01*
X131800654Y-23761618D01*
X140220654Y-22504475D02*
X140220654Y-22047332D01*
X140220654Y-22275904D02*
X139420654Y-22275904D01*
X139534940Y-22199713D01*
X139611130Y-22123523D01*
X139649226Y-22047332D01*
X140220654Y-23266380D02*
X140220654Y-22809237D01*
X140220654Y-23037809D02*
X139420654Y-23037809D01*
X139534940Y-22961618D01*
X139611130Y-22885428D01*
X139649226Y-22809237D01*
X139420654Y-23990189D02*
X139420654Y-23609237D01*
X139801607Y-23571142D01*
X139763511Y-23609237D01*
X139725416Y-23685428D01*
X139725416Y-23875904D01*
X139763511Y-23952094D01*
X139801607Y-23990189D01*
X139877797Y-24028285D01*
X140068273Y-24028285D01*
X140144464Y-23990189D01*
X140182559Y-23952094D01*
X140220654Y-23875904D01*
X140220654Y-23685428D01*
X140182559Y-23609237D01*
X140144464Y-23571142D01*
X141960654Y-22237809D02*
X141960654Y-22313999D01*
X141998750Y-22390189D01*
X142036845Y-22428285D01*
X142113035Y-22466380D01*
X142265416Y-22504475D01*
X142455892Y-22504475D01*
X142608273Y-22466380D01*
X142684464Y-22428285D01*
X142722559Y-22390189D01*
X142760654Y-22313999D01*
X142760654Y-22237809D01*
X142722559Y-22161618D01*
X142684464Y-22123523D01*
X142608273Y-22085428D01*
X142455892Y-22047332D01*
X142265416Y-22047332D01*
X142113035Y-22085428D01*
X142036845Y-22123523D01*
X141998750Y-22161618D01*
X141960654Y-22237809D01*
X141960654Y-22999713D02*
X141960654Y-23075904D01*
X141998750Y-23152094D01*
X142036845Y-23190189D01*
X142113035Y-23228285D01*
X142265416Y-23266380D01*
X142455892Y-23266380D01*
X142608273Y-23228285D01*
X142684464Y-23190189D01*
X142722559Y-23152094D01*
X142760654Y-23075904D01*
X142760654Y-22999713D01*
X142722559Y-22923523D01*
X142684464Y-22885428D01*
X142608273Y-22847332D01*
X142455892Y-22809237D01*
X142265416Y-22809237D01*
X142113035Y-22847332D01*
X142036845Y-22885428D01*
X141998750Y-22923523D01*
X141960654Y-22999713D01*
X142036845Y-23571142D02*
X141998750Y-23609237D01*
X141960654Y-23685428D01*
X141960654Y-23875904D01*
X141998750Y-23952094D01*
X142036845Y-23990189D01*
X142113035Y-24028285D01*
X142189226Y-24028285D01*
X142303511Y-23990189D01*
X142760654Y-23533047D01*
X142760654Y-24028285D01*
X144500654Y-22237809D02*
X144500654Y-22313999D01*
X144538750Y-22390189D01*
X144576845Y-22428285D01*
X144653035Y-22466380D01*
X144805416Y-22504475D01*
X144995892Y-22504475D01*
X145148273Y-22466380D01*
X145224464Y-22428285D01*
X145262559Y-22390189D01*
X145300654Y-22313999D01*
X145300654Y-22237809D01*
X145262559Y-22161618D01*
X145224464Y-22123523D01*
X145148273Y-22085428D01*
X144995892Y-22047332D01*
X144805416Y-22047332D01*
X144653035Y-22085428D01*
X144576845Y-22123523D01*
X144538750Y-22161618D01*
X144500654Y-22237809D01*
X144576845Y-22809237D02*
X144538750Y-22847332D01*
X144500654Y-22923523D01*
X144500654Y-23113999D01*
X144538750Y-23190189D01*
X144576845Y-23228285D01*
X144653035Y-23266380D01*
X144729226Y-23266380D01*
X144843511Y-23228285D01*
X145300654Y-22771142D01*
X145300654Y-23266380D01*
X145300654Y-23647332D02*
X145300654Y-23799713D01*
X145262559Y-23875904D01*
X145224464Y-23913999D01*
X145110178Y-23990189D01*
X144957797Y-24028285D01*
X144653035Y-24028285D01*
X144576845Y-23990189D01*
X144538750Y-23952094D01*
X144500654Y-23875904D01*
X144500654Y-23723523D01*
X144538750Y-23647332D01*
X144576845Y-23609237D01*
X144653035Y-23571142D01*
X144843511Y-23571142D01*
X144919702Y-23609237D01*
X144957797Y-23647332D01*
X144995892Y-23723523D01*
X144995892Y-23875904D01*
X144957797Y-23952094D01*
X144919702Y-23990189D01*
X144843511Y-24028285D01*
X158000654Y-22548904D02*
X157619702Y-22282237D01*
X158000654Y-22091761D02*
X157200654Y-22091761D01*
X157200654Y-22396523D01*
X157238750Y-22472713D01*
X157276845Y-22510808D01*
X157353035Y-22548904D01*
X157467321Y-22548904D01*
X157543511Y-22510808D01*
X157581607Y-22472713D01*
X157619702Y-22396523D01*
X157619702Y-22091761D01*
X157772083Y-22853665D02*
X157772083Y-23234618D01*
X158000654Y-22777475D02*
X157200654Y-23044142D01*
X158000654Y-23310808D01*
X157200654Y-23501285D02*
X158000654Y-23691761D01*
X157429226Y-23844142D01*
X158000654Y-23996523D01*
X157200654Y-24186999D01*
X154698750Y-22510809D02*
X154660654Y-22434618D01*
X154660654Y-22320333D01*
X154698750Y-22206047D01*
X154774940Y-22129856D01*
X154851130Y-22091761D01*
X155003511Y-22053666D01*
X155117797Y-22053666D01*
X155270178Y-22091761D01*
X155346369Y-22129856D01*
X155422559Y-22206047D01*
X155460654Y-22320333D01*
X155460654Y-22396523D01*
X155422559Y-22510809D01*
X155384464Y-22548904D01*
X155117797Y-22548904D01*
X155117797Y-22396523D01*
X155460654Y-22891761D02*
X154660654Y-22891761D01*
X155460654Y-23348904D01*
X154660654Y-23348904D01*
X155460654Y-23729856D02*
X154660654Y-23729856D01*
X154660654Y-23920333D01*
X154698750Y-24034618D01*
X154774940Y-24110809D01*
X154851130Y-24148904D01*
X155003511Y-24186999D01*
X155117797Y-24186999D01*
X155270178Y-24148904D01*
X155346369Y-24110809D01*
X155422559Y-24034618D01*
X155460654Y-23920333D01*
X155460654Y-23729856D01*
X152920654Y-22548904D02*
X152539702Y-22282238D01*
X152920654Y-22091761D02*
X152120654Y-22091761D01*
X152120654Y-22396523D01*
X152158750Y-22472714D01*
X152196845Y-22510809D01*
X152273035Y-22548904D01*
X152387321Y-22548904D01*
X152463511Y-22510809D01*
X152501607Y-22472714D01*
X152539702Y-22396523D01*
X152539702Y-22091761D01*
X152882559Y-22853666D02*
X152920654Y-22967952D01*
X152920654Y-23158428D01*
X152882559Y-23234619D01*
X152844464Y-23272714D01*
X152768273Y-23310809D01*
X152692083Y-23310809D01*
X152615892Y-23272714D01*
X152577797Y-23234619D01*
X152539702Y-23158428D01*
X152501607Y-23006047D01*
X152463511Y-22929857D01*
X152425416Y-22891761D01*
X152349226Y-22853666D01*
X152273035Y-22853666D01*
X152196845Y-22891761D01*
X152158750Y-22929857D01*
X152120654Y-23006047D01*
X152120654Y-23196523D01*
X152158750Y-23310809D01*
X152120654Y-23539380D02*
X152120654Y-23996523D01*
X152920654Y-23767952D02*
X152120654Y-23767952D01*
X149580654Y-21971142D02*
X150380654Y-22237809D01*
X149580654Y-22504475D01*
X150304464Y-23228285D02*
X150342559Y-23190189D01*
X150380654Y-23075904D01*
X150380654Y-22999713D01*
X150342559Y-22885428D01*
X150266369Y-22809237D01*
X150190178Y-22771142D01*
X150037797Y-22733047D01*
X149923511Y-22733047D01*
X149771130Y-22771142D01*
X149694940Y-22809237D01*
X149618750Y-22885428D01*
X149580654Y-22999713D01*
X149580654Y-23075904D01*
X149618750Y-23190189D01*
X149656845Y-23228285D01*
X150304464Y-24028285D02*
X150342559Y-23990189D01*
X150380654Y-23875904D01*
X150380654Y-23799713D01*
X150342559Y-23685428D01*
X150266369Y-23609237D01*
X150190178Y-23571142D01*
X150037797Y-23533047D01*
X149923511Y-23533047D01*
X149771130Y-23571142D01*
X149694940Y-23609237D01*
X149618750Y-23685428D01*
X149580654Y-23799713D01*
X149580654Y-23875904D01*
X149618750Y-23990189D01*
X149656845Y-24028285D01*
X147040654Y-22237809D02*
X147040654Y-22313999D01*
X147078750Y-22390189D01*
X147116845Y-22428285D01*
X147193035Y-22466380D01*
X147345416Y-22504475D01*
X147535892Y-22504475D01*
X147688273Y-22466380D01*
X147764464Y-22428285D01*
X147802559Y-22390189D01*
X147840654Y-22313999D01*
X147840654Y-22237809D01*
X147802559Y-22161618D01*
X147764464Y-22123523D01*
X147688273Y-22085428D01*
X147535892Y-22047332D01*
X147345416Y-22047332D01*
X147193035Y-22085428D01*
X147116845Y-22123523D01*
X147078750Y-22161618D01*
X147040654Y-22237809D01*
X147040654Y-22771142D02*
X147040654Y-23266380D01*
X147345416Y-22999713D01*
X147345416Y-23113999D01*
X147383511Y-23190189D01*
X147421607Y-23228285D01*
X147497797Y-23266380D01*
X147688273Y-23266380D01*
X147764464Y-23228285D01*
X147802559Y-23190189D01*
X147840654Y-23113999D01*
X147840654Y-22885428D01*
X147802559Y-22809237D01*
X147764464Y-22771142D01*
X147840654Y-24028285D02*
X147840654Y-23571142D01*
X147840654Y-23799713D02*
X147040654Y-23799713D01*
X147154940Y-23723523D01*
X147231130Y-23647332D01*
X147269226Y-23571142D01*
X137680654Y-22504475D02*
X137680654Y-22047332D01*
X137680654Y-22275904D02*
X136880654Y-22275904D01*
X136994940Y-22199713D01*
X137071130Y-22123523D01*
X137109226Y-22047332D01*
X137680654Y-23266380D02*
X137680654Y-22809237D01*
X137680654Y-23037809D02*
X136880654Y-23037809D01*
X136994940Y-22961618D01*
X137071130Y-22885428D01*
X137109226Y-22809237D01*
X136880654Y-23533047D02*
X136880654Y-24028285D01*
X137185416Y-23761618D01*
X137185416Y-23875904D01*
X137223511Y-23952094D01*
X137261607Y-23990189D01*
X137337797Y-24028285D01*
X137528273Y-24028285D01*
X137604464Y-23990189D01*
X137642559Y-23952094D01*
X137680654Y-23875904D01*
X137680654Y-23647332D01*
X137642559Y-23571142D01*
X137604464Y-23533047D01*
X135140654Y-22504475D02*
X135140654Y-22047332D01*
X135140654Y-22275904D02*
X134340654Y-22275904D01*
X134454940Y-22199713D01*
X134531130Y-22123523D01*
X134569226Y-22047332D01*
X135140654Y-23266380D02*
X135140654Y-22809237D01*
X135140654Y-23037809D02*
X134340654Y-23037809D01*
X134454940Y-22961618D01*
X134531130Y-22885428D01*
X134569226Y-22809237D01*
X135140654Y-24028285D02*
X135140654Y-23571142D01*
X135140654Y-23799713D02*
X134340654Y-23799713D01*
X134454940Y-23723523D01*
X134531130Y-23647332D01*
X134569226Y-23571142D01*
X132600654Y-33578856D02*
X132600654Y-33121713D01*
X132600654Y-33350285D02*
X131800654Y-33350285D01*
X131914940Y-33274094D01*
X131991130Y-33197904D01*
X132029226Y-33121713D01*
X131800654Y-34074094D02*
X131800654Y-34150285D01*
X131838750Y-34226475D01*
X131876845Y-34264570D01*
X131953035Y-34302666D01*
X132105416Y-34340761D01*
X132295892Y-34340761D01*
X132448273Y-34302666D01*
X132524464Y-34264570D01*
X132562559Y-34226475D01*
X132600654Y-34150285D01*
X132600654Y-34074094D01*
X132562559Y-33997904D01*
X132524464Y-33959809D01*
X132448273Y-33921713D01*
X132295892Y-33883618D01*
X132105416Y-33883618D01*
X131953035Y-33921713D01*
X131876845Y-33959809D01*
X131838750Y-33997904D01*
X131800654Y-34074094D01*
X132067321Y-35026475D02*
X132600654Y-35026475D01*
X131762559Y-34835999D02*
X132333988Y-34645523D01*
X132333988Y-35140761D01*
X137680654Y-33578856D02*
X137680654Y-33121713D01*
X137680654Y-33350285D02*
X136880654Y-33350285D01*
X136994940Y-33274094D01*
X137071130Y-33197904D01*
X137109226Y-33121713D01*
X136880654Y-34074094D02*
X136880654Y-34150285D01*
X136918750Y-34226475D01*
X136956845Y-34264570D01*
X137033035Y-34302666D01*
X137185416Y-34340761D01*
X137375892Y-34340761D01*
X137528273Y-34302666D01*
X137604464Y-34264570D01*
X137642559Y-34226475D01*
X137680654Y-34150285D01*
X137680654Y-34074094D01*
X137642559Y-33997904D01*
X137604464Y-33959809D01*
X137528273Y-33921713D01*
X137375892Y-33883618D01*
X137185416Y-33883618D01*
X137033035Y-33921713D01*
X136956845Y-33959809D01*
X136918750Y-33997904D01*
X136880654Y-34074094D01*
X136880654Y-34835999D02*
X136880654Y-34912190D01*
X136918750Y-34988380D01*
X136956845Y-35026475D01*
X137033035Y-35064570D01*
X137185416Y-35102666D01*
X137375892Y-35102666D01*
X137528273Y-35064570D01*
X137604464Y-35026475D01*
X137642559Y-34988380D01*
X137680654Y-34912190D01*
X137680654Y-34835999D01*
X137642559Y-34759809D01*
X137604464Y-34721713D01*
X137528273Y-34683618D01*
X137375892Y-34645523D01*
X137185416Y-34645523D01*
X137033035Y-34683618D01*
X136956845Y-34721713D01*
X136918750Y-34759809D01*
X136880654Y-34835999D01*
X139420654Y-33312190D02*
X139420654Y-33388380D01*
X139458750Y-33464570D01*
X139496845Y-33502666D01*
X139573035Y-33540761D01*
X139725416Y-33578856D01*
X139915892Y-33578856D01*
X140068273Y-33540761D01*
X140144464Y-33502666D01*
X140182559Y-33464570D01*
X140220654Y-33388380D01*
X140220654Y-33312190D01*
X140182559Y-33235999D01*
X140144464Y-33197904D01*
X140068273Y-33159809D01*
X139915892Y-33121713D01*
X139725416Y-33121713D01*
X139573035Y-33159809D01*
X139496845Y-33197904D01*
X139458750Y-33235999D01*
X139420654Y-33312190D01*
X139496845Y-33883618D02*
X139458750Y-33921713D01*
X139420654Y-33997904D01*
X139420654Y-34188380D01*
X139458750Y-34264570D01*
X139496845Y-34302666D01*
X139573035Y-34340761D01*
X139649226Y-34340761D01*
X139763511Y-34302666D01*
X140220654Y-33845523D01*
X140220654Y-34340761D01*
X139687321Y-35026475D02*
X140220654Y-35026475D01*
X139382559Y-34835999D02*
X139953988Y-34645523D01*
X139953988Y-35140761D01*
X141930654Y-33312190D02*
X141930654Y-33388380D01*
X141968750Y-33464570D01*
X142006845Y-33502666D01*
X142083035Y-33540761D01*
X142235416Y-33578856D01*
X142425892Y-33578856D01*
X142578273Y-33540761D01*
X142654464Y-33502666D01*
X142692559Y-33464570D01*
X142730654Y-33388380D01*
X142730654Y-33312190D01*
X142692559Y-33235999D01*
X142654464Y-33197904D01*
X142578273Y-33159809D01*
X142425892Y-33121713D01*
X142235416Y-33121713D01*
X142083035Y-33159809D01*
X142006845Y-33197904D01*
X141968750Y-33235999D01*
X141930654Y-33312190D01*
X142006845Y-33883618D02*
X141968750Y-33921713D01*
X141930654Y-33997904D01*
X141930654Y-34188380D01*
X141968750Y-34264570D01*
X142006845Y-34302666D01*
X142083035Y-34340761D01*
X142159226Y-34340761D01*
X142273511Y-34302666D01*
X142730654Y-33845523D01*
X142730654Y-34340761D01*
X142006845Y-34645523D02*
X141968750Y-34683618D01*
X141930654Y-34759809D01*
X141930654Y-34950285D01*
X141968750Y-35026475D01*
X142006845Y-35064570D01*
X142083035Y-35102666D01*
X142159226Y-35102666D01*
X142273511Y-35064570D01*
X142730654Y-34607428D01*
X142730654Y-35102666D01*
X152158750Y-33426476D02*
X152120654Y-33350285D01*
X152120654Y-33236000D01*
X152158750Y-33121714D01*
X152234940Y-33045523D01*
X152311130Y-33007428D01*
X152463511Y-32969333D01*
X152577797Y-32969333D01*
X152730178Y-33007428D01*
X152806369Y-33045523D01*
X152882559Y-33121714D01*
X152920654Y-33236000D01*
X152920654Y-33312190D01*
X152882559Y-33426476D01*
X152844464Y-33464571D01*
X152577797Y-33464571D01*
X152577797Y-33312190D01*
X152920654Y-33807428D02*
X152120654Y-33807428D01*
X152920654Y-34264571D01*
X152120654Y-34264571D01*
X152920654Y-34645523D02*
X152120654Y-34645523D01*
X152120654Y-34836000D01*
X152158750Y-34950285D01*
X152234940Y-35026476D01*
X152311130Y-35064571D01*
X152463511Y-35102666D01*
X152577797Y-35102666D01*
X152730178Y-35064571D01*
X152806369Y-35026476D01*
X152882559Y-34950285D01*
X152920654Y-34836000D01*
X152920654Y-34645523D01*
X149618750Y-33426476D02*
X149580654Y-33350285D01*
X149580654Y-33236000D01*
X149618750Y-33121714D01*
X149694940Y-33045523D01*
X149771130Y-33007428D01*
X149923511Y-32969333D01*
X150037797Y-32969333D01*
X150190178Y-33007428D01*
X150266369Y-33045523D01*
X150342559Y-33121714D01*
X150380654Y-33236000D01*
X150380654Y-33312190D01*
X150342559Y-33426476D01*
X150304464Y-33464571D01*
X150037797Y-33464571D01*
X150037797Y-33312190D01*
X150380654Y-33807428D02*
X149580654Y-33807428D01*
X150380654Y-34264571D01*
X149580654Y-34264571D01*
X150380654Y-34645523D02*
X149580654Y-34645523D01*
X149580654Y-34836000D01*
X149618750Y-34950285D01*
X149694940Y-35026476D01*
X149771130Y-35064571D01*
X149923511Y-35102666D01*
X150037797Y-35102666D01*
X150190178Y-35064571D01*
X150266369Y-35026476D01*
X150342559Y-34950285D01*
X150380654Y-34836000D01*
X150380654Y-34645523D01*
X147030654Y-33312190D02*
X147030654Y-33388380D01*
X147068750Y-33464570D01*
X147106845Y-33502666D01*
X147183035Y-33540761D01*
X147335416Y-33578856D01*
X147525892Y-33578856D01*
X147678273Y-33540761D01*
X147754464Y-33502666D01*
X147792559Y-33464570D01*
X147830654Y-33388380D01*
X147830654Y-33312190D01*
X147792559Y-33235999D01*
X147754464Y-33197904D01*
X147678273Y-33159809D01*
X147525892Y-33121713D01*
X147335416Y-33121713D01*
X147183035Y-33159809D01*
X147106845Y-33197904D01*
X147068750Y-33235999D01*
X147030654Y-33312190D01*
X147830654Y-34340761D02*
X147830654Y-33883618D01*
X147830654Y-34112190D02*
X147030654Y-34112190D01*
X147144940Y-34035999D01*
X147221130Y-33959809D01*
X147259226Y-33883618D01*
X147030654Y-34607428D02*
X147030654Y-35140761D01*
X147830654Y-34797904D01*
X144430654Y-33312190D02*
X144430654Y-33388380D01*
X144468750Y-33464570D01*
X144506845Y-33502666D01*
X144583035Y-33540761D01*
X144735416Y-33578856D01*
X144925892Y-33578856D01*
X145078273Y-33540761D01*
X145154464Y-33502666D01*
X145192559Y-33464570D01*
X145230654Y-33388380D01*
X145230654Y-33312190D01*
X145192559Y-33235999D01*
X145154464Y-33197904D01*
X145078273Y-33159809D01*
X144925892Y-33121713D01*
X144735416Y-33121713D01*
X144583035Y-33159809D01*
X144506845Y-33197904D01*
X144468750Y-33235999D01*
X144430654Y-33312190D01*
X144506845Y-33883618D02*
X144468750Y-33921713D01*
X144430654Y-33997904D01*
X144430654Y-34188380D01*
X144468750Y-34264570D01*
X144506845Y-34302666D01*
X144583035Y-34340761D01*
X144659226Y-34340761D01*
X144773511Y-34302666D01*
X145230654Y-33845523D01*
X145230654Y-34340761D01*
X144430654Y-34835999D02*
X144430654Y-34912190D01*
X144468750Y-34988380D01*
X144506845Y-35026475D01*
X144583035Y-35064570D01*
X144735416Y-35102666D01*
X144925892Y-35102666D01*
X145078273Y-35064570D01*
X145154464Y-35026475D01*
X145192559Y-34988380D01*
X145230654Y-34912190D01*
X145230654Y-34835999D01*
X145192559Y-34759809D01*
X145154464Y-34721713D01*
X145078273Y-34683618D01*
X144925892Y-34645523D01*
X144735416Y-34645523D01*
X144583035Y-34683618D01*
X144506845Y-34721713D01*
X144468750Y-34759809D01*
X144430654Y-34835999D01*
X154730654Y-33312190D02*
X154730654Y-33388380D01*
X154768750Y-33464570D01*
X154806845Y-33502666D01*
X154883035Y-33540761D01*
X155035416Y-33578856D01*
X155225892Y-33578856D01*
X155378273Y-33540761D01*
X155454464Y-33502666D01*
X155492559Y-33464570D01*
X155530654Y-33388380D01*
X155530654Y-33312190D01*
X155492559Y-33235999D01*
X155454464Y-33197904D01*
X155378273Y-33159809D01*
X155225892Y-33121713D01*
X155035416Y-33121713D01*
X154883035Y-33159809D01*
X154806845Y-33197904D01*
X154768750Y-33235999D01*
X154730654Y-33312190D01*
X154730654Y-34074094D02*
X154730654Y-34150285D01*
X154768750Y-34226475D01*
X154806845Y-34264570D01*
X154883035Y-34302666D01*
X155035416Y-34340761D01*
X155225892Y-34340761D01*
X155378273Y-34302666D01*
X155454464Y-34264570D01*
X155492559Y-34226475D01*
X155530654Y-34150285D01*
X155530654Y-34074094D01*
X155492559Y-33997904D01*
X155454464Y-33959809D01*
X155378273Y-33921713D01*
X155225892Y-33883618D01*
X155035416Y-33883618D01*
X154883035Y-33921713D01*
X154806845Y-33959809D01*
X154768750Y-33997904D01*
X154730654Y-34074094D01*
X155073511Y-34797904D02*
X155035416Y-34721713D01*
X154997321Y-34683618D01*
X154921130Y-34645523D01*
X154883035Y-34645523D01*
X154806845Y-34683618D01*
X154768750Y-34721713D01*
X154730654Y-34797904D01*
X154730654Y-34950285D01*
X154768750Y-35026475D01*
X154806845Y-35064570D01*
X154883035Y-35102666D01*
X154921130Y-35102666D01*
X154997321Y-35064570D01*
X155035416Y-35026475D01*
X155073511Y-34950285D01*
X155073511Y-34797904D01*
X155111607Y-34721713D01*
X155149702Y-34683618D01*
X155225892Y-34645523D01*
X155378273Y-34645523D01*
X155454464Y-34683618D01*
X155492559Y-34721713D01*
X155530654Y-34797904D01*
X155530654Y-34950285D01*
X155492559Y-35026475D01*
X155454464Y-35064570D01*
X155378273Y-35102666D01*
X155225892Y-35102666D01*
X155149702Y-35064570D01*
X155111607Y-35026475D01*
X155073511Y-34950285D01*
X157200654Y-33312190D02*
X157200654Y-33388380D01*
X157238750Y-33464570D01*
X157276845Y-33502666D01*
X157353035Y-33540761D01*
X157505416Y-33578856D01*
X157695892Y-33578856D01*
X157848273Y-33540761D01*
X157924464Y-33502666D01*
X157962559Y-33464570D01*
X158000654Y-33388380D01*
X158000654Y-33312190D01*
X157962559Y-33235999D01*
X157924464Y-33197904D01*
X157848273Y-33159809D01*
X157695892Y-33121713D01*
X157505416Y-33121713D01*
X157353035Y-33159809D01*
X157276845Y-33197904D01*
X157238750Y-33235999D01*
X157200654Y-33312190D01*
X157200654Y-34074094D02*
X157200654Y-34150285D01*
X157238750Y-34226475D01*
X157276845Y-34264570D01*
X157353035Y-34302666D01*
X157505416Y-34340761D01*
X157695892Y-34340761D01*
X157848273Y-34302666D01*
X157924464Y-34264570D01*
X157962559Y-34226475D01*
X158000654Y-34150285D01*
X158000654Y-34074094D01*
X157962559Y-33997904D01*
X157924464Y-33959809D01*
X157848273Y-33921713D01*
X157695892Y-33883618D01*
X157505416Y-33883618D01*
X157353035Y-33921713D01*
X157276845Y-33959809D01*
X157238750Y-33997904D01*
X157200654Y-34074094D01*
X157200654Y-35026475D02*
X157200654Y-34874094D01*
X157238750Y-34797904D01*
X157276845Y-34759809D01*
X157391130Y-34683618D01*
X157543511Y-34645523D01*
X157848273Y-34645523D01*
X157924464Y-34683618D01*
X157962559Y-34721713D01*
X158000654Y-34797904D01*
X158000654Y-34950285D01*
X157962559Y-35026475D01*
X157924464Y-35064570D01*
X157848273Y-35102666D01*
X157657797Y-35102666D01*
X157581607Y-35064570D01*
X157543511Y-35026475D01*
X157505416Y-34950285D01*
X157505416Y-34797904D01*
X157543511Y-34721713D01*
X157581607Y-34683618D01*
X157657797Y-34645523D01*
X149416130Y-83494761D02*
X148416130Y-83494761D01*
X148416130Y-83732857D01*
X148463750Y-83875714D01*
X148558988Y-83970952D01*
X148654226Y-84018571D01*
X148844702Y-84066190D01*
X148987559Y-84066190D01*
X149178035Y-84018571D01*
X149273273Y-83970952D01*
X149368511Y-83875714D01*
X149416130Y-83732857D01*
X149416130Y-83494761D01*
X149511369Y-84256666D02*
X149511369Y-85018571D01*
X148416130Y-85161428D02*
X148416130Y-85780476D01*
X148797083Y-85447142D01*
X148797083Y-85590000D01*
X148844702Y-85685238D01*
X148892321Y-85732857D01*
X148987559Y-85780476D01*
X149225654Y-85780476D01*
X149320892Y-85732857D01*
X149368511Y-85685238D01*
X149416130Y-85590000D01*
X149416130Y-85304285D01*
X149368511Y-85209047D01*
X149320892Y-85161428D01*
X148749464Y-86637619D02*
X149416130Y-86637619D01*
X148368511Y-86399523D02*
X149082797Y-86161428D01*
X149082797Y-86780476D01*
X149096130Y-88638095D02*
X148096130Y-88638095D01*
X149096130Y-89209523D02*
X148524702Y-88780952D01*
X148096130Y-89209523D02*
X148667559Y-88638095D01*
X130159880Y-83494761D02*
X129159880Y-83494761D01*
X129159880Y-83732857D01*
X129207500Y-83875714D01*
X129302738Y-83970952D01*
X129397976Y-84018571D01*
X129588452Y-84066190D01*
X129731309Y-84066190D01*
X129921785Y-84018571D01*
X130017023Y-83970952D01*
X130112261Y-83875714D01*
X130159880Y-83732857D01*
X130159880Y-83494761D01*
X130255119Y-84256666D02*
X130255119Y-85018571D01*
X129159880Y-85161428D02*
X129159880Y-85780476D01*
X129540833Y-85447142D01*
X129540833Y-85590000D01*
X129588452Y-85685238D01*
X129636071Y-85732857D01*
X129731309Y-85780476D01*
X129969404Y-85780476D01*
X130064642Y-85732857D01*
X130112261Y-85685238D01*
X130159880Y-85590000D01*
X130159880Y-85304285D01*
X130112261Y-85209047D01*
X130064642Y-85161428D01*
X129159880Y-86113809D02*
X129159880Y-86732857D01*
X129540833Y-86399523D01*
X129540833Y-86542380D01*
X129588452Y-86637619D01*
X129636071Y-86685238D01*
X129731309Y-86732857D01*
X129969404Y-86732857D01*
X130064642Y-86685238D01*
X130112261Y-86637619D01*
X130159880Y-86542380D01*
X130159880Y-86256666D01*
X130112261Y-86161428D01*
X130064642Y-86113809D01*
X129839880Y-88638095D02*
X128839880Y-88638095D01*
X129839880Y-89209523D02*
X129268452Y-88780952D01*
X128839880Y-89209523D02*
X129411309Y-88638095D01*
X111109880Y-83494761D02*
X110109880Y-83494761D01*
X110109880Y-83732857D01*
X110157500Y-83875714D01*
X110252738Y-83970952D01*
X110347976Y-84018571D01*
X110538452Y-84066190D01*
X110681309Y-84066190D01*
X110871785Y-84018571D01*
X110967023Y-83970952D01*
X111062261Y-83875714D01*
X111109880Y-83732857D01*
X111109880Y-83494761D01*
X111205119Y-84256666D02*
X111205119Y-85018571D01*
X110109880Y-85161428D02*
X110109880Y-85780476D01*
X110490833Y-85447142D01*
X110490833Y-85590000D01*
X110538452Y-85685238D01*
X110586071Y-85732857D01*
X110681309Y-85780476D01*
X110919404Y-85780476D01*
X111014642Y-85732857D01*
X111062261Y-85685238D01*
X111109880Y-85590000D01*
X111109880Y-85304285D01*
X111062261Y-85209047D01*
X111014642Y-85161428D01*
X110205119Y-86161428D02*
X110157500Y-86209047D01*
X110109880Y-86304285D01*
X110109880Y-86542380D01*
X110157500Y-86637619D01*
X110205119Y-86685238D01*
X110300357Y-86732857D01*
X110395595Y-86732857D01*
X110538452Y-86685238D01*
X111109880Y-86113809D01*
X111109880Y-86732857D01*
X110789880Y-88638095D02*
X109789880Y-88638095D01*
X110789880Y-89209523D02*
X110218452Y-88780952D01*
X109789880Y-89209523D02*
X110361309Y-88638095D01*
X92059880Y-83494761D02*
X91059880Y-83494761D01*
X91059880Y-83732857D01*
X91107500Y-83875714D01*
X91202738Y-83970952D01*
X91297976Y-84018571D01*
X91488452Y-84066190D01*
X91631309Y-84066190D01*
X91821785Y-84018571D01*
X91917023Y-83970952D01*
X92012261Y-83875714D01*
X92059880Y-83732857D01*
X92059880Y-83494761D01*
X92155119Y-84256666D02*
X92155119Y-85018571D01*
X91059880Y-85161428D02*
X91059880Y-85780476D01*
X91440833Y-85447142D01*
X91440833Y-85590000D01*
X91488452Y-85685238D01*
X91536071Y-85732857D01*
X91631309Y-85780476D01*
X91869404Y-85780476D01*
X91964642Y-85732857D01*
X92012261Y-85685238D01*
X92059880Y-85590000D01*
X92059880Y-85304285D01*
X92012261Y-85209047D01*
X91964642Y-85161428D01*
X92059880Y-86732857D02*
X92059880Y-86161428D01*
X92059880Y-86447142D02*
X91059880Y-86447142D01*
X91202738Y-86351904D01*
X91297976Y-86256666D01*
X91345595Y-86161428D01*
X91739880Y-88638095D02*
X90739880Y-88638095D01*
X91739880Y-89209523D02*
X91168452Y-88780952D01*
X90739880Y-89209523D02*
X91311309Y-88638095D01*
X67659880Y-83494761D02*
X66659880Y-83494761D01*
X66659880Y-83732857D01*
X66707500Y-83875714D01*
X66802738Y-83970952D01*
X66897976Y-84018571D01*
X67088452Y-84066190D01*
X67231309Y-84066190D01*
X67421785Y-84018571D01*
X67517023Y-83970952D01*
X67612261Y-83875714D01*
X67659880Y-83732857D01*
X67659880Y-83494761D01*
X67755119Y-84256666D02*
X67755119Y-85018571D01*
X66659880Y-85161428D02*
X66659880Y-85780476D01*
X67040833Y-85447142D01*
X67040833Y-85590000D01*
X67088452Y-85685238D01*
X67136071Y-85732857D01*
X67231309Y-85780476D01*
X67469404Y-85780476D01*
X67564642Y-85732857D01*
X67612261Y-85685238D01*
X67659880Y-85590000D01*
X67659880Y-85304285D01*
X67612261Y-85209047D01*
X67564642Y-85161428D01*
X66659880Y-86399523D02*
X66659880Y-86494761D01*
X66707500Y-86590000D01*
X66755119Y-86637619D01*
X66850357Y-86685238D01*
X67040833Y-86732857D01*
X67278928Y-86732857D01*
X67469404Y-86685238D01*
X67564642Y-86637619D01*
X67612261Y-86590000D01*
X67659880Y-86494761D01*
X67659880Y-86399523D01*
X67612261Y-86304285D01*
X67564642Y-86256666D01*
X67469404Y-86209047D01*
X67278928Y-86161428D01*
X67040833Y-86161428D01*
X66850357Y-86209047D01*
X66755119Y-86256666D01*
X66707500Y-86304285D01*
X66659880Y-86399523D01*
X67339880Y-88638095D02*
X66339880Y-88638095D01*
X67339880Y-89209523D02*
X66768452Y-88780952D01*
X66339880Y-89209523D02*
X66911309Y-88638095D01*
X34322380Y-83494761D02*
X33322380Y-83494761D01*
X33322380Y-83732857D01*
X33370000Y-83875714D01*
X33465238Y-83970952D01*
X33560476Y-84018571D01*
X33750952Y-84066190D01*
X33893809Y-84066190D01*
X34084285Y-84018571D01*
X34179523Y-83970952D01*
X34274761Y-83875714D01*
X34322380Y-83732857D01*
X34322380Y-83494761D01*
X34417619Y-84256666D02*
X34417619Y-85018571D01*
X33417619Y-85209047D02*
X33370000Y-85256666D01*
X33322380Y-85351904D01*
X33322380Y-85590000D01*
X33370000Y-85685238D01*
X33417619Y-85732857D01*
X33512857Y-85780476D01*
X33608095Y-85780476D01*
X33750952Y-85732857D01*
X34322380Y-85161428D01*
X34322380Y-85780476D01*
X34322380Y-86256666D02*
X34322380Y-86447142D01*
X34274761Y-86542380D01*
X34227142Y-86590000D01*
X34084285Y-86685238D01*
X33893809Y-86732857D01*
X33512857Y-86732857D01*
X33417619Y-86685238D01*
X33370000Y-86637619D01*
X33322380Y-86542380D01*
X33322380Y-86351904D01*
X33370000Y-86256666D01*
X33417619Y-86209047D01*
X33512857Y-86161428D01*
X33750952Y-86161428D01*
X33846190Y-86209047D01*
X33893809Y-86256666D01*
X33941428Y-86351904D01*
X33941428Y-86542380D01*
X33893809Y-86637619D01*
X33846190Y-86685238D01*
X33750952Y-86732857D01*
X34002380Y-88638095D02*
X33002380Y-88638095D01*
X34002380Y-89209523D02*
X33430952Y-88780952D01*
X33002380Y-89209523D02*
X33573809Y-88638095D01*
X155766130Y-64444761D02*
X154766130Y-64444761D01*
X154766130Y-64682857D01*
X154813750Y-64825714D01*
X154908988Y-64920952D01*
X155004226Y-64968571D01*
X155194702Y-65016190D01*
X155337559Y-65016190D01*
X155528035Y-64968571D01*
X155623273Y-64920952D01*
X155718511Y-64825714D01*
X155766130Y-64682857D01*
X155766130Y-64444761D01*
X155861369Y-65206666D02*
X155861369Y-65968571D01*
X154861369Y-66159047D02*
X154813750Y-66206666D01*
X154766130Y-66301904D01*
X154766130Y-66540000D01*
X154813750Y-66635238D01*
X154861369Y-66682857D01*
X154956607Y-66730476D01*
X155051845Y-66730476D01*
X155194702Y-66682857D01*
X155766130Y-66111428D01*
X155766130Y-66730476D01*
X155194702Y-67301904D02*
X155147083Y-67206666D01*
X155099464Y-67159047D01*
X155004226Y-67111428D01*
X154956607Y-67111428D01*
X154861369Y-67159047D01*
X154813750Y-67206666D01*
X154766130Y-67301904D01*
X154766130Y-67492380D01*
X154813750Y-67587619D01*
X154861369Y-67635238D01*
X154956607Y-67682857D01*
X155004226Y-67682857D01*
X155099464Y-67635238D01*
X155147083Y-67587619D01*
X155194702Y-67492380D01*
X155194702Y-67301904D01*
X155242321Y-67206666D01*
X155289940Y-67159047D01*
X155385178Y-67111428D01*
X155575654Y-67111428D01*
X155670892Y-67159047D01*
X155718511Y-67206666D01*
X155766130Y-67301904D01*
X155766130Y-67492380D01*
X155718511Y-67587619D01*
X155670892Y-67635238D01*
X155575654Y-67682857D01*
X155385178Y-67682857D01*
X155289940Y-67635238D01*
X155242321Y-67587619D01*
X155194702Y-67492380D01*
X155446130Y-69588095D02*
X154446130Y-69588095D01*
X155446130Y-70159523D02*
X154874702Y-69730952D01*
X154446130Y-70159523D02*
X155017559Y-69588095D01*
X130159880Y-64444761D02*
X129159880Y-64444761D01*
X129159880Y-64682857D01*
X129207500Y-64825714D01*
X129302738Y-64920952D01*
X129397976Y-64968571D01*
X129588452Y-65016190D01*
X129731309Y-65016190D01*
X129921785Y-64968571D01*
X130017023Y-64920952D01*
X130112261Y-64825714D01*
X130159880Y-64682857D01*
X130159880Y-64444761D01*
X130255119Y-65206666D02*
X130255119Y-65968571D01*
X129255119Y-66159047D02*
X129207500Y-66206666D01*
X129159880Y-66301904D01*
X129159880Y-66540000D01*
X129207500Y-66635238D01*
X129255119Y-66682857D01*
X129350357Y-66730476D01*
X129445595Y-66730476D01*
X129588452Y-66682857D01*
X130159880Y-66111428D01*
X130159880Y-66730476D01*
X129159880Y-67063809D02*
X129159880Y-67730476D01*
X130159880Y-67301904D01*
X129839880Y-69588095D02*
X128839880Y-69588095D01*
X129839880Y-70159523D02*
X129268452Y-69730952D01*
X128839880Y-70159523D02*
X129411309Y-69588095D01*
X111109880Y-64444761D02*
X110109880Y-64444761D01*
X110109880Y-64682857D01*
X110157500Y-64825714D01*
X110252738Y-64920952D01*
X110347976Y-64968571D01*
X110538452Y-65016190D01*
X110681309Y-65016190D01*
X110871785Y-64968571D01*
X110967023Y-64920952D01*
X111062261Y-64825714D01*
X111109880Y-64682857D01*
X111109880Y-64444761D01*
X111205119Y-65206666D02*
X111205119Y-65968571D01*
X110205119Y-66159047D02*
X110157500Y-66206666D01*
X110109880Y-66301904D01*
X110109880Y-66540000D01*
X110157500Y-66635238D01*
X110205119Y-66682857D01*
X110300357Y-66730476D01*
X110395595Y-66730476D01*
X110538452Y-66682857D01*
X111109880Y-66111428D01*
X111109880Y-66730476D01*
X110109880Y-67587619D02*
X110109880Y-67397142D01*
X110157500Y-67301904D01*
X110205119Y-67254285D01*
X110347976Y-67159047D01*
X110538452Y-67111428D01*
X110919404Y-67111428D01*
X111014642Y-67159047D01*
X111062261Y-67206666D01*
X111109880Y-67301904D01*
X111109880Y-67492380D01*
X111062261Y-67587619D01*
X111014642Y-67635238D01*
X110919404Y-67682857D01*
X110681309Y-67682857D01*
X110586071Y-67635238D01*
X110538452Y-67587619D01*
X110490833Y-67492380D01*
X110490833Y-67301904D01*
X110538452Y-67206666D01*
X110586071Y-67159047D01*
X110681309Y-67111428D01*
X110789880Y-69588095D02*
X109789880Y-69588095D01*
X110789880Y-70159523D02*
X110218452Y-69730952D01*
X109789880Y-70159523D02*
X110361309Y-69588095D01*
X92059880Y-64444761D02*
X91059880Y-64444761D01*
X91059880Y-64682857D01*
X91107500Y-64825714D01*
X91202738Y-64920952D01*
X91297976Y-64968571D01*
X91488452Y-65016190D01*
X91631309Y-65016190D01*
X91821785Y-64968571D01*
X91917023Y-64920952D01*
X92012261Y-64825714D01*
X92059880Y-64682857D01*
X92059880Y-64444761D01*
X92155119Y-65206666D02*
X92155119Y-65968571D01*
X91155119Y-66159047D02*
X91107500Y-66206666D01*
X91059880Y-66301904D01*
X91059880Y-66540000D01*
X91107500Y-66635238D01*
X91155119Y-66682857D01*
X91250357Y-66730476D01*
X91345595Y-66730476D01*
X91488452Y-66682857D01*
X92059880Y-66111428D01*
X92059880Y-66730476D01*
X91059880Y-67635238D02*
X91059880Y-67159047D01*
X91536071Y-67111428D01*
X91488452Y-67159047D01*
X91440833Y-67254285D01*
X91440833Y-67492380D01*
X91488452Y-67587619D01*
X91536071Y-67635238D01*
X91631309Y-67682857D01*
X91869404Y-67682857D01*
X91964642Y-67635238D01*
X92012261Y-67587619D01*
X92059880Y-67492380D01*
X92059880Y-67254285D01*
X92012261Y-67159047D01*
X91964642Y-67111428D01*
X91739880Y-69588095D02*
X90739880Y-69588095D01*
X91739880Y-70159523D02*
X91168452Y-69730952D01*
X90739880Y-70159523D02*
X91311309Y-69588095D01*
X73009880Y-64444761D02*
X72009880Y-64444761D01*
X72009880Y-64682857D01*
X72057500Y-64825714D01*
X72152738Y-64920952D01*
X72247976Y-64968571D01*
X72438452Y-65016190D01*
X72581309Y-65016190D01*
X72771785Y-64968571D01*
X72867023Y-64920952D01*
X72962261Y-64825714D01*
X73009880Y-64682857D01*
X73009880Y-64444761D01*
X73105119Y-65206666D02*
X73105119Y-65968571D01*
X72105119Y-66159047D02*
X72057500Y-66206666D01*
X72009880Y-66301904D01*
X72009880Y-66540000D01*
X72057500Y-66635238D01*
X72105119Y-66682857D01*
X72200357Y-66730476D01*
X72295595Y-66730476D01*
X72438452Y-66682857D01*
X73009880Y-66111428D01*
X73009880Y-66730476D01*
X72343214Y-67587619D02*
X73009880Y-67587619D01*
X71962261Y-67349523D02*
X72676547Y-67111428D01*
X72676547Y-67730476D01*
X72689880Y-69588095D02*
X71689880Y-69588095D01*
X72689880Y-70159523D02*
X72118452Y-69730952D01*
X71689880Y-70159523D02*
X72261309Y-69588095D01*
X53959880Y-64444761D02*
X52959880Y-64444761D01*
X52959880Y-64682857D01*
X53007500Y-64825714D01*
X53102738Y-64920952D01*
X53197976Y-64968571D01*
X53388452Y-65016190D01*
X53531309Y-65016190D01*
X53721785Y-64968571D01*
X53817023Y-64920952D01*
X53912261Y-64825714D01*
X53959880Y-64682857D01*
X53959880Y-64444761D01*
X54055119Y-65206666D02*
X54055119Y-65968571D01*
X53055119Y-66159047D02*
X53007500Y-66206666D01*
X52959880Y-66301904D01*
X52959880Y-66540000D01*
X53007500Y-66635238D01*
X53055119Y-66682857D01*
X53150357Y-66730476D01*
X53245595Y-66730476D01*
X53388452Y-66682857D01*
X53959880Y-66111428D01*
X53959880Y-66730476D01*
X52959880Y-67063809D02*
X52959880Y-67682857D01*
X53340833Y-67349523D01*
X53340833Y-67492380D01*
X53388452Y-67587619D01*
X53436071Y-67635238D01*
X53531309Y-67682857D01*
X53769404Y-67682857D01*
X53864642Y-67635238D01*
X53912261Y-67587619D01*
X53959880Y-67492380D01*
X53959880Y-67206666D01*
X53912261Y-67111428D01*
X53864642Y-67063809D01*
X53639880Y-69588095D02*
X52639880Y-69588095D01*
X53639880Y-70159523D02*
X53068452Y-69730952D01*
X52639880Y-70159523D02*
X53211309Y-69588095D01*
X34909880Y-64444761D02*
X33909880Y-64444761D01*
X33909880Y-64682857D01*
X33957500Y-64825714D01*
X34052738Y-64920952D01*
X34147976Y-64968571D01*
X34338452Y-65016190D01*
X34481309Y-65016190D01*
X34671785Y-64968571D01*
X34767023Y-64920952D01*
X34862261Y-64825714D01*
X34909880Y-64682857D01*
X34909880Y-64444761D01*
X35005119Y-65206666D02*
X35005119Y-65968571D01*
X34005119Y-66159047D02*
X33957500Y-66206666D01*
X33909880Y-66301904D01*
X33909880Y-66540000D01*
X33957500Y-66635238D01*
X34005119Y-66682857D01*
X34100357Y-66730476D01*
X34195595Y-66730476D01*
X34338452Y-66682857D01*
X34909880Y-66111428D01*
X34909880Y-66730476D01*
X34005119Y-67111428D02*
X33957500Y-67159047D01*
X33909880Y-67254285D01*
X33909880Y-67492380D01*
X33957500Y-67587619D01*
X34005119Y-67635238D01*
X34100357Y-67682857D01*
X34195595Y-67682857D01*
X34338452Y-67635238D01*
X34909880Y-67063809D01*
X34909880Y-67682857D01*
X34589880Y-69588095D02*
X33589880Y-69588095D01*
X34589880Y-70159523D02*
X34018452Y-69730952D01*
X33589880Y-70159523D02*
X34161309Y-69588095D01*
X151003630Y-45394761D02*
X150003630Y-45394761D01*
X150003630Y-45632857D01*
X150051250Y-45775714D01*
X150146488Y-45870952D01*
X150241726Y-45918571D01*
X150432202Y-45966190D01*
X150575059Y-45966190D01*
X150765535Y-45918571D01*
X150860773Y-45870952D01*
X150956011Y-45775714D01*
X151003630Y-45632857D01*
X151003630Y-45394761D01*
X151098869Y-46156666D02*
X151098869Y-46918571D01*
X150098869Y-47109047D02*
X150051250Y-47156666D01*
X150003630Y-47251904D01*
X150003630Y-47490000D01*
X150051250Y-47585238D01*
X150098869Y-47632857D01*
X150194107Y-47680476D01*
X150289345Y-47680476D01*
X150432202Y-47632857D01*
X151003630Y-47061428D01*
X151003630Y-47680476D01*
X151003630Y-48632857D02*
X151003630Y-48061428D01*
X151003630Y-48347142D02*
X150003630Y-48347142D01*
X150146488Y-48251904D01*
X150241726Y-48156666D01*
X150289345Y-48061428D01*
X150683630Y-50538095D02*
X149683630Y-50538095D01*
X150683630Y-51109523D02*
X150112202Y-50680952D01*
X149683630Y-51109523D02*
X150255059Y-50538095D01*
X120634880Y-45394761D02*
X119634880Y-45394761D01*
X119634880Y-45632857D01*
X119682500Y-45775714D01*
X119777738Y-45870952D01*
X119872976Y-45918571D01*
X120063452Y-45966190D01*
X120206309Y-45966190D01*
X120396785Y-45918571D01*
X120492023Y-45870952D01*
X120587261Y-45775714D01*
X120634880Y-45632857D01*
X120634880Y-45394761D01*
X120730119Y-46156666D02*
X120730119Y-46918571D01*
X119730119Y-47109047D02*
X119682500Y-47156666D01*
X119634880Y-47251904D01*
X119634880Y-47490000D01*
X119682500Y-47585238D01*
X119730119Y-47632857D01*
X119825357Y-47680476D01*
X119920595Y-47680476D01*
X120063452Y-47632857D01*
X120634880Y-47061428D01*
X120634880Y-47680476D01*
X119634880Y-48299523D02*
X119634880Y-48394761D01*
X119682500Y-48490000D01*
X119730119Y-48537619D01*
X119825357Y-48585238D01*
X120015833Y-48632857D01*
X120253928Y-48632857D01*
X120444404Y-48585238D01*
X120539642Y-48537619D01*
X120587261Y-48490000D01*
X120634880Y-48394761D01*
X120634880Y-48299523D01*
X120587261Y-48204285D01*
X120539642Y-48156666D01*
X120444404Y-48109047D01*
X120253928Y-48061428D01*
X120015833Y-48061428D01*
X119825357Y-48109047D01*
X119730119Y-48156666D01*
X119682500Y-48204285D01*
X119634880Y-48299523D01*
X120314880Y-50538095D02*
X119314880Y-50538095D01*
X120314880Y-51109523D02*
X119743452Y-50680952D01*
X119314880Y-51109523D02*
X119886309Y-50538095D01*
X101584880Y-45394761D02*
X100584880Y-45394761D01*
X100584880Y-45632857D01*
X100632500Y-45775714D01*
X100727738Y-45870952D01*
X100822976Y-45918571D01*
X101013452Y-45966190D01*
X101156309Y-45966190D01*
X101346785Y-45918571D01*
X101442023Y-45870952D01*
X101537261Y-45775714D01*
X101584880Y-45632857D01*
X101584880Y-45394761D01*
X101680119Y-46156666D02*
X101680119Y-46918571D01*
X101584880Y-47680476D02*
X101584880Y-47109047D01*
X101584880Y-47394761D02*
X100584880Y-47394761D01*
X100727738Y-47299523D01*
X100822976Y-47204285D01*
X100870595Y-47109047D01*
X101584880Y-48156666D02*
X101584880Y-48347142D01*
X101537261Y-48442380D01*
X101489642Y-48490000D01*
X101346785Y-48585238D01*
X101156309Y-48632857D01*
X100775357Y-48632857D01*
X100680119Y-48585238D01*
X100632500Y-48537619D01*
X100584880Y-48442380D01*
X100584880Y-48251904D01*
X100632500Y-48156666D01*
X100680119Y-48109047D01*
X100775357Y-48061428D01*
X101013452Y-48061428D01*
X101108690Y-48109047D01*
X101156309Y-48156666D01*
X101203928Y-48251904D01*
X101203928Y-48442380D01*
X101156309Y-48537619D01*
X101108690Y-48585238D01*
X101013452Y-48632857D01*
X101264880Y-50538095D02*
X100264880Y-50538095D01*
X101264880Y-51109523D02*
X100693452Y-50680952D01*
X100264880Y-51109523D02*
X100836309Y-50538095D01*
X82534880Y-45394761D02*
X81534880Y-45394761D01*
X81534880Y-45632857D01*
X81582500Y-45775714D01*
X81677738Y-45870952D01*
X81772976Y-45918571D01*
X81963452Y-45966190D01*
X82106309Y-45966190D01*
X82296785Y-45918571D01*
X82392023Y-45870952D01*
X82487261Y-45775714D01*
X82534880Y-45632857D01*
X82534880Y-45394761D01*
X82630119Y-46156666D02*
X82630119Y-46918571D01*
X82534880Y-47680476D02*
X82534880Y-47109047D01*
X82534880Y-47394761D02*
X81534880Y-47394761D01*
X81677738Y-47299523D01*
X81772976Y-47204285D01*
X81820595Y-47109047D01*
X81963452Y-48251904D02*
X81915833Y-48156666D01*
X81868214Y-48109047D01*
X81772976Y-48061428D01*
X81725357Y-48061428D01*
X81630119Y-48109047D01*
X81582500Y-48156666D01*
X81534880Y-48251904D01*
X81534880Y-48442380D01*
X81582500Y-48537619D01*
X81630119Y-48585238D01*
X81725357Y-48632857D01*
X81772976Y-48632857D01*
X81868214Y-48585238D01*
X81915833Y-48537619D01*
X81963452Y-48442380D01*
X81963452Y-48251904D01*
X82011071Y-48156666D01*
X82058690Y-48109047D01*
X82153928Y-48061428D01*
X82344404Y-48061428D01*
X82439642Y-48109047D01*
X82487261Y-48156666D01*
X82534880Y-48251904D01*
X82534880Y-48442380D01*
X82487261Y-48537619D01*
X82439642Y-48585238D01*
X82344404Y-48632857D01*
X82153928Y-48632857D01*
X82058690Y-48585238D01*
X82011071Y-48537619D01*
X81963452Y-48442380D01*
X82214880Y-50538095D02*
X81214880Y-50538095D01*
X82214880Y-51109523D02*
X81643452Y-50680952D01*
X81214880Y-51109523D02*
X81786309Y-50538095D01*
X63484880Y-45394761D02*
X62484880Y-45394761D01*
X62484880Y-45632857D01*
X62532500Y-45775714D01*
X62627738Y-45870952D01*
X62722976Y-45918571D01*
X62913452Y-45966190D01*
X63056309Y-45966190D01*
X63246785Y-45918571D01*
X63342023Y-45870952D01*
X63437261Y-45775714D01*
X63484880Y-45632857D01*
X63484880Y-45394761D01*
X63580119Y-46156666D02*
X63580119Y-46918571D01*
X63484880Y-47680476D02*
X63484880Y-47109047D01*
X63484880Y-47394761D02*
X62484880Y-47394761D01*
X62627738Y-47299523D01*
X62722976Y-47204285D01*
X62770595Y-47109047D01*
X62484880Y-48013809D02*
X62484880Y-48680476D01*
X63484880Y-48251904D01*
X63164880Y-50538095D02*
X62164880Y-50538095D01*
X63164880Y-51109523D02*
X62593452Y-50680952D01*
X62164880Y-51109523D02*
X62736309Y-50538095D01*
X44434880Y-45394761D02*
X43434880Y-45394761D01*
X43434880Y-45632857D01*
X43482500Y-45775714D01*
X43577738Y-45870952D01*
X43672976Y-45918571D01*
X43863452Y-45966190D01*
X44006309Y-45966190D01*
X44196785Y-45918571D01*
X44292023Y-45870952D01*
X44387261Y-45775714D01*
X44434880Y-45632857D01*
X44434880Y-45394761D01*
X44530119Y-46156666D02*
X44530119Y-46918571D01*
X44434880Y-47680476D02*
X44434880Y-47109047D01*
X44434880Y-47394761D02*
X43434880Y-47394761D01*
X43577738Y-47299523D01*
X43672976Y-47204285D01*
X43720595Y-47109047D01*
X43434880Y-48537619D02*
X43434880Y-48347142D01*
X43482500Y-48251904D01*
X43530119Y-48204285D01*
X43672976Y-48109047D01*
X43863452Y-48061428D01*
X44244404Y-48061428D01*
X44339642Y-48109047D01*
X44387261Y-48156666D01*
X44434880Y-48251904D01*
X44434880Y-48442380D01*
X44387261Y-48537619D01*
X44339642Y-48585238D01*
X44244404Y-48632857D01*
X44006309Y-48632857D01*
X43911071Y-48585238D01*
X43863452Y-48537619D01*
X43815833Y-48442380D01*
X43815833Y-48251904D01*
X43863452Y-48156666D01*
X43911071Y-48109047D01*
X44006309Y-48061428D01*
X44114880Y-50538095D02*
X43114880Y-50538095D01*
X44114880Y-51109523D02*
X43543452Y-50680952D01*
X43114880Y-51109523D02*
X43686309Y-50538095D01*
X25384880Y-45394761D02*
X24384880Y-45394761D01*
X24384880Y-45632857D01*
X24432500Y-45775714D01*
X24527738Y-45870952D01*
X24622976Y-45918571D01*
X24813452Y-45966190D01*
X24956309Y-45966190D01*
X25146785Y-45918571D01*
X25242023Y-45870952D01*
X25337261Y-45775714D01*
X25384880Y-45632857D01*
X25384880Y-45394761D01*
X25480119Y-46156666D02*
X25480119Y-46918571D01*
X25384880Y-47680476D02*
X25384880Y-47109047D01*
X25384880Y-47394761D02*
X24384880Y-47394761D01*
X24527738Y-47299523D01*
X24622976Y-47204285D01*
X24670595Y-47109047D01*
X24384880Y-48585238D02*
X24384880Y-48109047D01*
X24861071Y-48061428D01*
X24813452Y-48109047D01*
X24765833Y-48204285D01*
X24765833Y-48442380D01*
X24813452Y-48537619D01*
X24861071Y-48585238D01*
X24956309Y-48632857D01*
X25194404Y-48632857D01*
X25289642Y-48585238D01*
X25337261Y-48537619D01*
X25384880Y-48442380D01*
X25384880Y-48204285D01*
X25337261Y-48109047D01*
X25289642Y-48061428D01*
X25064880Y-50538095D02*
X24064880Y-50538095D01*
X25064880Y-51109523D02*
X24493452Y-50680952D01*
X24064880Y-51109523D02*
X24636309Y-50538095D01*
X161322380Y-42219761D02*
X160322380Y-42219761D01*
X160322380Y-42457857D01*
X160370000Y-42600714D01*
X160465238Y-42695952D01*
X160560476Y-42743571D01*
X160750952Y-42791190D01*
X160893809Y-42791190D01*
X161084285Y-42743571D01*
X161179523Y-42695952D01*
X161274761Y-42600714D01*
X161322380Y-42457857D01*
X161322380Y-42219761D01*
X161417619Y-42981666D02*
X161417619Y-43743571D01*
X161322380Y-44505476D02*
X161322380Y-43934047D01*
X161322380Y-44219761D02*
X160322380Y-44219761D01*
X160465238Y-44124523D01*
X160560476Y-44029285D01*
X160608095Y-43934047D01*
X160655714Y-45362619D02*
X161322380Y-45362619D01*
X160274761Y-45124523D02*
X160989047Y-44886428D01*
X160989047Y-45505476D01*
X161002380Y-47363095D02*
X160002380Y-47363095D01*
X161002380Y-47934523D02*
X160430952Y-47505952D01*
X160002380Y-47934523D02*
X160573809Y-47363095D01*
X123673988Y-35909880D02*
X123673988Y-34909880D01*
X123435892Y-34909880D01*
X123293035Y-34957500D01*
X123197797Y-35052738D01*
X123150178Y-35147976D01*
X123102559Y-35338452D01*
X123102559Y-35481309D01*
X123150178Y-35671785D01*
X123197797Y-35767023D01*
X123293035Y-35862261D01*
X123435892Y-35909880D01*
X123673988Y-35909880D01*
X122912083Y-36005119D02*
X122150178Y-36005119D01*
X121388273Y-35909880D02*
X121959702Y-35909880D01*
X121673988Y-35909880D02*
X121673988Y-34909880D01*
X121769226Y-35052738D01*
X121864464Y-35147976D01*
X121959702Y-35195595D01*
X121054940Y-34909880D02*
X120435892Y-34909880D01*
X120769226Y-35290833D01*
X120626369Y-35290833D01*
X120531130Y-35338452D01*
X120483511Y-35386071D01*
X120435892Y-35481309D01*
X120435892Y-35719404D01*
X120483511Y-35814642D01*
X120531130Y-35862261D01*
X120626369Y-35909880D01*
X120912083Y-35909880D01*
X121007321Y-35862261D01*
X121054940Y-35814642D01*
X118530654Y-35589880D02*
X118530654Y-34589880D01*
X117959226Y-35589880D02*
X118387797Y-35018452D01*
X117959226Y-34589880D02*
X118530654Y-35161309D01*
X115872380Y-27138511D02*
X114872380Y-27138511D01*
X114872380Y-27376607D01*
X114920000Y-27519464D01*
X115015238Y-27614702D01*
X115110476Y-27662321D01*
X115300952Y-27709940D01*
X115443809Y-27709940D01*
X115634285Y-27662321D01*
X115729523Y-27614702D01*
X115824761Y-27519464D01*
X115872380Y-27376607D01*
X115872380Y-27138511D01*
X115967619Y-27900416D02*
X115967619Y-28662321D01*
X115872380Y-29424226D02*
X115872380Y-28852797D01*
X115872380Y-29138511D02*
X114872380Y-29138511D01*
X115015238Y-29043273D01*
X115110476Y-28948035D01*
X115158095Y-28852797D01*
X114967619Y-29805178D02*
X114920000Y-29852797D01*
X114872380Y-29948035D01*
X114872380Y-30186130D01*
X114920000Y-30281369D01*
X114967619Y-30328988D01*
X115062857Y-30376607D01*
X115158095Y-30376607D01*
X115300952Y-30328988D01*
X115872380Y-29757559D01*
X115872380Y-30376607D01*
X115552380Y-32281845D02*
X114552380Y-32281845D01*
X115552380Y-32853273D02*
X114980952Y-32424702D01*
X114552380Y-32853273D02*
X115123809Y-32281845D01*
X96822380Y-27138511D02*
X95822380Y-27138511D01*
X95822380Y-27376607D01*
X95870000Y-27519464D01*
X95965238Y-27614702D01*
X96060476Y-27662321D01*
X96250952Y-27709940D01*
X96393809Y-27709940D01*
X96584285Y-27662321D01*
X96679523Y-27614702D01*
X96774761Y-27519464D01*
X96822380Y-27376607D01*
X96822380Y-27138511D01*
X96917619Y-27900416D02*
X96917619Y-28662321D01*
X96822380Y-29424226D02*
X96822380Y-28852797D01*
X96822380Y-29138511D02*
X95822380Y-29138511D01*
X95965238Y-29043273D01*
X96060476Y-28948035D01*
X96108095Y-28852797D01*
X96822380Y-30376607D02*
X96822380Y-29805178D01*
X96822380Y-30090892D02*
X95822380Y-30090892D01*
X95965238Y-29995654D01*
X96060476Y-29900416D01*
X96108095Y-29805178D01*
X96502380Y-32281845D02*
X95502380Y-32281845D01*
X96502380Y-32853273D02*
X95930952Y-32424702D01*
X95502380Y-32853273D02*
X96073809Y-32281845D01*
X77978630Y-27138511D02*
X76978630Y-27138511D01*
X76978630Y-27376607D01*
X77026250Y-27519464D01*
X77121488Y-27614702D01*
X77216726Y-27662321D01*
X77407202Y-27709940D01*
X77550059Y-27709940D01*
X77740535Y-27662321D01*
X77835773Y-27614702D01*
X77931011Y-27519464D01*
X77978630Y-27376607D01*
X77978630Y-27138511D01*
X78073869Y-27900416D02*
X78073869Y-28662321D01*
X77978630Y-29424226D02*
X77978630Y-28852797D01*
X77978630Y-29138511D02*
X76978630Y-29138511D01*
X77121488Y-29043273D01*
X77216726Y-28948035D01*
X77264345Y-28852797D01*
X76978630Y-30043273D02*
X76978630Y-30138511D01*
X77026250Y-30233750D01*
X77073869Y-30281369D01*
X77169107Y-30328988D01*
X77359583Y-30376607D01*
X77597678Y-30376607D01*
X77788154Y-30328988D01*
X77883392Y-30281369D01*
X77931011Y-30233750D01*
X77978630Y-30138511D01*
X77978630Y-30043273D01*
X77931011Y-29948035D01*
X77883392Y-29900416D01*
X77788154Y-29852797D01*
X77597678Y-29805178D01*
X77359583Y-29805178D01*
X77169107Y-29852797D01*
X77073869Y-29900416D01*
X77026250Y-29948035D01*
X76978630Y-30043273D01*
X77658630Y-32281845D02*
X76658630Y-32281845D01*
X77658630Y-32853273D02*
X77087202Y-32424702D01*
X76658630Y-32853273D02*
X77230059Y-32281845D01*
X58722380Y-27614702D02*
X57722380Y-27614702D01*
X57722380Y-27852797D01*
X57770000Y-27995654D01*
X57865238Y-28090892D01*
X57960476Y-28138511D01*
X58150952Y-28186130D01*
X58293809Y-28186130D01*
X58484285Y-28138511D01*
X58579523Y-28090892D01*
X58674761Y-27995654D01*
X58722380Y-27852797D01*
X58722380Y-27614702D01*
X58817619Y-28376607D02*
X58817619Y-29138511D01*
X58722380Y-29424226D02*
X58722380Y-29614702D01*
X58674761Y-29709940D01*
X58627142Y-29757559D01*
X58484285Y-29852797D01*
X58293809Y-29900416D01*
X57912857Y-29900416D01*
X57817619Y-29852797D01*
X57770000Y-29805178D01*
X57722380Y-29709940D01*
X57722380Y-29519464D01*
X57770000Y-29424226D01*
X57817619Y-29376607D01*
X57912857Y-29328988D01*
X58150952Y-29328988D01*
X58246190Y-29376607D01*
X58293809Y-29424226D01*
X58341428Y-29519464D01*
X58341428Y-29709940D01*
X58293809Y-29805178D01*
X58246190Y-29852797D01*
X58150952Y-29900416D01*
X58402380Y-32281845D02*
X57402380Y-32281845D01*
X58402380Y-32853273D02*
X57830952Y-32424702D01*
X57402380Y-32853273D02*
X57973809Y-32281845D01*
X39878630Y-27614702D02*
X38878630Y-27614702D01*
X38878630Y-27852797D01*
X38926250Y-27995654D01*
X39021488Y-28090892D01*
X39116726Y-28138511D01*
X39307202Y-28186130D01*
X39450059Y-28186130D01*
X39640535Y-28138511D01*
X39735773Y-28090892D01*
X39831011Y-27995654D01*
X39878630Y-27852797D01*
X39878630Y-27614702D01*
X39973869Y-28376607D02*
X39973869Y-29138511D01*
X39307202Y-29519464D02*
X39259583Y-29424226D01*
X39211964Y-29376607D01*
X39116726Y-29328988D01*
X39069107Y-29328988D01*
X38973869Y-29376607D01*
X38926250Y-29424226D01*
X38878630Y-29519464D01*
X38878630Y-29709940D01*
X38926250Y-29805178D01*
X38973869Y-29852797D01*
X39069107Y-29900416D01*
X39116726Y-29900416D01*
X39211964Y-29852797D01*
X39259583Y-29805178D01*
X39307202Y-29709940D01*
X39307202Y-29519464D01*
X39354821Y-29424226D01*
X39402440Y-29376607D01*
X39497678Y-29328988D01*
X39688154Y-29328988D01*
X39783392Y-29376607D01*
X39831011Y-29424226D01*
X39878630Y-29519464D01*
X39878630Y-29709940D01*
X39831011Y-29805178D01*
X39783392Y-29852797D01*
X39688154Y-29900416D01*
X39497678Y-29900416D01*
X39402440Y-29852797D01*
X39354821Y-29805178D01*
X39307202Y-29709940D01*
X39558630Y-32281845D02*
X38558630Y-32281845D01*
X39558630Y-32853273D02*
X38987202Y-32424702D01*
X38558630Y-32853273D02*
X39130059Y-32281845D01*
X20034880Y-27614702D02*
X19034880Y-27614702D01*
X19034880Y-27852797D01*
X19082500Y-27995654D01*
X19177738Y-28090892D01*
X19272976Y-28138511D01*
X19463452Y-28186130D01*
X19606309Y-28186130D01*
X19796785Y-28138511D01*
X19892023Y-28090892D01*
X19987261Y-27995654D01*
X20034880Y-27852797D01*
X20034880Y-27614702D01*
X20130119Y-28376607D02*
X20130119Y-29138511D01*
X19034880Y-29281369D02*
X19034880Y-29948035D01*
X20034880Y-29519464D01*
X19714880Y-32281845D02*
X18714880Y-32281845D01*
X19714880Y-32853273D02*
X19143452Y-32424702D01*
X18714880Y-32853273D02*
X19286309Y-32281845D01*
X154178630Y-8564702D02*
X153178630Y-8564702D01*
X153178630Y-8802797D01*
X153226250Y-8945654D01*
X153321488Y-9040892D01*
X153416726Y-9088511D01*
X153607202Y-9136130D01*
X153750059Y-9136130D01*
X153940535Y-9088511D01*
X154035773Y-9040892D01*
X154131011Y-8945654D01*
X154178630Y-8802797D01*
X154178630Y-8564702D01*
X154273869Y-9326607D02*
X154273869Y-10088511D01*
X153178630Y-10755178D02*
X153178630Y-10564702D01*
X153226250Y-10469464D01*
X153273869Y-10421845D01*
X153416726Y-10326607D01*
X153607202Y-10278988D01*
X153988154Y-10278988D01*
X154083392Y-10326607D01*
X154131011Y-10374226D01*
X154178630Y-10469464D01*
X154178630Y-10659940D01*
X154131011Y-10755178D01*
X154083392Y-10802797D01*
X153988154Y-10850416D01*
X153750059Y-10850416D01*
X153654821Y-10802797D01*
X153607202Y-10755178D01*
X153559583Y-10659940D01*
X153559583Y-10469464D01*
X153607202Y-10374226D01*
X153654821Y-10326607D01*
X153750059Y-10278988D01*
X153858630Y-13231845D02*
X152858630Y-13231845D01*
X153858630Y-13803273D02*
X153287202Y-13374702D01*
X152858630Y-13803273D02*
X153430059Y-13231845D01*
X125397380Y-8564702D02*
X124397380Y-8564702D01*
X124397380Y-8802797D01*
X124445000Y-8945654D01*
X124540238Y-9040892D01*
X124635476Y-9088511D01*
X124825952Y-9136130D01*
X124968809Y-9136130D01*
X125159285Y-9088511D01*
X125254523Y-9040892D01*
X125349761Y-8945654D01*
X125397380Y-8802797D01*
X125397380Y-8564702D01*
X125492619Y-9326607D02*
X125492619Y-10088511D01*
X124397380Y-10802797D02*
X124397380Y-10326607D01*
X124873571Y-10278988D01*
X124825952Y-10326607D01*
X124778333Y-10421845D01*
X124778333Y-10659940D01*
X124825952Y-10755178D01*
X124873571Y-10802797D01*
X124968809Y-10850416D01*
X125206904Y-10850416D01*
X125302142Y-10802797D01*
X125349761Y-10755178D01*
X125397380Y-10659940D01*
X125397380Y-10421845D01*
X125349761Y-10326607D01*
X125302142Y-10278988D01*
X125077380Y-13231845D02*
X124077380Y-13231845D01*
X125077380Y-13803273D02*
X124505952Y-13374702D01*
X124077380Y-13803273D02*
X124648809Y-13231845D01*
X106553630Y-8564702D02*
X105553630Y-8564702D01*
X105553630Y-8802797D01*
X105601250Y-8945654D01*
X105696488Y-9040892D01*
X105791726Y-9088511D01*
X105982202Y-9136130D01*
X106125059Y-9136130D01*
X106315535Y-9088511D01*
X106410773Y-9040892D01*
X106506011Y-8945654D01*
X106553630Y-8802797D01*
X106553630Y-8564702D01*
X106648869Y-9326607D02*
X106648869Y-10088511D01*
X105886964Y-10755178D02*
X106553630Y-10755178D01*
X105506011Y-10517083D02*
X106220297Y-10278988D01*
X106220297Y-10898035D01*
X106233630Y-13231845D02*
X105233630Y-13231845D01*
X106233630Y-13803273D02*
X105662202Y-13374702D01*
X105233630Y-13803273D02*
X105805059Y-13231845D01*
X87297380Y-8564702D02*
X86297380Y-8564702D01*
X86297380Y-8802797D01*
X86345000Y-8945654D01*
X86440238Y-9040892D01*
X86535476Y-9088511D01*
X86725952Y-9136130D01*
X86868809Y-9136130D01*
X87059285Y-9088511D01*
X87154523Y-9040892D01*
X87249761Y-8945654D01*
X87297380Y-8802797D01*
X87297380Y-8564702D01*
X87392619Y-9326607D02*
X87392619Y-10088511D01*
X86297380Y-10231369D02*
X86297380Y-10850416D01*
X86678333Y-10517083D01*
X86678333Y-10659940D01*
X86725952Y-10755178D01*
X86773571Y-10802797D01*
X86868809Y-10850416D01*
X87106904Y-10850416D01*
X87202142Y-10802797D01*
X87249761Y-10755178D01*
X87297380Y-10659940D01*
X87297380Y-10374226D01*
X87249761Y-10278988D01*
X87202142Y-10231369D01*
X86977380Y-13231845D02*
X85977380Y-13231845D01*
X86977380Y-13803273D02*
X86405952Y-13374702D01*
X85977380Y-13803273D02*
X86548809Y-13231845D01*
X68453630Y-8564702D02*
X67453630Y-8564702D01*
X67453630Y-8802797D01*
X67501250Y-8945654D01*
X67596488Y-9040892D01*
X67691726Y-9088511D01*
X67882202Y-9136130D01*
X68025059Y-9136130D01*
X68215535Y-9088511D01*
X68310773Y-9040892D01*
X68406011Y-8945654D01*
X68453630Y-8802797D01*
X68453630Y-8564702D01*
X68548869Y-9326607D02*
X68548869Y-10088511D01*
X67548869Y-10278988D02*
X67501250Y-10326607D01*
X67453630Y-10421845D01*
X67453630Y-10659940D01*
X67501250Y-10755178D01*
X67548869Y-10802797D01*
X67644107Y-10850416D01*
X67739345Y-10850416D01*
X67882202Y-10802797D01*
X68453630Y-10231369D01*
X68453630Y-10850416D01*
X68133630Y-13231845D02*
X67133630Y-13231845D01*
X68133630Y-13803273D02*
X67562202Y-13374702D01*
X67133630Y-13803273D02*
X67705059Y-13231845D01*
X49197380Y-8564702D02*
X48197380Y-8564702D01*
X48197380Y-8802797D01*
X48245000Y-8945654D01*
X48340238Y-9040892D01*
X48435476Y-9088511D01*
X48625952Y-9136130D01*
X48768809Y-9136130D01*
X48959285Y-9088511D01*
X49054523Y-9040892D01*
X49149761Y-8945654D01*
X49197380Y-8802797D01*
X49197380Y-8564702D01*
X49292619Y-9326607D02*
X49292619Y-10088511D01*
X49197380Y-10850416D02*
X49197380Y-10278988D01*
X49197380Y-10564702D02*
X48197380Y-10564702D01*
X48340238Y-10469464D01*
X48435476Y-10374226D01*
X48483095Y-10278988D01*
X48877380Y-13231845D02*
X47877380Y-13231845D01*
X48877380Y-13803273D02*
X48305952Y-13374702D01*
X47877380Y-13803273D02*
X48448809Y-13231845D01*
X30147380Y-8564702D02*
X29147380Y-8564702D01*
X29147380Y-8802797D01*
X29195000Y-8945654D01*
X29290238Y-9040892D01*
X29385476Y-9088511D01*
X29575952Y-9136130D01*
X29718809Y-9136130D01*
X29909285Y-9088511D01*
X30004523Y-9040892D01*
X30099761Y-8945654D01*
X30147380Y-8802797D01*
X30147380Y-8564702D01*
X30242619Y-9326607D02*
X30242619Y-10088511D01*
X29147380Y-10517083D02*
X29147380Y-10612321D01*
X29195000Y-10707559D01*
X29242619Y-10755178D01*
X29337857Y-10802797D01*
X29528333Y-10850416D01*
X29766428Y-10850416D01*
X29956904Y-10802797D01*
X30052142Y-10755178D01*
X30099761Y-10707559D01*
X30147380Y-10612321D01*
X30147380Y-10517083D01*
X30099761Y-10421845D01*
X30052142Y-10374226D01*
X29956904Y-10326607D01*
X29766428Y-10278988D01*
X29528333Y-10278988D01*
X29337857Y-10326607D01*
X29242619Y-10374226D01*
X29195000Y-10421845D01*
X29147380Y-10517083D01*
X29827380Y-13231845D02*
X28827380Y-13231845D01*
X29827380Y-13803273D02*
X29255952Y-13374702D01*
X28827380Y-13803273D02*
X29398809Y-13231845D01*
M02*
