M48
; DRILL file {KiCad (5.1.4-0)} date Thursday, August 11, 2022 at 05:03:24 PM
; FORMAT={-:-/ absolute / inch / decimal}
; #@! TF.CreationDate,2022-08-11T17:03:24-05:00
; #@! TF.GenerationSoftware,Kicad,Pcbnew,(5.1.4-0)
; #@! TF.FileFunction,Plated,1,2,PTH
FMAT,2
INCH
T1C0.0157
T2C0.0315
T3C0.0430
T4C0.0579
T5C0.0866
%
G90
G05
T1
X0.875Y-2.0
X1.25Y-2.0
T2
X3.8981Y-1.5947
X3.8981Y-1.8947
X4.0856Y-0.2312
X4.0856Y-0.5312
X3.1481Y-1.5947
X3.1481Y-1.8947
X3.3356Y-0.2
X3.3356Y-0.5
X2.9606Y-1.1447
X3.5231Y-2.3447
X3.5231Y-2.6447
X3.7106Y-0.8447
X3.7106Y-1.1447
X2.9606Y-0.8447
X2.0938Y-0.95
X2.0938Y-1.25
X2.5856Y-0.2
X2.5856Y-0.5
X2.3981Y-1.5947
X2.3981Y-1.8947
X0.7106Y-1.5947
X0.7106Y-1.8947
X3.3356Y-3.3947
X2.3438Y-3.2312
X2.3438Y-3.5312
X2.7731Y-2.3447
X2.7731Y-2.6447
X0.7106Y-2.3447
X0.7106Y-2.6447
X0.3563Y-0.6562
X0.6562Y-0.6562
X5.6562Y-2.0938
X5.9562Y-2.0938
X1.8356Y-0.2
X1.8356Y-0.5
X3.3356Y-3.0947
X0.6875Y-0.1875
X4.6481Y-1.5947
X4.6481Y-1.8947
X4.2731Y-2.3447
X4.2731Y-2.6447
X0.6875Y-0.4875
X4.2731Y-3.3947
X5.8438Y-0.5625
X6.0312Y-2.8125
X6.3312Y-2.8125
X5.3981Y-1.5947
X5.3981Y-1.8947
X5.4688Y-1.3438
X5.7687Y-1.3438
X5.2106Y-3.0947
X5.2106Y-3.3947
X4.2731Y-3.0947
X5.7731Y-2.3447
X5.7731Y-2.6447
X5.2106Y-0.8447
X5.2106Y-1.1447
X6.1437Y-0.5625
X5.5856Y-0.2
X5.5856Y-0.5
X5.0231Y-2.3447
X5.0231Y-2.6447
X4.4606Y-0.8447
X4.4606Y-1.1447
X4.8356Y-0.2312
X4.8356Y-0.5312
X5.5625Y-3.5938
X5.8625Y-3.5938
T3
X0.1687Y-0.825
X0.1687Y-1.425
X0.2687Y-0.825
X0.2687Y-1.425
X0.3687Y-0.825
X0.3687Y-1.425
X0.4688Y-0.825
X0.4688Y-1.425
X0.5687Y-0.825
X0.5687Y-1.425
X0.6687Y-0.825
X0.6687Y-1.425
X0.7687Y-0.825
X0.7687Y-1.425
X0.8688Y-0.825
X0.8688Y-1.425
X0.9688Y-0.825
X0.9688Y-1.425
X1.0687Y-0.825
X1.0687Y-0.925
X1.0687Y-1.025
X1.0687Y-1.125
X1.0687Y-1.425
X1.1687Y-0.825
X1.1687Y-1.425
X1.2688Y-0.825
X1.2688Y-1.425
T4
X1.6312Y-1.775
X1.8812Y-1.675
X5.1Y-0.275
X5.35Y-0.175
X4.1625Y-1.775
X4.4125Y-1.675
X4.35Y-0.275
X4.6Y-0.175
X0.225Y-0.275
X0.475Y-0.175
X3.7875Y-2.525
X4.0375Y-2.425
X3.975Y-1.025
X4.225Y-0.925
X3.225Y-1.025
X3.475Y-0.925
X1.8187Y-2.525
X2.0688Y-2.425
X3.6938Y-3.275
X3.9438Y-3.175
X3.4125Y-1.775
X3.0375Y-2.525
X3.2875Y-2.425
X2.725Y-0.925
X2.6625Y-1.775
X2.9125Y-1.675
X2.475Y-1.025
X0.225Y-2.525
X0.475Y-2.425
X3.6Y-0.275
X2.7563Y-3.275
X3.0063Y-3.175
X3.6625Y-1.675
X3.85Y-0.175
X2.85Y-0.275
X1.8187Y-3.275
X2.0688Y-3.175
X3.1Y-0.175
X1.5375Y-1.025
X5.1625Y-1.675
X1.7875Y-0.925
X5.5687Y-3.275
X5.8187Y-3.175
X6.0375Y-2.525
X6.2875Y-2.425
X5.6625Y-1.775
X5.9125Y-1.675
X2.1Y-0.275
X2.35Y-0.175
X0.225Y-1.775
X0.475Y-1.675
X4.9125Y-1.775
X0.225Y-1.025
X0.475Y-0.925
X1.35Y-0.275
X1.6Y-0.175
X5.2875Y-2.525
X5.5375Y-2.425
X5.475Y-1.025
X5.725Y-0.925
X4.6312Y-3.275
X4.8812Y-3.175
X4.5375Y-2.525
X4.7875Y-2.425
X4.725Y-1.025
X4.975Y-0.925
X5.85Y-0.275
X6.1Y-0.175
T5
X2.25Y-0.75
X2.4375Y-3.0
X4.875Y-0.75
X5.0625Y-3.0
T0
M30
