M48
; DRILL file {KiCad (5.1.4-0)} date Thursday, August 11, 2022 at 05:03:24 PM
; FORMAT={-:-/ absolute / inch / decimal}
; #@! TF.CreationDate,2022-08-11T17:03:24-05:00
; #@! TF.GenerationSoftware,Kicad,Pcbnew,(5.1.4-0)
; #@! TF.FileFunction,NonPlated,1,2,NPTH
FMAT,2
INCH
T1C0.0689
T2C0.1570
%
G90
G05
T1
X0.175Y-0.375
X0.575Y-0.375
X3.7375Y-2.625
X4.1375Y-2.625
X5.05Y-0.375
X5.45Y-0.375
X4.0438Y-3.375
X3.575Y-1.125
X1.7688Y-2.625
X4.3Y-0.375
X3.925Y-1.125
X4.325Y-1.125
X4.1125Y-1.875
X4.5125Y-1.875
X4.7Y-0.375
X3.175Y-1.125
X2.1687Y-2.625
X3.6437Y-3.375
X3.3625Y-1.875
X3.7625Y-1.875
X3.1062Y-3.375
X2.7062Y-3.375
X3.55Y-0.375
X3.95Y-0.375
X2.9875Y-2.625
X3.3875Y-2.625
X0.175Y-2.625
X0.575Y-2.625
X1.7688Y-3.375
X2.1687Y-3.375
X2.6125Y-1.875
X3.0125Y-1.875
X2.425Y-1.125
X2.825Y-1.125
X5.6125Y-1.875
X3.2Y-0.375
X1.4875Y-1.125
X1.8875Y-1.125
X5.5187Y-3.375
X5.9188Y-3.375
X6.0125Y-1.875
X2.05Y-0.375
X0.175Y-1.875
X0.575Y-1.875
X4.8625Y-1.875
X5.2625Y-1.875
X2.8Y-0.375
X5.9875Y-2.625
X6.3875Y-2.625
X2.45Y-0.375
X0.175Y-1.125
X0.575Y-1.125
X1.3Y-0.375
X1.7Y-0.375
X6.2Y-0.375
X4.5812Y-3.375
X4.9813Y-3.375
X5.8Y-0.375
X5.2375Y-2.625
X5.6375Y-2.625
X5.425Y-1.125
X5.825Y-1.125
X4.4875Y-2.625
X4.8875Y-2.625
X4.675Y-1.125
X5.075Y-1.125
X1.5813Y-1.875
X1.9812Y-1.875
T2
X5.7188Y-3.375
X6.1875Y-2.625
X5.0625Y-1.875
X1.6875Y-1.125
X2.25Y-0.375
X0.375Y-1.125
X1.5Y-0.375
X1.7812Y-1.875
X4.7812Y-3.375
X4.6875Y-2.625
X4.875Y-1.125
X6.0Y-0.375
X5.4375Y-2.625
X5.625Y-1.125
X0.375Y-0.375
X3.9375Y-2.625
X4.125Y-1.125
X5.25Y-0.375
X1.9688Y-2.625
X4.3125Y-1.875
X0.375Y-1.875
X4.5Y-0.375
X3.375Y-1.125
X3.8438Y-3.375
X3.75Y-0.375
X3.1875Y-2.625
X2.8125Y-1.875
X2.625Y-1.125
X2.9062Y-3.375
X0.375Y-2.625
X3.5625Y-1.875
X3.0Y-0.375
X1.9688Y-3.375
X5.8125Y-1.875
T0
M30
