G04 #@! TF.GenerationSoftware,KiCad,Pcbnew,(5.1.4-0)*
G04 #@! TF.CreationDate,2022-08-11T17:02:43-05:00*
G04 #@! TF.ProjectId,keyboard,6b657962-6f61-4726-942e-6b696361645f,rev?*
G04 #@! TF.SameCoordinates,Original*
G04 #@! TF.FileFunction,Soldermask,Top*
G04 #@! TF.FilePolarity,Negative*
%FSLAX46Y46*%
G04 Gerber Fmt 4.6, Leading zero omitted, Abs format (unit mm)*
G04 Created by KiCad (PCBNEW (5.1.4-0)) date 2022-08-11 17:02:43*
%MOMM*%
%LPD*%
G04 APERTURE LIST*
%ADD10C,0.300000*%
%ADD11C,3.987800*%
%ADD12C,1.750000*%
%ADD13C,1.752600*%
%ADD14O,1.600000X1.600000*%
%ADD15R,1.600000X1.600000*%
G04 APERTURE END LIST*
D10*
X12240773Y-78501785D02*
X12145535Y-78597023D01*
X11859821Y-78692261D01*
X11669345Y-78692261D01*
X11383630Y-78597023D01*
X11193154Y-78406547D01*
X11097916Y-78216071D01*
X11002678Y-77835119D01*
X11002678Y-77549404D01*
X11097916Y-77168452D01*
X11193154Y-76977976D01*
X11383630Y-76787500D01*
X11669345Y-76692261D01*
X11859821Y-76692261D01*
X12145535Y-76787500D01*
X12240773Y-76882738D01*
X13764583Y-77644642D02*
X14050297Y-77739880D01*
X14145535Y-77835119D01*
X14240773Y-78025595D01*
X14240773Y-78311309D01*
X14145535Y-78501785D01*
X14050297Y-78597023D01*
X13859821Y-78692261D01*
X13097916Y-78692261D01*
X13097916Y-76692261D01*
X13764583Y-76692261D01*
X13955059Y-76787500D01*
X14050297Y-76882738D01*
X14145535Y-77073214D01*
X14145535Y-77263690D01*
X14050297Y-77454166D01*
X13955059Y-77549404D01*
X13764583Y-77644642D01*
X13097916Y-77644642D01*
X14907440Y-76692261D02*
X16240773Y-76692261D01*
X15383630Y-78692261D01*
X17383630Y-76692261D02*
X17574107Y-76692261D01*
X17764583Y-76787500D01*
X17859821Y-76882738D01*
X17955059Y-77073214D01*
X18050297Y-77454166D01*
X18050297Y-77930357D01*
X17955059Y-78311309D01*
X17859821Y-78501785D01*
X17764583Y-78597023D01*
X17574107Y-78692261D01*
X17383630Y-78692261D01*
X17193154Y-78597023D01*
X17097916Y-78501785D01*
X17002678Y-78311309D01*
X16907440Y-77930357D01*
X16907440Y-77454166D01*
X17002678Y-77073214D01*
X17097916Y-76882738D01*
X17193154Y-76787500D01*
X17383630Y-76692261D01*
X18812202Y-78597023D02*
X19097916Y-78692261D01*
X19574107Y-78692261D01*
X19764583Y-78597023D01*
X19859821Y-78501785D01*
X19955059Y-78311309D01*
X19955059Y-78120833D01*
X19859821Y-77930357D01*
X19764583Y-77835119D01*
X19574107Y-77739880D01*
X19193154Y-77644642D01*
X19002678Y-77549404D01*
X18907440Y-77454166D01*
X18812202Y-77263690D01*
X18812202Y-77073214D01*
X18907440Y-76882738D01*
X19002678Y-76787500D01*
X19193154Y-76692261D01*
X19669345Y-76692261D01*
X19955059Y-76787500D01*
X20812202Y-77930357D02*
X22336011Y-77930357D01*
X24240773Y-78692261D02*
X23288392Y-78692261D01*
X23288392Y-76692261D01*
X26240773Y-77358928D02*
X26716964Y-78692261D01*
X27193154Y-77358928D01*
X28336011Y-76692261D02*
X28526488Y-76692261D01*
X28716964Y-76787500D01*
X28812202Y-76882738D01*
X28907440Y-77073214D01*
X29002678Y-77454166D01*
X29002678Y-77930357D01*
X28907440Y-78311309D01*
X28812202Y-78501785D01*
X28716964Y-78597023D01*
X28526488Y-78692261D01*
X28336011Y-78692261D01*
X28145535Y-78597023D01*
X28050297Y-78501785D01*
X27955059Y-78311309D01*
X27859821Y-77930357D01*
X27859821Y-77454166D01*
X27955059Y-77073214D01*
X28050297Y-76882738D01*
X28145535Y-76787500D01*
X28336011Y-76692261D01*
X29859821Y-78501785D02*
X29955059Y-78597023D01*
X29859821Y-78692261D01*
X29764583Y-78597023D01*
X29859821Y-78501785D01*
X29859821Y-78692261D01*
X31859821Y-78692261D02*
X30716964Y-78692261D01*
X31288392Y-78692261D02*
X31288392Y-76692261D01*
X31097916Y-76977976D01*
X30907440Y-77168452D01*
X30716964Y-77263690D01*
D11*
X50006250Y-66675000D03*
D12*
X44926250Y-66675000D03*
X55086250Y-66675000D03*
D11*
X45243750Y-47625000D03*
D12*
X40163750Y-47625000D03*
X50323750Y-47625000D03*
D11*
X9525000Y-9525000D03*
D12*
X4445000Y-9525000D03*
X14605000Y-9525000D03*
D13*
X4286250Y-20955000D03*
X6826250Y-20955000D03*
X9366250Y-20955000D03*
X11906250Y-20955000D03*
X14446250Y-20955000D03*
X16986250Y-20955000D03*
X19526250Y-20955000D03*
X22066250Y-20955000D03*
X24606250Y-20955000D03*
X27146250Y-20955000D03*
X29686250Y-20955000D03*
X32226250Y-36195000D03*
X29686250Y-36195000D03*
X27146250Y-36195000D03*
X24606250Y-36195000D03*
X22066250Y-36195000D03*
X19526250Y-36195000D03*
X16986250Y-36195000D03*
X14446250Y-36195000D03*
X11906250Y-36195000D03*
X9366250Y-36195000D03*
X6826250Y-36195000D03*
X32226250Y-20955000D03*
X4286250Y-36195000D03*
X27146250Y-23495000D03*
X27146250Y-26035000D03*
X27146250Y-28575000D03*
D11*
X145256250Y-85725000D03*
D12*
X140176250Y-85725000D03*
X150336250Y-85725000D03*
D11*
X121443750Y-85725000D03*
D12*
X116363750Y-85725000D03*
X126523750Y-85725000D03*
D11*
X97631250Y-85725000D03*
D12*
X92551250Y-85725000D03*
X102711250Y-85725000D03*
D11*
X73818750Y-85725000D03*
D12*
X68738750Y-85725000D03*
X78898750Y-85725000D03*
D11*
X50006250Y-85725000D03*
D12*
X44926250Y-85725000D03*
X55086250Y-85725000D03*
D11*
X157162500Y-66675000D03*
D12*
X152082500Y-66675000D03*
X162242500Y-66675000D03*
D11*
X138112500Y-66675000D03*
D12*
X133032500Y-66675000D03*
X143192500Y-66675000D03*
D11*
X119062500Y-66675000D03*
D12*
X113982500Y-66675000D03*
X124142500Y-66675000D03*
D11*
X100012500Y-66675000D03*
D12*
X94932500Y-66675000D03*
X105092500Y-66675000D03*
D11*
X80962500Y-66675000D03*
D12*
X75882500Y-66675000D03*
X86042500Y-66675000D03*
D11*
X9525000Y-66675000D03*
D12*
X4445000Y-66675000D03*
X14605000Y-66675000D03*
D11*
X147637500Y-47625000D03*
D12*
X142557500Y-47625000D03*
X152717500Y-47625000D03*
D11*
X128587500Y-47625000D03*
D12*
X123507500Y-47625000D03*
X133667500Y-47625000D03*
D11*
X109537500Y-47625000D03*
D12*
X104457500Y-47625000D03*
X114617500Y-47625000D03*
D11*
X90487500Y-47625000D03*
D12*
X85407500Y-47625000D03*
X95567500Y-47625000D03*
D11*
X71437500Y-47625000D03*
D12*
X66357500Y-47625000D03*
X76517500Y-47625000D03*
D11*
X9525000Y-47625000D03*
D12*
X4445000Y-47625000D03*
X14605000Y-47625000D03*
D11*
X142875000Y-28575000D03*
D12*
X137795000Y-28575000D03*
X147955000Y-28575000D03*
D11*
X123825000Y-28575000D03*
D12*
X118745000Y-28575000D03*
X128905000Y-28575000D03*
D11*
X104775000Y-28575000D03*
D12*
X99695000Y-28575000D03*
X109855000Y-28575000D03*
D11*
X85725000Y-28575000D03*
D12*
X80645000Y-28575000D03*
X90805000Y-28575000D03*
D11*
X66675000Y-28575000D03*
D12*
X61595000Y-28575000D03*
X71755000Y-28575000D03*
D11*
X42862500Y-28575000D03*
D12*
X37782500Y-28575000D03*
X47942500Y-28575000D03*
D11*
X9525000Y-28575000D03*
D12*
X4445000Y-28575000D03*
X14605000Y-28575000D03*
D11*
X152400000Y-9525000D03*
D12*
X147320000Y-9525000D03*
X157480000Y-9525000D03*
D11*
X133350000Y-9525000D03*
D12*
X128270000Y-9525000D03*
X138430000Y-9525000D03*
D11*
X114300000Y-9525000D03*
D12*
X109220000Y-9525000D03*
X119380000Y-9525000D03*
D11*
X95250000Y-9525000D03*
D12*
X90170000Y-9525000D03*
X100330000Y-9525000D03*
D11*
X76200000Y-9525000D03*
D12*
X71120000Y-9525000D03*
X81280000Y-9525000D03*
D11*
X57150000Y-9525000D03*
D12*
X52070000Y-9525000D03*
X62230000Y-9525000D03*
D11*
X38100000Y-9525000D03*
D12*
X33020000Y-9525000D03*
X43180000Y-9525000D03*
D14*
X148907500Y-91281250D03*
D15*
X141287500Y-91281250D03*
D14*
X132350000Y-78605000D03*
D15*
X132350000Y-86225000D03*
D14*
X108537500Y-78605000D03*
D15*
X108537500Y-86225000D03*
D14*
X84725000Y-78605000D03*
D15*
X84725000Y-86225000D03*
D14*
X59531250Y-82073750D03*
D15*
X59531250Y-89693750D03*
D14*
X160813750Y-71437500D03*
D15*
X153193750Y-71437500D03*
D14*
X146637500Y-59555000D03*
D15*
X146637500Y-67175000D03*
D14*
X127587500Y-59555000D03*
D15*
X127587500Y-67175000D03*
D14*
X108537500Y-59555000D03*
D15*
X108537500Y-67175000D03*
D14*
X89487500Y-59555000D03*
D15*
X89487500Y-67175000D03*
D14*
X70437500Y-59555000D03*
D15*
X70437500Y-67175000D03*
D14*
X18050000Y-59555000D03*
D15*
X18050000Y-67175000D03*
D14*
X151288750Y-53181250D03*
D15*
X143668750Y-53181250D03*
D14*
X137112500Y-40505000D03*
D15*
X137112500Y-48125000D03*
D14*
X118062500Y-40505000D03*
D15*
X118062500Y-48125000D03*
D14*
X99012500Y-40505000D03*
D15*
X99012500Y-48125000D03*
D14*
X79962500Y-40505000D03*
D15*
X79962500Y-48125000D03*
D14*
X60912500Y-40505000D03*
D15*
X60912500Y-48125000D03*
D14*
X18050000Y-40505000D03*
D15*
X18050000Y-48125000D03*
D14*
X146526250Y-34131250D03*
D15*
X138906250Y-34131250D03*
D14*
X132350000Y-21455000D03*
D15*
X132350000Y-29075000D03*
D14*
X113300000Y-21455000D03*
D15*
X113300000Y-29075000D03*
D14*
X94250000Y-21455000D03*
D15*
X94250000Y-29075000D03*
D14*
X75200000Y-21455000D03*
D15*
X75200000Y-29075000D03*
D14*
X53181250Y-24130000D03*
D15*
X53181250Y-31750000D03*
D14*
X9048750Y-16668750D03*
D15*
X16668750Y-16668750D03*
D14*
X156051250Y-14287500D03*
D15*
X148431250Y-14287500D03*
D14*
X141875000Y-5080000D03*
D15*
X141875000Y-12700000D03*
D14*
X122825000Y-5873750D03*
D15*
X122825000Y-13493750D03*
D14*
X103775000Y-5873750D03*
D15*
X103775000Y-13493750D03*
D14*
X84725000Y-5080000D03*
D15*
X84725000Y-12700000D03*
D14*
X65675000Y-5080000D03*
D15*
X65675000Y-12700000D03*
D14*
X46625000Y-5080000D03*
D15*
X46625000Y-12700000D03*
D14*
X17462500Y-12382500D03*
D15*
X17462500Y-4762500D03*
M02*
