G04 #@! TF.GenerationSoftware,KiCad,Pcbnew,(5.1.4-0)*
G04 #@! TF.CreationDate,2022-08-11T17:02:43-05:00*
G04 #@! TF.ProjectId,keyboard,6b657962-6f61-4726-942e-6b696361645f,rev?*
G04 #@! TF.SameCoordinates,Original*
G04 #@! TF.FileFunction,Legend,Bot*
G04 #@! TF.FilePolarity,Positive*
%FSLAX46Y46*%
G04 Gerber Fmt 4.6, Leading zero omitted, Abs format (unit mm)*
G04 Created by KiCad (PCBNEW (5.1.4-0)) date 2022-08-11 17:02:43*
%MOMM*%
%LPD*%
G04 APERTURE LIST*
%ADD10C,0.381000*%
%ADD11C,0.120000*%
%ADD12C,0.300000*%
%ADD13C,0.150000*%
G04 APERTURE END LIST*
D10*
X476250Y-19685000D02*
X3016250Y-19685000D01*
X476250Y-37465000D02*
X476250Y-19685000D01*
X3016250Y-37465000D02*
X476250Y-37465000D01*
X33496250Y-37465000D02*
X3016250Y-37465000D01*
X33496250Y-19685000D02*
X33496250Y-37465000D01*
X3016250Y-19685000D02*
X33496250Y-19685000D01*
D11*
X143577500Y-92401250D02*
X143577500Y-90161250D01*
X143817500Y-92401250D02*
X143817500Y-90161250D01*
X143697500Y-92401250D02*
X143697500Y-90161250D01*
X147867500Y-91281250D02*
X147217500Y-91281250D01*
X142327500Y-91281250D02*
X142977500Y-91281250D01*
X147217500Y-92401250D02*
X142977500Y-92401250D01*
X147217500Y-90161250D02*
X147217500Y-92401250D01*
X142977500Y-90161250D02*
X147217500Y-90161250D01*
X142977500Y-92401250D02*
X142977500Y-90161250D01*
X133470000Y-83935000D02*
X131230000Y-83935000D01*
X133470000Y-83695000D02*
X131230000Y-83695000D01*
X133470000Y-83815000D02*
X131230000Y-83815000D01*
X132350000Y-79645000D02*
X132350000Y-80295000D01*
X132350000Y-85185000D02*
X132350000Y-84535000D01*
X133470000Y-80295000D02*
X133470000Y-84535000D01*
X131230000Y-80295000D02*
X133470000Y-80295000D01*
X131230000Y-84535000D02*
X131230000Y-80295000D01*
X133470000Y-84535000D02*
X131230000Y-84535000D01*
X109657500Y-83935000D02*
X107417500Y-83935000D01*
X109657500Y-83695000D02*
X107417500Y-83695000D01*
X109657500Y-83815000D02*
X107417500Y-83815000D01*
X108537500Y-79645000D02*
X108537500Y-80295000D01*
X108537500Y-85185000D02*
X108537500Y-84535000D01*
X109657500Y-80295000D02*
X109657500Y-84535000D01*
X107417500Y-80295000D02*
X109657500Y-80295000D01*
X107417500Y-84535000D02*
X107417500Y-80295000D01*
X109657500Y-84535000D02*
X107417500Y-84535000D01*
X85845000Y-83935000D02*
X83605000Y-83935000D01*
X85845000Y-83695000D02*
X83605000Y-83695000D01*
X85845000Y-83815000D02*
X83605000Y-83815000D01*
X84725000Y-79645000D02*
X84725000Y-80295000D01*
X84725000Y-85185000D02*
X84725000Y-84535000D01*
X85845000Y-80295000D02*
X85845000Y-84535000D01*
X83605000Y-80295000D02*
X85845000Y-80295000D01*
X83605000Y-84535000D02*
X83605000Y-80295000D01*
X85845000Y-84535000D02*
X83605000Y-84535000D01*
X60651250Y-87403750D02*
X58411250Y-87403750D01*
X60651250Y-87163750D02*
X58411250Y-87163750D01*
X60651250Y-87283750D02*
X58411250Y-87283750D01*
X59531250Y-83113750D02*
X59531250Y-83763750D01*
X59531250Y-88653750D02*
X59531250Y-88003750D01*
X60651250Y-83763750D02*
X60651250Y-88003750D01*
X58411250Y-83763750D02*
X60651250Y-83763750D01*
X58411250Y-88003750D02*
X58411250Y-83763750D01*
X60651250Y-88003750D02*
X58411250Y-88003750D01*
X155483750Y-72557500D02*
X155483750Y-70317500D01*
X155723750Y-72557500D02*
X155723750Y-70317500D01*
X155603750Y-72557500D02*
X155603750Y-70317500D01*
X159773750Y-71437500D02*
X159123750Y-71437500D01*
X154233750Y-71437500D02*
X154883750Y-71437500D01*
X159123750Y-72557500D02*
X154883750Y-72557500D01*
X159123750Y-70317500D02*
X159123750Y-72557500D01*
X154883750Y-70317500D02*
X159123750Y-70317500D01*
X154883750Y-72557500D02*
X154883750Y-70317500D01*
X147757500Y-64885000D02*
X145517500Y-64885000D01*
X147757500Y-64645000D02*
X145517500Y-64645000D01*
X147757500Y-64765000D02*
X145517500Y-64765000D01*
X146637500Y-60595000D02*
X146637500Y-61245000D01*
X146637500Y-66135000D02*
X146637500Y-65485000D01*
X147757500Y-61245000D02*
X147757500Y-65485000D01*
X145517500Y-61245000D02*
X147757500Y-61245000D01*
X145517500Y-65485000D02*
X145517500Y-61245000D01*
X147757500Y-65485000D02*
X145517500Y-65485000D01*
X128707500Y-64885000D02*
X126467500Y-64885000D01*
X128707500Y-64645000D02*
X126467500Y-64645000D01*
X128707500Y-64765000D02*
X126467500Y-64765000D01*
X127587500Y-60595000D02*
X127587500Y-61245000D01*
X127587500Y-66135000D02*
X127587500Y-65485000D01*
X128707500Y-61245000D02*
X128707500Y-65485000D01*
X126467500Y-61245000D02*
X128707500Y-61245000D01*
X126467500Y-65485000D02*
X126467500Y-61245000D01*
X128707500Y-65485000D02*
X126467500Y-65485000D01*
X109657500Y-64885000D02*
X107417500Y-64885000D01*
X109657500Y-64645000D02*
X107417500Y-64645000D01*
X109657500Y-64765000D02*
X107417500Y-64765000D01*
X108537500Y-60595000D02*
X108537500Y-61245000D01*
X108537500Y-66135000D02*
X108537500Y-65485000D01*
X109657500Y-61245000D02*
X109657500Y-65485000D01*
X107417500Y-61245000D02*
X109657500Y-61245000D01*
X107417500Y-65485000D02*
X107417500Y-61245000D01*
X109657500Y-65485000D02*
X107417500Y-65485000D01*
X90607500Y-64885000D02*
X88367500Y-64885000D01*
X90607500Y-64645000D02*
X88367500Y-64645000D01*
X90607500Y-64765000D02*
X88367500Y-64765000D01*
X89487500Y-60595000D02*
X89487500Y-61245000D01*
X89487500Y-66135000D02*
X89487500Y-65485000D01*
X90607500Y-61245000D02*
X90607500Y-65485000D01*
X88367500Y-61245000D02*
X90607500Y-61245000D01*
X88367500Y-65485000D02*
X88367500Y-61245000D01*
X90607500Y-65485000D02*
X88367500Y-65485000D01*
X71557500Y-64885000D02*
X69317500Y-64885000D01*
X71557500Y-64645000D02*
X69317500Y-64645000D01*
X71557500Y-64765000D02*
X69317500Y-64765000D01*
X70437500Y-60595000D02*
X70437500Y-61245000D01*
X70437500Y-66135000D02*
X70437500Y-65485000D01*
X71557500Y-61245000D02*
X71557500Y-65485000D01*
X69317500Y-61245000D02*
X71557500Y-61245000D01*
X69317500Y-65485000D02*
X69317500Y-61245000D01*
X71557500Y-65485000D02*
X69317500Y-65485000D01*
X19170000Y-64885000D02*
X16930000Y-64885000D01*
X19170000Y-64645000D02*
X16930000Y-64645000D01*
X19170000Y-64765000D02*
X16930000Y-64765000D01*
X18050000Y-60595000D02*
X18050000Y-61245000D01*
X18050000Y-66135000D02*
X18050000Y-65485000D01*
X19170000Y-61245000D02*
X19170000Y-65485000D01*
X16930000Y-61245000D02*
X19170000Y-61245000D01*
X16930000Y-65485000D02*
X16930000Y-61245000D01*
X19170000Y-65485000D02*
X16930000Y-65485000D01*
X145958750Y-54301250D02*
X145958750Y-52061250D01*
X146198750Y-54301250D02*
X146198750Y-52061250D01*
X146078750Y-54301250D02*
X146078750Y-52061250D01*
X150248750Y-53181250D02*
X149598750Y-53181250D01*
X144708750Y-53181250D02*
X145358750Y-53181250D01*
X149598750Y-54301250D02*
X145358750Y-54301250D01*
X149598750Y-52061250D02*
X149598750Y-54301250D01*
X145358750Y-52061250D02*
X149598750Y-52061250D01*
X145358750Y-54301250D02*
X145358750Y-52061250D01*
X138232500Y-45835000D02*
X135992500Y-45835000D01*
X138232500Y-45595000D02*
X135992500Y-45595000D01*
X138232500Y-45715000D02*
X135992500Y-45715000D01*
X137112500Y-41545000D02*
X137112500Y-42195000D01*
X137112500Y-47085000D02*
X137112500Y-46435000D01*
X138232500Y-42195000D02*
X138232500Y-46435000D01*
X135992500Y-42195000D02*
X138232500Y-42195000D01*
X135992500Y-46435000D02*
X135992500Y-42195000D01*
X138232500Y-46435000D02*
X135992500Y-46435000D01*
X119182500Y-45835000D02*
X116942500Y-45835000D01*
X119182500Y-45595000D02*
X116942500Y-45595000D01*
X119182500Y-45715000D02*
X116942500Y-45715000D01*
X118062500Y-41545000D02*
X118062500Y-42195000D01*
X118062500Y-47085000D02*
X118062500Y-46435000D01*
X119182500Y-42195000D02*
X119182500Y-46435000D01*
X116942500Y-42195000D02*
X119182500Y-42195000D01*
X116942500Y-46435000D02*
X116942500Y-42195000D01*
X119182500Y-46435000D02*
X116942500Y-46435000D01*
X100132500Y-45835000D02*
X97892500Y-45835000D01*
X100132500Y-45595000D02*
X97892500Y-45595000D01*
X100132500Y-45715000D02*
X97892500Y-45715000D01*
X99012500Y-41545000D02*
X99012500Y-42195000D01*
X99012500Y-47085000D02*
X99012500Y-46435000D01*
X100132500Y-42195000D02*
X100132500Y-46435000D01*
X97892500Y-42195000D02*
X100132500Y-42195000D01*
X97892500Y-46435000D02*
X97892500Y-42195000D01*
X100132500Y-46435000D02*
X97892500Y-46435000D01*
X81082500Y-45835000D02*
X78842500Y-45835000D01*
X81082500Y-45595000D02*
X78842500Y-45595000D01*
X81082500Y-45715000D02*
X78842500Y-45715000D01*
X79962500Y-41545000D02*
X79962500Y-42195000D01*
X79962500Y-47085000D02*
X79962500Y-46435000D01*
X81082500Y-42195000D02*
X81082500Y-46435000D01*
X78842500Y-42195000D02*
X81082500Y-42195000D01*
X78842500Y-46435000D02*
X78842500Y-42195000D01*
X81082500Y-46435000D02*
X78842500Y-46435000D01*
X62032500Y-45835000D02*
X59792500Y-45835000D01*
X62032500Y-45595000D02*
X59792500Y-45595000D01*
X62032500Y-45715000D02*
X59792500Y-45715000D01*
X60912500Y-41545000D02*
X60912500Y-42195000D01*
X60912500Y-47085000D02*
X60912500Y-46435000D01*
X62032500Y-42195000D02*
X62032500Y-46435000D01*
X59792500Y-42195000D02*
X62032500Y-42195000D01*
X59792500Y-46435000D02*
X59792500Y-42195000D01*
X62032500Y-46435000D02*
X59792500Y-46435000D01*
X19170000Y-45835000D02*
X16930000Y-45835000D01*
X19170000Y-45595000D02*
X16930000Y-45595000D01*
X19170000Y-45715000D02*
X16930000Y-45715000D01*
X18050000Y-41545000D02*
X18050000Y-42195000D01*
X18050000Y-47085000D02*
X18050000Y-46435000D01*
X19170000Y-42195000D02*
X19170000Y-46435000D01*
X16930000Y-42195000D02*
X19170000Y-42195000D01*
X16930000Y-46435000D02*
X16930000Y-42195000D01*
X19170000Y-46435000D02*
X16930000Y-46435000D01*
X141196250Y-35251250D02*
X141196250Y-33011250D01*
X141436250Y-35251250D02*
X141436250Y-33011250D01*
X141316250Y-35251250D02*
X141316250Y-33011250D01*
X145486250Y-34131250D02*
X144836250Y-34131250D01*
X139946250Y-34131250D02*
X140596250Y-34131250D01*
X144836250Y-35251250D02*
X140596250Y-35251250D01*
X144836250Y-33011250D02*
X144836250Y-35251250D01*
X140596250Y-33011250D02*
X144836250Y-33011250D01*
X140596250Y-35251250D02*
X140596250Y-33011250D01*
X133470000Y-26785000D02*
X131230000Y-26785000D01*
X133470000Y-26545000D02*
X131230000Y-26545000D01*
X133470000Y-26665000D02*
X131230000Y-26665000D01*
X132350000Y-22495000D02*
X132350000Y-23145000D01*
X132350000Y-28035000D02*
X132350000Y-27385000D01*
X133470000Y-23145000D02*
X133470000Y-27385000D01*
X131230000Y-23145000D02*
X133470000Y-23145000D01*
X131230000Y-27385000D02*
X131230000Y-23145000D01*
X133470000Y-27385000D02*
X131230000Y-27385000D01*
X114420000Y-26785000D02*
X112180000Y-26785000D01*
X114420000Y-26545000D02*
X112180000Y-26545000D01*
X114420000Y-26665000D02*
X112180000Y-26665000D01*
X113300000Y-22495000D02*
X113300000Y-23145000D01*
X113300000Y-28035000D02*
X113300000Y-27385000D01*
X114420000Y-23145000D02*
X114420000Y-27385000D01*
X112180000Y-23145000D02*
X114420000Y-23145000D01*
X112180000Y-27385000D02*
X112180000Y-23145000D01*
X114420000Y-27385000D02*
X112180000Y-27385000D01*
X95370000Y-26785000D02*
X93130000Y-26785000D01*
X95370000Y-26545000D02*
X93130000Y-26545000D01*
X95370000Y-26665000D02*
X93130000Y-26665000D01*
X94250000Y-22495000D02*
X94250000Y-23145000D01*
X94250000Y-28035000D02*
X94250000Y-27385000D01*
X95370000Y-23145000D02*
X95370000Y-27385000D01*
X93130000Y-23145000D02*
X95370000Y-23145000D01*
X93130000Y-27385000D02*
X93130000Y-23145000D01*
X95370000Y-27385000D02*
X93130000Y-27385000D01*
X76320000Y-26785000D02*
X74080000Y-26785000D01*
X76320000Y-26545000D02*
X74080000Y-26545000D01*
X76320000Y-26665000D02*
X74080000Y-26665000D01*
X75200000Y-22495000D02*
X75200000Y-23145000D01*
X75200000Y-28035000D02*
X75200000Y-27385000D01*
X76320000Y-23145000D02*
X76320000Y-27385000D01*
X74080000Y-23145000D02*
X76320000Y-23145000D01*
X74080000Y-27385000D02*
X74080000Y-23145000D01*
X76320000Y-27385000D02*
X74080000Y-27385000D01*
X54301250Y-29460000D02*
X52061250Y-29460000D01*
X54301250Y-29220000D02*
X52061250Y-29220000D01*
X54301250Y-29340000D02*
X52061250Y-29340000D01*
X53181250Y-25170000D02*
X53181250Y-25820000D01*
X53181250Y-30710000D02*
X53181250Y-30060000D01*
X54301250Y-25820000D02*
X54301250Y-30060000D01*
X52061250Y-25820000D02*
X54301250Y-25820000D01*
X52061250Y-30060000D02*
X52061250Y-25820000D01*
X54301250Y-30060000D02*
X52061250Y-30060000D01*
X14378750Y-15548750D02*
X14378750Y-17788750D01*
X14138750Y-15548750D02*
X14138750Y-17788750D01*
X14258750Y-15548750D02*
X14258750Y-17788750D01*
X10088750Y-16668750D02*
X10738750Y-16668750D01*
X15628750Y-16668750D02*
X14978750Y-16668750D01*
X10738750Y-15548750D02*
X14978750Y-15548750D01*
X10738750Y-17788750D02*
X10738750Y-15548750D01*
X14978750Y-17788750D02*
X10738750Y-17788750D01*
X14978750Y-15548750D02*
X14978750Y-17788750D01*
X150721250Y-15407500D02*
X150721250Y-13167500D01*
X150961250Y-15407500D02*
X150961250Y-13167500D01*
X150841250Y-15407500D02*
X150841250Y-13167500D01*
X155011250Y-14287500D02*
X154361250Y-14287500D01*
X149471250Y-14287500D02*
X150121250Y-14287500D01*
X154361250Y-15407500D02*
X150121250Y-15407500D01*
X154361250Y-13167500D02*
X154361250Y-15407500D01*
X150121250Y-13167500D02*
X154361250Y-13167500D01*
X150121250Y-15407500D02*
X150121250Y-13167500D01*
X142995000Y-10410000D02*
X140755000Y-10410000D01*
X142995000Y-10170000D02*
X140755000Y-10170000D01*
X142995000Y-10290000D02*
X140755000Y-10290000D01*
X141875000Y-6120000D02*
X141875000Y-6770000D01*
X141875000Y-11660000D02*
X141875000Y-11010000D01*
X142995000Y-6770000D02*
X142995000Y-11010000D01*
X140755000Y-6770000D02*
X142995000Y-6770000D01*
X140755000Y-11010000D02*
X140755000Y-6770000D01*
X142995000Y-11010000D02*
X140755000Y-11010000D01*
X123945000Y-11203750D02*
X121705000Y-11203750D01*
X123945000Y-10963750D02*
X121705000Y-10963750D01*
X123945000Y-11083750D02*
X121705000Y-11083750D01*
X122825000Y-6913750D02*
X122825000Y-7563750D01*
X122825000Y-12453750D02*
X122825000Y-11803750D01*
X123945000Y-7563750D02*
X123945000Y-11803750D01*
X121705000Y-7563750D02*
X123945000Y-7563750D01*
X121705000Y-11803750D02*
X121705000Y-7563750D01*
X123945000Y-11803750D02*
X121705000Y-11803750D01*
X104895000Y-11203750D02*
X102655000Y-11203750D01*
X104895000Y-10963750D02*
X102655000Y-10963750D01*
X104895000Y-11083750D02*
X102655000Y-11083750D01*
X103775000Y-6913750D02*
X103775000Y-7563750D01*
X103775000Y-12453750D02*
X103775000Y-11803750D01*
X104895000Y-7563750D02*
X104895000Y-11803750D01*
X102655000Y-7563750D02*
X104895000Y-7563750D01*
X102655000Y-11803750D02*
X102655000Y-7563750D01*
X104895000Y-11803750D02*
X102655000Y-11803750D01*
X85845000Y-10410000D02*
X83605000Y-10410000D01*
X85845000Y-10170000D02*
X83605000Y-10170000D01*
X85845000Y-10290000D02*
X83605000Y-10290000D01*
X84725000Y-6120000D02*
X84725000Y-6770000D01*
X84725000Y-11660000D02*
X84725000Y-11010000D01*
X85845000Y-6770000D02*
X85845000Y-11010000D01*
X83605000Y-6770000D02*
X85845000Y-6770000D01*
X83605000Y-11010000D02*
X83605000Y-6770000D01*
X85845000Y-11010000D02*
X83605000Y-11010000D01*
X66795000Y-10410000D02*
X64555000Y-10410000D01*
X66795000Y-10170000D02*
X64555000Y-10170000D01*
X66795000Y-10290000D02*
X64555000Y-10290000D01*
X65675000Y-6120000D02*
X65675000Y-6770000D01*
X65675000Y-11660000D02*
X65675000Y-11010000D01*
X66795000Y-6770000D02*
X66795000Y-11010000D01*
X64555000Y-6770000D02*
X66795000Y-6770000D01*
X64555000Y-11010000D02*
X64555000Y-6770000D01*
X66795000Y-11010000D02*
X64555000Y-11010000D01*
X47745000Y-10410000D02*
X45505000Y-10410000D01*
X47745000Y-10170000D02*
X45505000Y-10170000D01*
X47745000Y-10290000D02*
X45505000Y-10290000D01*
X46625000Y-6120000D02*
X46625000Y-6770000D01*
X46625000Y-11660000D02*
X46625000Y-11010000D01*
X47745000Y-6770000D02*
X47745000Y-11010000D01*
X45505000Y-6770000D02*
X47745000Y-6770000D01*
X45505000Y-11010000D02*
X45505000Y-6770000D01*
X47745000Y-11010000D02*
X45505000Y-11010000D01*
X16342500Y-7052500D02*
X18582500Y-7052500D01*
X16342500Y-7292500D02*
X18582500Y-7292500D01*
X16342500Y-7172500D02*
X18582500Y-7172500D01*
X17462500Y-11342500D02*
X17462500Y-10692500D01*
X17462500Y-5802500D02*
X17462500Y-6452500D01*
X16342500Y-10692500D02*
X16342500Y-6452500D01*
X18582500Y-10692500D02*
X16342500Y-10692500D01*
X18582500Y-6452500D02*
X18582500Y-10692500D01*
X16342500Y-6452500D02*
X18582500Y-6452500D01*
D12*
X32039678Y-33864714D02*
X31039678Y-33864714D01*
X31896821Y-33864714D02*
X31968250Y-33793285D01*
X32039678Y-33650428D01*
X32039678Y-33436142D01*
X31968250Y-33293285D01*
X31825392Y-33221857D01*
X31039678Y-33221857D01*
X31039678Y-32507571D02*
X32039678Y-32507571D01*
X32539678Y-32507571D02*
X32468250Y-32579000D01*
X32396821Y-32507571D01*
X32468250Y-32436142D01*
X32539678Y-32507571D01*
X32396821Y-32507571D01*
X31111107Y-31150428D02*
X31039678Y-31293285D01*
X31039678Y-31579000D01*
X31111107Y-31721857D01*
X31182535Y-31793285D01*
X31325392Y-31864714D01*
X31753964Y-31864714D01*
X31896821Y-31793285D01*
X31968250Y-31721857D01*
X32039678Y-31579000D01*
X32039678Y-31293285D01*
X31968250Y-31150428D01*
X31111107Y-29936142D02*
X31039678Y-30079000D01*
X31039678Y-30364714D01*
X31111107Y-30507571D01*
X31253964Y-30579000D01*
X31825392Y-30579000D01*
X31968250Y-30507571D01*
X32039678Y-30364714D01*
X32039678Y-30079000D01*
X31968250Y-29936142D01*
X31825392Y-29864714D01*
X31682535Y-29864714D01*
X31539678Y-30579000D01*
X31182535Y-29221857D02*
X31111107Y-29150428D01*
X31039678Y-29221857D01*
X31111107Y-29293285D01*
X31182535Y-29221857D01*
X31039678Y-29221857D01*
X31611107Y-29221857D02*
X32468250Y-29293285D01*
X32539678Y-29221857D01*
X32468250Y-29150428D01*
X31611107Y-29221857D01*
X32539678Y-29221857D01*
X32039678Y-28507571D02*
X31039678Y-28507571D01*
X31896821Y-28507571D02*
X31968250Y-28436142D01*
X32039678Y-28293285D01*
X32039678Y-28079000D01*
X31968250Y-27936142D01*
X31825392Y-27864714D01*
X31039678Y-27864714D01*
X31039678Y-26507571D02*
X31825392Y-26507571D01*
X31968250Y-26579000D01*
X32039678Y-26721857D01*
X32039678Y-27007571D01*
X31968250Y-27150428D01*
X31111107Y-26507571D02*
X31039678Y-26650428D01*
X31039678Y-27007571D01*
X31111107Y-27150428D01*
X31253964Y-27221857D01*
X31396821Y-27221857D01*
X31539678Y-27150428D01*
X31611107Y-27007571D01*
X31611107Y-26650428D01*
X31682535Y-26507571D01*
X32039678Y-25793285D02*
X31039678Y-25793285D01*
X31896821Y-25793285D02*
X31968250Y-25721857D01*
X32039678Y-25579000D01*
X32039678Y-25364714D01*
X31968250Y-25221857D01*
X31825392Y-25150428D01*
X31039678Y-25150428D01*
X31039678Y-24221857D02*
X31111107Y-24364714D01*
X31182535Y-24436142D01*
X31325392Y-24507571D01*
X31753964Y-24507571D01*
X31896821Y-24436142D01*
X31968250Y-24364714D01*
X32039678Y-24221857D01*
X32039678Y-24007571D01*
X31968250Y-23864714D01*
X31896821Y-23793285D01*
X31753964Y-23721857D01*
X31325392Y-23721857D01*
X31182535Y-23793285D01*
X31111107Y-23864714D01*
X31039678Y-24007571D01*
X31039678Y-24221857D01*
D13*
X30124345Y-34912191D02*
X30124345Y-34836000D01*
X30086250Y-34759810D01*
X30048154Y-34721714D01*
X29971964Y-34683619D01*
X29819583Y-34645524D01*
X29629107Y-34645524D01*
X29476726Y-34683619D01*
X29400535Y-34721714D01*
X29362440Y-34759810D01*
X29324345Y-34836000D01*
X29324345Y-34912191D01*
X29362440Y-34988381D01*
X29400535Y-35026476D01*
X29476726Y-35064571D01*
X29629107Y-35102667D01*
X29819583Y-35102667D01*
X29971964Y-35064571D01*
X30048154Y-35026476D01*
X30086250Y-34988381D01*
X30124345Y-34912191D01*
X29324345Y-33883619D02*
X29324345Y-34340762D01*
X29324345Y-34112191D02*
X30124345Y-34112191D01*
X30010059Y-34188381D01*
X29933869Y-34264571D01*
X29895773Y-34340762D01*
X30124345Y-33388381D02*
X30124345Y-33312191D01*
X30086250Y-33236000D01*
X30048154Y-33197905D01*
X29971964Y-33159810D01*
X29819583Y-33121714D01*
X29629107Y-33121714D01*
X29476726Y-33159810D01*
X29400535Y-33197905D01*
X29362440Y-33236000D01*
X29324345Y-33312191D01*
X29324345Y-33388381D01*
X29362440Y-33464571D01*
X29400535Y-33502667D01*
X29476726Y-33540762D01*
X29629107Y-33578857D01*
X29819583Y-33578857D01*
X29971964Y-33540762D01*
X30048154Y-33502667D01*
X30086250Y-33464571D01*
X30124345Y-33388381D01*
X21704345Y-34645524D02*
X21704345Y-35102667D01*
X21704345Y-34874095D02*
X22504345Y-34874095D01*
X22390059Y-34950286D01*
X22313869Y-35026476D01*
X22275773Y-35102667D01*
X21704345Y-33883619D02*
X21704345Y-34340762D01*
X21704345Y-34112191D02*
X22504345Y-34112191D01*
X22390059Y-34188381D01*
X22313869Y-34264571D01*
X22275773Y-34340762D01*
X22504345Y-33159810D02*
X22504345Y-33540762D01*
X22123392Y-33578857D01*
X22161488Y-33540762D01*
X22199583Y-33464571D01*
X22199583Y-33274095D01*
X22161488Y-33197905D01*
X22123392Y-33159810D01*
X22047202Y-33121714D01*
X21856726Y-33121714D01*
X21780535Y-33159810D01*
X21742440Y-33197905D01*
X21704345Y-33274095D01*
X21704345Y-33464571D01*
X21742440Y-33540762D01*
X21780535Y-33578857D01*
X19964345Y-34912191D02*
X19964345Y-34836000D01*
X19926250Y-34759810D01*
X19888154Y-34721714D01*
X19811964Y-34683619D01*
X19659583Y-34645524D01*
X19469107Y-34645524D01*
X19316726Y-34683619D01*
X19240535Y-34721714D01*
X19202440Y-34759810D01*
X19164345Y-34836000D01*
X19164345Y-34912191D01*
X19202440Y-34988381D01*
X19240535Y-35026476D01*
X19316726Y-35064571D01*
X19469107Y-35102667D01*
X19659583Y-35102667D01*
X19811964Y-35064571D01*
X19888154Y-35026476D01*
X19926250Y-34988381D01*
X19964345Y-34912191D01*
X19964345Y-34150286D02*
X19964345Y-34074095D01*
X19926250Y-33997905D01*
X19888154Y-33959810D01*
X19811964Y-33921714D01*
X19659583Y-33883619D01*
X19469107Y-33883619D01*
X19316726Y-33921714D01*
X19240535Y-33959810D01*
X19202440Y-33997905D01*
X19164345Y-34074095D01*
X19164345Y-34150286D01*
X19202440Y-34226476D01*
X19240535Y-34264571D01*
X19316726Y-34302667D01*
X19469107Y-34340762D01*
X19659583Y-34340762D01*
X19811964Y-34302667D01*
X19888154Y-34264571D01*
X19926250Y-34226476D01*
X19964345Y-34150286D01*
X19888154Y-33578857D02*
X19926250Y-33540762D01*
X19964345Y-33464571D01*
X19964345Y-33274095D01*
X19926250Y-33197905D01*
X19888154Y-33159810D01*
X19811964Y-33121714D01*
X19735773Y-33121714D01*
X19621488Y-33159810D01*
X19164345Y-33616952D01*
X19164345Y-33121714D01*
X17424345Y-34912191D02*
X17424345Y-34836000D01*
X17386250Y-34759810D01*
X17348154Y-34721714D01*
X17271964Y-34683619D01*
X17119583Y-34645524D01*
X16929107Y-34645524D01*
X16776726Y-34683619D01*
X16700535Y-34721714D01*
X16662440Y-34759810D01*
X16624345Y-34836000D01*
X16624345Y-34912191D01*
X16662440Y-34988381D01*
X16700535Y-35026476D01*
X16776726Y-35064571D01*
X16929107Y-35102667D01*
X17119583Y-35102667D01*
X17271964Y-35064571D01*
X17348154Y-35026476D01*
X17386250Y-34988381D01*
X17424345Y-34912191D01*
X17348154Y-34340762D02*
X17386250Y-34302667D01*
X17424345Y-34226476D01*
X17424345Y-34036000D01*
X17386250Y-33959810D01*
X17348154Y-33921714D01*
X17271964Y-33883619D01*
X17195773Y-33883619D01*
X17081488Y-33921714D01*
X16624345Y-34378857D01*
X16624345Y-33883619D01*
X16624345Y-33502667D02*
X16624345Y-33350286D01*
X16662440Y-33274095D01*
X16700535Y-33236000D01*
X16814821Y-33159810D01*
X16967202Y-33121714D01*
X17271964Y-33121714D01*
X17348154Y-33159810D01*
X17386250Y-33197905D01*
X17424345Y-33274095D01*
X17424345Y-33426476D01*
X17386250Y-33502667D01*
X17348154Y-33540762D01*
X17271964Y-33578857D01*
X17081488Y-33578857D01*
X17005297Y-33540762D01*
X16967202Y-33502667D01*
X16929107Y-33426476D01*
X16929107Y-33274095D01*
X16967202Y-33197905D01*
X17005297Y-33159810D01*
X17081488Y-33121714D01*
X3924345Y-34601095D02*
X4305297Y-34867762D01*
X3924345Y-35058238D02*
X4724345Y-35058238D01*
X4724345Y-34753476D01*
X4686250Y-34677286D01*
X4648154Y-34639191D01*
X4571964Y-34601095D01*
X4457678Y-34601095D01*
X4381488Y-34639191D01*
X4343392Y-34677286D01*
X4305297Y-34753476D01*
X4305297Y-35058238D01*
X4152916Y-34296334D02*
X4152916Y-33915381D01*
X3924345Y-34372524D02*
X4724345Y-34105857D01*
X3924345Y-33839191D01*
X4724345Y-33648715D02*
X3924345Y-33458238D01*
X4495773Y-33305857D01*
X3924345Y-33153476D01*
X4724345Y-32963000D01*
X7226250Y-34639190D02*
X7264345Y-34715381D01*
X7264345Y-34829667D01*
X7226250Y-34943952D01*
X7150059Y-35020143D01*
X7073869Y-35058238D01*
X6921488Y-35096333D01*
X6807202Y-35096333D01*
X6654821Y-35058238D01*
X6578630Y-35020143D01*
X6502440Y-34943952D01*
X6464345Y-34829667D01*
X6464345Y-34753476D01*
X6502440Y-34639190D01*
X6540535Y-34601095D01*
X6807202Y-34601095D01*
X6807202Y-34753476D01*
X6464345Y-34258238D02*
X7264345Y-34258238D01*
X6464345Y-33801095D01*
X7264345Y-33801095D01*
X6464345Y-33420143D02*
X7264345Y-33420143D01*
X7264345Y-33229667D01*
X7226250Y-33115381D01*
X7150059Y-33039190D01*
X7073869Y-33001095D01*
X6921488Y-32963000D01*
X6807202Y-32963000D01*
X6654821Y-33001095D01*
X6578630Y-33039190D01*
X6502440Y-33115381D01*
X6464345Y-33229667D01*
X6464345Y-33420143D01*
X9004345Y-34601095D02*
X9385297Y-34867761D01*
X9004345Y-35058238D02*
X9804345Y-35058238D01*
X9804345Y-34753476D01*
X9766250Y-34677285D01*
X9728154Y-34639190D01*
X9651964Y-34601095D01*
X9537678Y-34601095D01*
X9461488Y-34639190D01*
X9423392Y-34677285D01*
X9385297Y-34753476D01*
X9385297Y-35058238D01*
X9042440Y-34296333D02*
X9004345Y-34182047D01*
X9004345Y-33991571D01*
X9042440Y-33915380D01*
X9080535Y-33877285D01*
X9156726Y-33839190D01*
X9232916Y-33839190D01*
X9309107Y-33877285D01*
X9347202Y-33915380D01*
X9385297Y-33991571D01*
X9423392Y-34143952D01*
X9461488Y-34220142D01*
X9499583Y-34258238D01*
X9575773Y-34296333D01*
X9651964Y-34296333D01*
X9728154Y-34258238D01*
X9766250Y-34220142D01*
X9804345Y-34143952D01*
X9804345Y-33953476D01*
X9766250Y-33839190D01*
X9804345Y-33610619D02*
X9804345Y-33153476D01*
X9004345Y-33382047D02*
X9804345Y-33382047D01*
X12344345Y-35178857D02*
X11544345Y-34912191D01*
X12344345Y-34645524D01*
X11620535Y-33921714D02*
X11582440Y-33959810D01*
X11544345Y-34074095D01*
X11544345Y-34150286D01*
X11582440Y-34264571D01*
X11658630Y-34340762D01*
X11734821Y-34378857D01*
X11887202Y-34416952D01*
X12001488Y-34416952D01*
X12153869Y-34378857D01*
X12230059Y-34340762D01*
X12306250Y-34264571D01*
X12344345Y-34150286D01*
X12344345Y-34074095D01*
X12306250Y-33959810D01*
X12268154Y-33921714D01*
X11620535Y-33121714D02*
X11582440Y-33159810D01*
X11544345Y-33274095D01*
X11544345Y-33350286D01*
X11582440Y-33464571D01*
X11658630Y-33540762D01*
X11734821Y-33578857D01*
X11887202Y-33616952D01*
X12001488Y-33616952D01*
X12153869Y-33578857D01*
X12230059Y-33540762D01*
X12306250Y-33464571D01*
X12344345Y-33350286D01*
X12344345Y-33274095D01*
X12306250Y-33159810D01*
X12268154Y-33121714D01*
X14884345Y-34912191D02*
X14884345Y-34836000D01*
X14846250Y-34759810D01*
X14808154Y-34721714D01*
X14731964Y-34683619D01*
X14579583Y-34645524D01*
X14389107Y-34645524D01*
X14236726Y-34683619D01*
X14160535Y-34721714D01*
X14122440Y-34759810D01*
X14084345Y-34836000D01*
X14084345Y-34912191D01*
X14122440Y-34988381D01*
X14160535Y-35026476D01*
X14236726Y-35064571D01*
X14389107Y-35102667D01*
X14579583Y-35102667D01*
X14731964Y-35064571D01*
X14808154Y-35026476D01*
X14846250Y-34988381D01*
X14884345Y-34912191D01*
X14884345Y-34378857D02*
X14884345Y-33883619D01*
X14579583Y-34150286D01*
X14579583Y-34036000D01*
X14541488Y-33959810D01*
X14503392Y-33921714D01*
X14427202Y-33883619D01*
X14236726Y-33883619D01*
X14160535Y-33921714D01*
X14122440Y-33959810D01*
X14084345Y-34036000D01*
X14084345Y-34264571D01*
X14122440Y-34340762D01*
X14160535Y-34378857D01*
X14084345Y-33121714D02*
X14084345Y-33578857D01*
X14084345Y-33350286D02*
X14884345Y-33350286D01*
X14770059Y-33426476D01*
X14693869Y-33502667D01*
X14655773Y-33578857D01*
X24244345Y-34645524D02*
X24244345Y-35102667D01*
X24244345Y-34874095D02*
X25044345Y-34874095D01*
X24930059Y-34950286D01*
X24853869Y-35026476D01*
X24815773Y-35102667D01*
X24244345Y-33883619D02*
X24244345Y-34340762D01*
X24244345Y-34112191D02*
X25044345Y-34112191D01*
X24930059Y-34188381D01*
X24853869Y-34264571D01*
X24815773Y-34340762D01*
X25044345Y-33616952D02*
X25044345Y-33121714D01*
X24739583Y-33388381D01*
X24739583Y-33274095D01*
X24701488Y-33197905D01*
X24663392Y-33159810D01*
X24587202Y-33121714D01*
X24396726Y-33121714D01*
X24320535Y-33159810D01*
X24282440Y-33197905D01*
X24244345Y-33274095D01*
X24244345Y-33502667D01*
X24282440Y-33578857D01*
X24320535Y-33616952D01*
X26784345Y-34645524D02*
X26784345Y-35102667D01*
X26784345Y-34874095D02*
X27584345Y-34874095D01*
X27470059Y-34950286D01*
X27393869Y-35026476D01*
X27355773Y-35102667D01*
X26784345Y-33883619D02*
X26784345Y-34340762D01*
X26784345Y-34112191D02*
X27584345Y-34112191D01*
X27470059Y-34188381D01*
X27393869Y-34264571D01*
X27355773Y-34340762D01*
X26784345Y-33121714D02*
X26784345Y-33578857D01*
X26784345Y-33350286D02*
X27584345Y-33350286D01*
X27470059Y-33426476D01*
X27393869Y-33502667D01*
X27355773Y-33578857D01*
X29324345Y-23571143D02*
X29324345Y-24028286D01*
X29324345Y-23799714D02*
X30124345Y-23799714D01*
X30010059Y-23875905D01*
X29933869Y-23952095D01*
X29895773Y-24028286D01*
X30124345Y-23075905D02*
X30124345Y-22999714D01*
X30086250Y-22923524D01*
X30048154Y-22885429D01*
X29971964Y-22847333D01*
X29819583Y-22809238D01*
X29629107Y-22809238D01*
X29476726Y-22847333D01*
X29400535Y-22885429D01*
X29362440Y-22923524D01*
X29324345Y-22999714D01*
X29324345Y-23075905D01*
X29362440Y-23152095D01*
X29400535Y-23190190D01*
X29476726Y-23228286D01*
X29629107Y-23266381D01*
X29819583Y-23266381D01*
X29971964Y-23228286D01*
X30048154Y-23190190D01*
X30086250Y-23152095D01*
X30124345Y-23075905D01*
X29857678Y-22123524D02*
X29324345Y-22123524D01*
X30162440Y-22314000D02*
X29591011Y-22504476D01*
X29591011Y-22009238D01*
X24244345Y-23571143D02*
X24244345Y-24028286D01*
X24244345Y-23799714D02*
X25044345Y-23799714D01*
X24930059Y-23875905D01*
X24853869Y-23952095D01*
X24815773Y-24028286D01*
X25044345Y-23075905D02*
X25044345Y-22999714D01*
X25006250Y-22923524D01*
X24968154Y-22885429D01*
X24891964Y-22847333D01*
X24739583Y-22809238D01*
X24549107Y-22809238D01*
X24396726Y-22847333D01*
X24320535Y-22885429D01*
X24282440Y-22923524D01*
X24244345Y-22999714D01*
X24244345Y-23075905D01*
X24282440Y-23152095D01*
X24320535Y-23190190D01*
X24396726Y-23228286D01*
X24549107Y-23266381D01*
X24739583Y-23266381D01*
X24891964Y-23228286D01*
X24968154Y-23190190D01*
X25006250Y-23152095D01*
X25044345Y-23075905D01*
X25044345Y-22314000D02*
X25044345Y-22237810D01*
X25006250Y-22161619D01*
X24968154Y-22123524D01*
X24891964Y-22085429D01*
X24739583Y-22047333D01*
X24549107Y-22047333D01*
X24396726Y-22085429D01*
X24320535Y-22123524D01*
X24282440Y-22161619D01*
X24244345Y-22237810D01*
X24244345Y-22314000D01*
X24282440Y-22390190D01*
X24320535Y-22428286D01*
X24396726Y-22466381D01*
X24549107Y-22504476D01*
X24739583Y-22504476D01*
X24891964Y-22466381D01*
X24968154Y-22428286D01*
X25006250Y-22390190D01*
X25044345Y-22314000D01*
X22504345Y-23837810D02*
X22504345Y-23761619D01*
X22466250Y-23685429D01*
X22428154Y-23647333D01*
X22351964Y-23609238D01*
X22199583Y-23571143D01*
X22009107Y-23571143D01*
X21856726Y-23609238D01*
X21780535Y-23647333D01*
X21742440Y-23685429D01*
X21704345Y-23761619D01*
X21704345Y-23837810D01*
X21742440Y-23914000D01*
X21780535Y-23952095D01*
X21856726Y-23990190D01*
X22009107Y-24028286D01*
X22199583Y-24028286D01*
X22351964Y-23990190D01*
X22428154Y-23952095D01*
X22466250Y-23914000D01*
X22504345Y-23837810D01*
X22428154Y-23266381D02*
X22466250Y-23228286D01*
X22504345Y-23152095D01*
X22504345Y-22961619D01*
X22466250Y-22885429D01*
X22428154Y-22847333D01*
X22351964Y-22809238D01*
X22275773Y-22809238D01*
X22161488Y-22847333D01*
X21704345Y-23304476D01*
X21704345Y-22809238D01*
X22237678Y-22123524D02*
X21704345Y-22123524D01*
X22542440Y-22314000D02*
X21971011Y-22504476D01*
X21971011Y-22009238D01*
X19994345Y-23837810D02*
X19994345Y-23761619D01*
X19956250Y-23685429D01*
X19918154Y-23647333D01*
X19841964Y-23609238D01*
X19689583Y-23571143D01*
X19499107Y-23571143D01*
X19346726Y-23609238D01*
X19270535Y-23647333D01*
X19232440Y-23685429D01*
X19194345Y-23761619D01*
X19194345Y-23837810D01*
X19232440Y-23914000D01*
X19270535Y-23952095D01*
X19346726Y-23990190D01*
X19499107Y-24028286D01*
X19689583Y-24028286D01*
X19841964Y-23990190D01*
X19918154Y-23952095D01*
X19956250Y-23914000D01*
X19994345Y-23837810D01*
X19918154Y-23266381D02*
X19956250Y-23228286D01*
X19994345Y-23152095D01*
X19994345Y-22961619D01*
X19956250Y-22885429D01*
X19918154Y-22847333D01*
X19841964Y-22809238D01*
X19765773Y-22809238D01*
X19651488Y-22847333D01*
X19194345Y-23304476D01*
X19194345Y-22809238D01*
X19918154Y-22504476D02*
X19956250Y-22466381D01*
X19994345Y-22390190D01*
X19994345Y-22199714D01*
X19956250Y-22123524D01*
X19918154Y-22085429D01*
X19841964Y-22047333D01*
X19765773Y-22047333D01*
X19651488Y-22085429D01*
X19194345Y-22542571D01*
X19194345Y-22047333D01*
X9766250Y-23723523D02*
X9804345Y-23799714D01*
X9804345Y-23914000D01*
X9766250Y-24028285D01*
X9690059Y-24104476D01*
X9613869Y-24142571D01*
X9461488Y-24180666D01*
X9347202Y-24180666D01*
X9194821Y-24142571D01*
X9118630Y-24104476D01*
X9042440Y-24028285D01*
X9004345Y-23914000D01*
X9004345Y-23837809D01*
X9042440Y-23723523D01*
X9080535Y-23685428D01*
X9347202Y-23685428D01*
X9347202Y-23837809D01*
X9004345Y-23342571D02*
X9804345Y-23342571D01*
X9004345Y-22885428D01*
X9804345Y-22885428D01*
X9004345Y-22504476D02*
X9804345Y-22504476D01*
X9804345Y-22314000D01*
X9766250Y-22199714D01*
X9690059Y-22123523D01*
X9613869Y-22085428D01*
X9461488Y-22047333D01*
X9347202Y-22047333D01*
X9194821Y-22085428D01*
X9118630Y-22123523D01*
X9042440Y-22199714D01*
X9004345Y-22314000D01*
X9004345Y-22504476D01*
X12306250Y-23723523D02*
X12344345Y-23799714D01*
X12344345Y-23914000D01*
X12306250Y-24028285D01*
X12230059Y-24104476D01*
X12153869Y-24142571D01*
X12001488Y-24180666D01*
X11887202Y-24180666D01*
X11734821Y-24142571D01*
X11658630Y-24104476D01*
X11582440Y-24028285D01*
X11544345Y-23914000D01*
X11544345Y-23837809D01*
X11582440Y-23723523D01*
X11620535Y-23685428D01*
X11887202Y-23685428D01*
X11887202Y-23837809D01*
X11544345Y-23342571D02*
X12344345Y-23342571D01*
X11544345Y-22885428D01*
X12344345Y-22885428D01*
X11544345Y-22504476D02*
X12344345Y-22504476D01*
X12344345Y-22314000D01*
X12306250Y-22199714D01*
X12230059Y-22123523D01*
X12153869Y-22085428D01*
X12001488Y-22047333D01*
X11887202Y-22047333D01*
X11734821Y-22085428D01*
X11658630Y-22123523D01*
X11582440Y-22199714D01*
X11544345Y-22314000D01*
X11544345Y-22504476D01*
X14894345Y-23837810D02*
X14894345Y-23761619D01*
X14856250Y-23685429D01*
X14818154Y-23647333D01*
X14741964Y-23609238D01*
X14589583Y-23571143D01*
X14399107Y-23571143D01*
X14246726Y-23609238D01*
X14170535Y-23647333D01*
X14132440Y-23685429D01*
X14094345Y-23761619D01*
X14094345Y-23837810D01*
X14132440Y-23914000D01*
X14170535Y-23952095D01*
X14246726Y-23990190D01*
X14399107Y-24028286D01*
X14589583Y-24028286D01*
X14741964Y-23990190D01*
X14818154Y-23952095D01*
X14856250Y-23914000D01*
X14894345Y-23837810D01*
X14094345Y-22809238D02*
X14094345Y-23266381D01*
X14094345Y-23037810D02*
X14894345Y-23037810D01*
X14780059Y-23114000D01*
X14703869Y-23190190D01*
X14665773Y-23266381D01*
X14894345Y-22542571D02*
X14894345Y-22009238D01*
X14094345Y-22352095D01*
X17494345Y-23837810D02*
X17494345Y-23761619D01*
X17456250Y-23685429D01*
X17418154Y-23647333D01*
X17341964Y-23609238D01*
X17189583Y-23571143D01*
X16999107Y-23571143D01*
X16846726Y-23609238D01*
X16770535Y-23647333D01*
X16732440Y-23685429D01*
X16694345Y-23761619D01*
X16694345Y-23837810D01*
X16732440Y-23914000D01*
X16770535Y-23952095D01*
X16846726Y-23990190D01*
X16999107Y-24028286D01*
X17189583Y-24028286D01*
X17341964Y-23990190D01*
X17418154Y-23952095D01*
X17456250Y-23914000D01*
X17494345Y-23837810D01*
X17418154Y-23266381D02*
X17456250Y-23228286D01*
X17494345Y-23152095D01*
X17494345Y-22961619D01*
X17456250Y-22885429D01*
X17418154Y-22847333D01*
X17341964Y-22809238D01*
X17265773Y-22809238D01*
X17151488Y-22847333D01*
X16694345Y-23304476D01*
X16694345Y-22809238D01*
X17494345Y-22314000D02*
X17494345Y-22237810D01*
X17456250Y-22161619D01*
X17418154Y-22123524D01*
X17341964Y-22085429D01*
X17189583Y-22047333D01*
X16999107Y-22047333D01*
X16846726Y-22085429D01*
X16770535Y-22123524D01*
X16732440Y-22161619D01*
X16694345Y-22237810D01*
X16694345Y-22314000D01*
X16732440Y-22390190D01*
X16770535Y-22428286D01*
X16846726Y-22466381D01*
X16999107Y-22504476D01*
X17189583Y-22504476D01*
X17341964Y-22466381D01*
X17418154Y-22428286D01*
X17456250Y-22390190D01*
X17494345Y-22314000D01*
X7194345Y-23837810D02*
X7194345Y-23761619D01*
X7156250Y-23685429D01*
X7118154Y-23647333D01*
X7041964Y-23609238D01*
X6889583Y-23571143D01*
X6699107Y-23571143D01*
X6546726Y-23609238D01*
X6470535Y-23647333D01*
X6432440Y-23685429D01*
X6394345Y-23761619D01*
X6394345Y-23837810D01*
X6432440Y-23914000D01*
X6470535Y-23952095D01*
X6546726Y-23990190D01*
X6699107Y-24028286D01*
X6889583Y-24028286D01*
X7041964Y-23990190D01*
X7118154Y-23952095D01*
X7156250Y-23914000D01*
X7194345Y-23837810D01*
X7194345Y-23075905D02*
X7194345Y-22999714D01*
X7156250Y-22923524D01*
X7118154Y-22885429D01*
X7041964Y-22847333D01*
X6889583Y-22809238D01*
X6699107Y-22809238D01*
X6546726Y-22847333D01*
X6470535Y-22885429D01*
X6432440Y-22923524D01*
X6394345Y-22999714D01*
X6394345Y-23075905D01*
X6432440Y-23152095D01*
X6470535Y-23190190D01*
X6546726Y-23228286D01*
X6699107Y-23266381D01*
X6889583Y-23266381D01*
X7041964Y-23228286D01*
X7118154Y-23190190D01*
X7156250Y-23152095D01*
X7194345Y-23075905D01*
X6851488Y-22352095D02*
X6889583Y-22428286D01*
X6927678Y-22466381D01*
X7003869Y-22504476D01*
X7041964Y-22504476D01*
X7118154Y-22466381D01*
X7156250Y-22428286D01*
X7194345Y-22352095D01*
X7194345Y-22199714D01*
X7156250Y-22123524D01*
X7118154Y-22085429D01*
X7041964Y-22047333D01*
X7003869Y-22047333D01*
X6927678Y-22085429D01*
X6889583Y-22123524D01*
X6851488Y-22199714D01*
X6851488Y-22352095D01*
X6813392Y-22428286D01*
X6775297Y-22466381D01*
X6699107Y-22504476D01*
X6546726Y-22504476D01*
X6470535Y-22466381D01*
X6432440Y-22428286D01*
X6394345Y-22352095D01*
X6394345Y-22199714D01*
X6432440Y-22123524D01*
X6470535Y-22085429D01*
X6546726Y-22047333D01*
X6699107Y-22047333D01*
X6775297Y-22085429D01*
X6813392Y-22123524D01*
X6851488Y-22199714D01*
X4724345Y-23837810D02*
X4724345Y-23761619D01*
X4686250Y-23685429D01*
X4648154Y-23647333D01*
X4571964Y-23609238D01*
X4419583Y-23571143D01*
X4229107Y-23571143D01*
X4076726Y-23609238D01*
X4000535Y-23647333D01*
X3962440Y-23685429D01*
X3924345Y-23761619D01*
X3924345Y-23837810D01*
X3962440Y-23914000D01*
X4000535Y-23952095D01*
X4076726Y-23990190D01*
X4229107Y-24028286D01*
X4419583Y-24028286D01*
X4571964Y-23990190D01*
X4648154Y-23952095D01*
X4686250Y-23914000D01*
X4724345Y-23837810D01*
X4724345Y-23075905D02*
X4724345Y-22999714D01*
X4686250Y-22923524D01*
X4648154Y-22885429D01*
X4571964Y-22847333D01*
X4419583Y-22809238D01*
X4229107Y-22809238D01*
X4076726Y-22847333D01*
X4000535Y-22885429D01*
X3962440Y-22923524D01*
X3924345Y-22999714D01*
X3924345Y-23075905D01*
X3962440Y-23152095D01*
X4000535Y-23190190D01*
X4076726Y-23228286D01*
X4229107Y-23266381D01*
X4419583Y-23266381D01*
X4571964Y-23228286D01*
X4648154Y-23190190D01*
X4686250Y-23152095D01*
X4724345Y-23075905D01*
X4724345Y-22123524D02*
X4724345Y-22275905D01*
X4686250Y-22352095D01*
X4648154Y-22390190D01*
X4533869Y-22466381D01*
X4381488Y-22504476D01*
X4076726Y-22504476D01*
X4000535Y-22466381D01*
X3962440Y-22428286D01*
X3924345Y-22352095D01*
X3924345Y-22199714D01*
X3962440Y-22123524D01*
X4000535Y-22085429D01*
X4076726Y-22047333D01*
X4267202Y-22047333D01*
X4343392Y-22085429D01*
X4381488Y-22123524D01*
X4419583Y-22199714D01*
X4419583Y-22352095D01*
X4381488Y-22428286D01*
X4343392Y-22466381D01*
X4267202Y-22504476D01*
X146692738Y-93853630D02*
X146692738Y-92853630D01*
X146454642Y-92853630D01*
X146311785Y-92901250D01*
X146216547Y-92996488D01*
X146168928Y-93091726D01*
X146121309Y-93282202D01*
X146121309Y-93425059D01*
X146168928Y-93615535D01*
X146216547Y-93710773D01*
X146311785Y-93806011D01*
X146454642Y-93853630D01*
X146692738Y-93853630D01*
X145930833Y-93948869D02*
X145168928Y-93948869D01*
X145026071Y-92853630D02*
X144407023Y-92853630D01*
X144740357Y-93234583D01*
X144597500Y-93234583D01*
X144502261Y-93282202D01*
X144454642Y-93329821D01*
X144407023Y-93425059D01*
X144407023Y-93663154D01*
X144454642Y-93758392D01*
X144502261Y-93806011D01*
X144597500Y-93853630D01*
X144883214Y-93853630D01*
X144978452Y-93806011D01*
X145026071Y-93758392D01*
X144073690Y-92853630D02*
X143454642Y-92853630D01*
X143787976Y-93234583D01*
X143645119Y-93234583D01*
X143549880Y-93282202D01*
X143502261Y-93329821D01*
X143454642Y-93425059D01*
X143454642Y-93663154D01*
X143502261Y-93758392D01*
X143549880Y-93806011D01*
X143645119Y-93853630D01*
X143930833Y-93853630D01*
X144026071Y-93806011D01*
X144073690Y-93758392D01*
X141549404Y-93533630D02*
X141549404Y-92533630D01*
X140977976Y-93533630D02*
X141406547Y-92962202D01*
X140977976Y-92533630D02*
X141549404Y-93105059D01*
X134922380Y-80819761D02*
X133922380Y-80819761D01*
X133922380Y-81057857D01*
X133970000Y-81200714D01*
X134065238Y-81295952D01*
X134160476Y-81343571D01*
X134350952Y-81391190D01*
X134493809Y-81391190D01*
X134684285Y-81343571D01*
X134779523Y-81295952D01*
X134874761Y-81200714D01*
X134922380Y-81057857D01*
X134922380Y-80819761D01*
X135017619Y-81581666D02*
X135017619Y-82343571D01*
X133922380Y-82486428D02*
X133922380Y-83105476D01*
X134303333Y-82772142D01*
X134303333Y-82915000D01*
X134350952Y-83010238D01*
X134398571Y-83057857D01*
X134493809Y-83105476D01*
X134731904Y-83105476D01*
X134827142Y-83057857D01*
X134874761Y-83010238D01*
X134922380Y-82915000D01*
X134922380Y-82629285D01*
X134874761Y-82534047D01*
X134827142Y-82486428D01*
X134017619Y-83486428D02*
X133970000Y-83534047D01*
X133922380Y-83629285D01*
X133922380Y-83867380D01*
X133970000Y-83962619D01*
X134017619Y-84010238D01*
X134112857Y-84057857D01*
X134208095Y-84057857D01*
X134350952Y-84010238D01*
X134922380Y-83438809D01*
X134922380Y-84057857D01*
X134602380Y-85963095D02*
X133602380Y-85963095D01*
X134602380Y-86534523D02*
X134030952Y-86105952D01*
X133602380Y-86534523D02*
X134173809Y-85963095D01*
X111109880Y-80819761D02*
X110109880Y-80819761D01*
X110109880Y-81057857D01*
X110157500Y-81200714D01*
X110252738Y-81295952D01*
X110347976Y-81343571D01*
X110538452Y-81391190D01*
X110681309Y-81391190D01*
X110871785Y-81343571D01*
X110967023Y-81295952D01*
X111062261Y-81200714D01*
X111109880Y-81057857D01*
X111109880Y-80819761D01*
X111205119Y-81581666D02*
X111205119Y-82343571D01*
X110109880Y-82486428D02*
X110109880Y-83105476D01*
X110490833Y-82772142D01*
X110490833Y-82915000D01*
X110538452Y-83010238D01*
X110586071Y-83057857D01*
X110681309Y-83105476D01*
X110919404Y-83105476D01*
X111014642Y-83057857D01*
X111062261Y-83010238D01*
X111109880Y-82915000D01*
X111109880Y-82629285D01*
X111062261Y-82534047D01*
X111014642Y-82486428D01*
X111109880Y-84057857D02*
X111109880Y-83486428D01*
X111109880Y-83772142D02*
X110109880Y-83772142D01*
X110252738Y-83676904D01*
X110347976Y-83581666D01*
X110395595Y-83486428D01*
X110789880Y-85963095D02*
X109789880Y-85963095D01*
X110789880Y-86534523D02*
X110218452Y-86105952D01*
X109789880Y-86534523D02*
X110361309Y-85963095D01*
X87297380Y-80819761D02*
X86297380Y-80819761D01*
X86297380Y-81057857D01*
X86345000Y-81200714D01*
X86440238Y-81295952D01*
X86535476Y-81343571D01*
X86725952Y-81391190D01*
X86868809Y-81391190D01*
X87059285Y-81343571D01*
X87154523Y-81295952D01*
X87249761Y-81200714D01*
X87297380Y-81057857D01*
X87297380Y-80819761D01*
X87392619Y-81581666D02*
X87392619Y-82343571D01*
X86297380Y-82486428D02*
X86297380Y-83105476D01*
X86678333Y-82772142D01*
X86678333Y-82915000D01*
X86725952Y-83010238D01*
X86773571Y-83057857D01*
X86868809Y-83105476D01*
X87106904Y-83105476D01*
X87202142Y-83057857D01*
X87249761Y-83010238D01*
X87297380Y-82915000D01*
X87297380Y-82629285D01*
X87249761Y-82534047D01*
X87202142Y-82486428D01*
X86297380Y-83724523D02*
X86297380Y-83819761D01*
X86345000Y-83915000D01*
X86392619Y-83962619D01*
X86487857Y-84010238D01*
X86678333Y-84057857D01*
X86916428Y-84057857D01*
X87106904Y-84010238D01*
X87202142Y-83962619D01*
X87249761Y-83915000D01*
X87297380Y-83819761D01*
X87297380Y-83724523D01*
X87249761Y-83629285D01*
X87202142Y-83581666D01*
X87106904Y-83534047D01*
X86916428Y-83486428D01*
X86678333Y-83486428D01*
X86487857Y-83534047D01*
X86392619Y-83581666D01*
X86345000Y-83629285D01*
X86297380Y-83724523D01*
X86977380Y-85963095D02*
X85977380Y-85963095D01*
X86977380Y-86534523D02*
X86405952Y-86105952D01*
X85977380Y-86534523D02*
X86548809Y-85963095D01*
X62103630Y-84288511D02*
X61103630Y-84288511D01*
X61103630Y-84526607D01*
X61151250Y-84669464D01*
X61246488Y-84764702D01*
X61341726Y-84812321D01*
X61532202Y-84859940D01*
X61675059Y-84859940D01*
X61865535Y-84812321D01*
X61960773Y-84764702D01*
X62056011Y-84669464D01*
X62103630Y-84526607D01*
X62103630Y-84288511D01*
X62198869Y-85050416D02*
X62198869Y-85812321D01*
X61198869Y-86002797D02*
X61151250Y-86050416D01*
X61103630Y-86145654D01*
X61103630Y-86383750D01*
X61151250Y-86478988D01*
X61198869Y-86526607D01*
X61294107Y-86574226D01*
X61389345Y-86574226D01*
X61532202Y-86526607D01*
X62103630Y-85955178D01*
X62103630Y-86574226D01*
X62103630Y-87050416D02*
X62103630Y-87240892D01*
X62056011Y-87336130D01*
X62008392Y-87383750D01*
X61865535Y-87478988D01*
X61675059Y-87526607D01*
X61294107Y-87526607D01*
X61198869Y-87478988D01*
X61151250Y-87431369D01*
X61103630Y-87336130D01*
X61103630Y-87145654D01*
X61151250Y-87050416D01*
X61198869Y-87002797D01*
X61294107Y-86955178D01*
X61532202Y-86955178D01*
X61627440Y-87002797D01*
X61675059Y-87050416D01*
X61722678Y-87145654D01*
X61722678Y-87336130D01*
X61675059Y-87431369D01*
X61627440Y-87478988D01*
X61532202Y-87526607D01*
X61783630Y-89431845D02*
X60783630Y-89431845D01*
X61783630Y-90003273D02*
X61212202Y-89574702D01*
X60783630Y-90003273D02*
X61355059Y-89431845D01*
X158598988Y-74009880D02*
X158598988Y-73009880D01*
X158360892Y-73009880D01*
X158218035Y-73057500D01*
X158122797Y-73152738D01*
X158075178Y-73247976D01*
X158027559Y-73438452D01*
X158027559Y-73581309D01*
X158075178Y-73771785D01*
X158122797Y-73867023D01*
X158218035Y-73962261D01*
X158360892Y-74009880D01*
X158598988Y-74009880D01*
X157837083Y-74105119D02*
X157075178Y-74105119D01*
X156884702Y-73105119D02*
X156837083Y-73057500D01*
X156741845Y-73009880D01*
X156503750Y-73009880D01*
X156408511Y-73057500D01*
X156360892Y-73105119D01*
X156313273Y-73200357D01*
X156313273Y-73295595D01*
X156360892Y-73438452D01*
X156932321Y-74009880D01*
X156313273Y-74009880D01*
X155741845Y-73438452D02*
X155837083Y-73390833D01*
X155884702Y-73343214D01*
X155932321Y-73247976D01*
X155932321Y-73200357D01*
X155884702Y-73105119D01*
X155837083Y-73057500D01*
X155741845Y-73009880D01*
X155551369Y-73009880D01*
X155456130Y-73057500D01*
X155408511Y-73105119D01*
X155360892Y-73200357D01*
X155360892Y-73247976D01*
X155408511Y-73343214D01*
X155456130Y-73390833D01*
X155551369Y-73438452D01*
X155741845Y-73438452D01*
X155837083Y-73486071D01*
X155884702Y-73533690D01*
X155932321Y-73628928D01*
X155932321Y-73819404D01*
X155884702Y-73914642D01*
X155837083Y-73962261D01*
X155741845Y-74009880D01*
X155551369Y-74009880D01*
X155456130Y-73962261D01*
X155408511Y-73914642D01*
X155360892Y-73819404D01*
X155360892Y-73628928D01*
X155408511Y-73533690D01*
X155456130Y-73486071D01*
X155551369Y-73438452D01*
X153455654Y-73689880D02*
X153455654Y-72689880D01*
X152884226Y-73689880D02*
X153312797Y-73118452D01*
X152884226Y-72689880D02*
X153455654Y-73261309D01*
X149209880Y-61769761D02*
X148209880Y-61769761D01*
X148209880Y-62007857D01*
X148257500Y-62150714D01*
X148352738Y-62245952D01*
X148447976Y-62293571D01*
X148638452Y-62341190D01*
X148781309Y-62341190D01*
X148971785Y-62293571D01*
X149067023Y-62245952D01*
X149162261Y-62150714D01*
X149209880Y-62007857D01*
X149209880Y-61769761D01*
X149305119Y-62531666D02*
X149305119Y-63293571D01*
X148305119Y-63484047D02*
X148257500Y-63531666D01*
X148209880Y-63626904D01*
X148209880Y-63865000D01*
X148257500Y-63960238D01*
X148305119Y-64007857D01*
X148400357Y-64055476D01*
X148495595Y-64055476D01*
X148638452Y-64007857D01*
X149209880Y-63436428D01*
X149209880Y-64055476D01*
X148209880Y-64388809D02*
X148209880Y-65055476D01*
X149209880Y-64626904D01*
X148889880Y-66913095D02*
X147889880Y-66913095D01*
X148889880Y-67484523D02*
X148318452Y-67055952D01*
X147889880Y-67484523D02*
X148461309Y-66913095D01*
X130159880Y-61769761D02*
X129159880Y-61769761D01*
X129159880Y-62007857D01*
X129207500Y-62150714D01*
X129302738Y-62245952D01*
X129397976Y-62293571D01*
X129588452Y-62341190D01*
X129731309Y-62341190D01*
X129921785Y-62293571D01*
X130017023Y-62245952D01*
X130112261Y-62150714D01*
X130159880Y-62007857D01*
X130159880Y-61769761D01*
X130255119Y-62531666D02*
X130255119Y-63293571D01*
X129255119Y-63484047D02*
X129207500Y-63531666D01*
X129159880Y-63626904D01*
X129159880Y-63865000D01*
X129207500Y-63960238D01*
X129255119Y-64007857D01*
X129350357Y-64055476D01*
X129445595Y-64055476D01*
X129588452Y-64007857D01*
X130159880Y-63436428D01*
X130159880Y-64055476D01*
X129159880Y-64912619D02*
X129159880Y-64722142D01*
X129207500Y-64626904D01*
X129255119Y-64579285D01*
X129397976Y-64484047D01*
X129588452Y-64436428D01*
X129969404Y-64436428D01*
X130064642Y-64484047D01*
X130112261Y-64531666D01*
X130159880Y-64626904D01*
X130159880Y-64817380D01*
X130112261Y-64912619D01*
X130064642Y-64960238D01*
X129969404Y-65007857D01*
X129731309Y-65007857D01*
X129636071Y-64960238D01*
X129588452Y-64912619D01*
X129540833Y-64817380D01*
X129540833Y-64626904D01*
X129588452Y-64531666D01*
X129636071Y-64484047D01*
X129731309Y-64436428D01*
X129839880Y-66913095D02*
X128839880Y-66913095D01*
X129839880Y-67484523D02*
X129268452Y-67055952D01*
X128839880Y-67484523D02*
X129411309Y-66913095D01*
X111109880Y-61769761D02*
X110109880Y-61769761D01*
X110109880Y-62007857D01*
X110157500Y-62150714D01*
X110252738Y-62245952D01*
X110347976Y-62293571D01*
X110538452Y-62341190D01*
X110681309Y-62341190D01*
X110871785Y-62293571D01*
X110967023Y-62245952D01*
X111062261Y-62150714D01*
X111109880Y-62007857D01*
X111109880Y-61769761D01*
X111205119Y-62531666D02*
X111205119Y-63293571D01*
X110205119Y-63484047D02*
X110157500Y-63531666D01*
X110109880Y-63626904D01*
X110109880Y-63865000D01*
X110157500Y-63960238D01*
X110205119Y-64007857D01*
X110300357Y-64055476D01*
X110395595Y-64055476D01*
X110538452Y-64007857D01*
X111109880Y-63436428D01*
X111109880Y-64055476D01*
X110109880Y-64960238D02*
X110109880Y-64484047D01*
X110586071Y-64436428D01*
X110538452Y-64484047D01*
X110490833Y-64579285D01*
X110490833Y-64817380D01*
X110538452Y-64912619D01*
X110586071Y-64960238D01*
X110681309Y-65007857D01*
X110919404Y-65007857D01*
X111014642Y-64960238D01*
X111062261Y-64912619D01*
X111109880Y-64817380D01*
X111109880Y-64579285D01*
X111062261Y-64484047D01*
X111014642Y-64436428D01*
X110789880Y-66913095D02*
X109789880Y-66913095D01*
X110789880Y-67484523D02*
X110218452Y-67055952D01*
X109789880Y-67484523D02*
X110361309Y-66913095D01*
X92059880Y-61769761D02*
X91059880Y-61769761D01*
X91059880Y-62007857D01*
X91107500Y-62150714D01*
X91202738Y-62245952D01*
X91297976Y-62293571D01*
X91488452Y-62341190D01*
X91631309Y-62341190D01*
X91821785Y-62293571D01*
X91917023Y-62245952D01*
X92012261Y-62150714D01*
X92059880Y-62007857D01*
X92059880Y-61769761D01*
X92155119Y-62531666D02*
X92155119Y-63293571D01*
X91155119Y-63484047D02*
X91107500Y-63531666D01*
X91059880Y-63626904D01*
X91059880Y-63865000D01*
X91107500Y-63960238D01*
X91155119Y-64007857D01*
X91250357Y-64055476D01*
X91345595Y-64055476D01*
X91488452Y-64007857D01*
X92059880Y-63436428D01*
X92059880Y-64055476D01*
X91393214Y-64912619D02*
X92059880Y-64912619D01*
X91012261Y-64674523D02*
X91726547Y-64436428D01*
X91726547Y-65055476D01*
X91739880Y-66913095D02*
X90739880Y-66913095D01*
X91739880Y-67484523D02*
X91168452Y-67055952D01*
X90739880Y-67484523D02*
X91311309Y-66913095D01*
X73009880Y-61769761D02*
X72009880Y-61769761D01*
X72009880Y-62007857D01*
X72057500Y-62150714D01*
X72152738Y-62245952D01*
X72247976Y-62293571D01*
X72438452Y-62341190D01*
X72581309Y-62341190D01*
X72771785Y-62293571D01*
X72867023Y-62245952D01*
X72962261Y-62150714D01*
X73009880Y-62007857D01*
X73009880Y-61769761D01*
X73105119Y-62531666D02*
X73105119Y-63293571D01*
X72105119Y-63484047D02*
X72057500Y-63531666D01*
X72009880Y-63626904D01*
X72009880Y-63865000D01*
X72057500Y-63960238D01*
X72105119Y-64007857D01*
X72200357Y-64055476D01*
X72295595Y-64055476D01*
X72438452Y-64007857D01*
X73009880Y-63436428D01*
X73009880Y-64055476D01*
X72009880Y-64388809D02*
X72009880Y-65007857D01*
X72390833Y-64674523D01*
X72390833Y-64817380D01*
X72438452Y-64912619D01*
X72486071Y-64960238D01*
X72581309Y-65007857D01*
X72819404Y-65007857D01*
X72914642Y-64960238D01*
X72962261Y-64912619D01*
X73009880Y-64817380D01*
X73009880Y-64531666D01*
X72962261Y-64436428D01*
X72914642Y-64388809D01*
X72689880Y-66913095D02*
X71689880Y-66913095D01*
X72689880Y-67484523D02*
X72118452Y-67055952D01*
X71689880Y-67484523D02*
X72261309Y-66913095D01*
X20622380Y-61769761D02*
X19622380Y-61769761D01*
X19622380Y-62007857D01*
X19670000Y-62150714D01*
X19765238Y-62245952D01*
X19860476Y-62293571D01*
X20050952Y-62341190D01*
X20193809Y-62341190D01*
X20384285Y-62293571D01*
X20479523Y-62245952D01*
X20574761Y-62150714D01*
X20622380Y-62007857D01*
X20622380Y-61769761D01*
X20717619Y-62531666D02*
X20717619Y-63293571D01*
X19717619Y-63484047D02*
X19670000Y-63531666D01*
X19622380Y-63626904D01*
X19622380Y-63865000D01*
X19670000Y-63960238D01*
X19717619Y-64007857D01*
X19812857Y-64055476D01*
X19908095Y-64055476D01*
X20050952Y-64007857D01*
X20622380Y-63436428D01*
X20622380Y-64055476D01*
X19717619Y-64436428D02*
X19670000Y-64484047D01*
X19622380Y-64579285D01*
X19622380Y-64817380D01*
X19670000Y-64912619D01*
X19717619Y-64960238D01*
X19812857Y-65007857D01*
X19908095Y-65007857D01*
X20050952Y-64960238D01*
X20622380Y-64388809D01*
X20622380Y-65007857D01*
X20302380Y-66913095D02*
X19302380Y-66913095D01*
X20302380Y-67484523D02*
X19730952Y-67055952D01*
X19302380Y-67484523D02*
X19873809Y-66913095D01*
X149073988Y-55753630D02*
X149073988Y-54753630D01*
X148835892Y-54753630D01*
X148693035Y-54801250D01*
X148597797Y-54896488D01*
X148550178Y-54991726D01*
X148502559Y-55182202D01*
X148502559Y-55325059D01*
X148550178Y-55515535D01*
X148597797Y-55610773D01*
X148693035Y-55706011D01*
X148835892Y-55753630D01*
X149073988Y-55753630D01*
X148312083Y-55848869D02*
X147550178Y-55848869D01*
X147359702Y-54848869D02*
X147312083Y-54801250D01*
X147216845Y-54753630D01*
X146978750Y-54753630D01*
X146883511Y-54801250D01*
X146835892Y-54848869D01*
X146788273Y-54944107D01*
X146788273Y-55039345D01*
X146835892Y-55182202D01*
X147407321Y-55753630D01*
X146788273Y-55753630D01*
X145835892Y-55753630D02*
X146407321Y-55753630D01*
X146121607Y-55753630D02*
X146121607Y-54753630D01*
X146216845Y-54896488D01*
X146312083Y-54991726D01*
X146407321Y-55039345D01*
X143930654Y-55433630D02*
X143930654Y-54433630D01*
X143359226Y-55433630D02*
X143787797Y-54862202D01*
X143359226Y-54433630D02*
X143930654Y-55005059D01*
X139684880Y-42719761D02*
X138684880Y-42719761D01*
X138684880Y-42957857D01*
X138732500Y-43100714D01*
X138827738Y-43195952D01*
X138922976Y-43243571D01*
X139113452Y-43291190D01*
X139256309Y-43291190D01*
X139446785Y-43243571D01*
X139542023Y-43195952D01*
X139637261Y-43100714D01*
X139684880Y-42957857D01*
X139684880Y-42719761D01*
X139780119Y-43481666D02*
X139780119Y-44243571D01*
X138780119Y-44434047D02*
X138732500Y-44481666D01*
X138684880Y-44576904D01*
X138684880Y-44815000D01*
X138732500Y-44910238D01*
X138780119Y-44957857D01*
X138875357Y-45005476D01*
X138970595Y-45005476D01*
X139113452Y-44957857D01*
X139684880Y-44386428D01*
X139684880Y-45005476D01*
X138684880Y-45624523D02*
X138684880Y-45719761D01*
X138732500Y-45815000D01*
X138780119Y-45862619D01*
X138875357Y-45910238D01*
X139065833Y-45957857D01*
X139303928Y-45957857D01*
X139494404Y-45910238D01*
X139589642Y-45862619D01*
X139637261Y-45815000D01*
X139684880Y-45719761D01*
X139684880Y-45624523D01*
X139637261Y-45529285D01*
X139589642Y-45481666D01*
X139494404Y-45434047D01*
X139303928Y-45386428D01*
X139065833Y-45386428D01*
X138875357Y-45434047D01*
X138780119Y-45481666D01*
X138732500Y-45529285D01*
X138684880Y-45624523D01*
X139364880Y-47863095D02*
X138364880Y-47863095D01*
X139364880Y-48434523D02*
X138793452Y-48005952D01*
X138364880Y-48434523D02*
X138936309Y-47863095D01*
X120634880Y-42719761D02*
X119634880Y-42719761D01*
X119634880Y-42957857D01*
X119682500Y-43100714D01*
X119777738Y-43195952D01*
X119872976Y-43243571D01*
X120063452Y-43291190D01*
X120206309Y-43291190D01*
X120396785Y-43243571D01*
X120492023Y-43195952D01*
X120587261Y-43100714D01*
X120634880Y-42957857D01*
X120634880Y-42719761D01*
X120730119Y-43481666D02*
X120730119Y-44243571D01*
X120634880Y-45005476D02*
X120634880Y-44434047D01*
X120634880Y-44719761D02*
X119634880Y-44719761D01*
X119777738Y-44624523D01*
X119872976Y-44529285D01*
X119920595Y-44434047D01*
X120634880Y-45481666D02*
X120634880Y-45672142D01*
X120587261Y-45767380D01*
X120539642Y-45815000D01*
X120396785Y-45910238D01*
X120206309Y-45957857D01*
X119825357Y-45957857D01*
X119730119Y-45910238D01*
X119682500Y-45862619D01*
X119634880Y-45767380D01*
X119634880Y-45576904D01*
X119682500Y-45481666D01*
X119730119Y-45434047D01*
X119825357Y-45386428D01*
X120063452Y-45386428D01*
X120158690Y-45434047D01*
X120206309Y-45481666D01*
X120253928Y-45576904D01*
X120253928Y-45767380D01*
X120206309Y-45862619D01*
X120158690Y-45910238D01*
X120063452Y-45957857D01*
X120314880Y-47863095D02*
X119314880Y-47863095D01*
X120314880Y-48434523D02*
X119743452Y-48005952D01*
X119314880Y-48434523D02*
X119886309Y-47863095D01*
X101584880Y-42719761D02*
X100584880Y-42719761D01*
X100584880Y-42957857D01*
X100632500Y-43100714D01*
X100727738Y-43195952D01*
X100822976Y-43243571D01*
X101013452Y-43291190D01*
X101156309Y-43291190D01*
X101346785Y-43243571D01*
X101442023Y-43195952D01*
X101537261Y-43100714D01*
X101584880Y-42957857D01*
X101584880Y-42719761D01*
X101680119Y-43481666D02*
X101680119Y-44243571D01*
X101584880Y-45005476D02*
X101584880Y-44434047D01*
X101584880Y-44719761D02*
X100584880Y-44719761D01*
X100727738Y-44624523D01*
X100822976Y-44529285D01*
X100870595Y-44434047D01*
X101013452Y-45576904D02*
X100965833Y-45481666D01*
X100918214Y-45434047D01*
X100822976Y-45386428D01*
X100775357Y-45386428D01*
X100680119Y-45434047D01*
X100632500Y-45481666D01*
X100584880Y-45576904D01*
X100584880Y-45767380D01*
X100632500Y-45862619D01*
X100680119Y-45910238D01*
X100775357Y-45957857D01*
X100822976Y-45957857D01*
X100918214Y-45910238D01*
X100965833Y-45862619D01*
X101013452Y-45767380D01*
X101013452Y-45576904D01*
X101061071Y-45481666D01*
X101108690Y-45434047D01*
X101203928Y-45386428D01*
X101394404Y-45386428D01*
X101489642Y-45434047D01*
X101537261Y-45481666D01*
X101584880Y-45576904D01*
X101584880Y-45767380D01*
X101537261Y-45862619D01*
X101489642Y-45910238D01*
X101394404Y-45957857D01*
X101203928Y-45957857D01*
X101108690Y-45910238D01*
X101061071Y-45862619D01*
X101013452Y-45767380D01*
X101264880Y-47863095D02*
X100264880Y-47863095D01*
X101264880Y-48434523D02*
X100693452Y-48005952D01*
X100264880Y-48434523D02*
X100836309Y-47863095D01*
X82534880Y-42719761D02*
X81534880Y-42719761D01*
X81534880Y-42957857D01*
X81582500Y-43100714D01*
X81677738Y-43195952D01*
X81772976Y-43243571D01*
X81963452Y-43291190D01*
X82106309Y-43291190D01*
X82296785Y-43243571D01*
X82392023Y-43195952D01*
X82487261Y-43100714D01*
X82534880Y-42957857D01*
X82534880Y-42719761D01*
X82630119Y-43481666D02*
X82630119Y-44243571D01*
X82534880Y-45005476D02*
X82534880Y-44434047D01*
X82534880Y-44719761D02*
X81534880Y-44719761D01*
X81677738Y-44624523D01*
X81772976Y-44529285D01*
X81820595Y-44434047D01*
X81534880Y-45338809D02*
X81534880Y-46005476D01*
X82534880Y-45576904D01*
X82214880Y-47863095D02*
X81214880Y-47863095D01*
X82214880Y-48434523D02*
X81643452Y-48005952D01*
X81214880Y-48434523D02*
X81786309Y-47863095D01*
X63484880Y-42719761D02*
X62484880Y-42719761D01*
X62484880Y-42957857D01*
X62532500Y-43100714D01*
X62627738Y-43195952D01*
X62722976Y-43243571D01*
X62913452Y-43291190D01*
X63056309Y-43291190D01*
X63246785Y-43243571D01*
X63342023Y-43195952D01*
X63437261Y-43100714D01*
X63484880Y-42957857D01*
X63484880Y-42719761D01*
X63580119Y-43481666D02*
X63580119Y-44243571D01*
X63484880Y-45005476D02*
X63484880Y-44434047D01*
X63484880Y-44719761D02*
X62484880Y-44719761D01*
X62627738Y-44624523D01*
X62722976Y-44529285D01*
X62770595Y-44434047D01*
X62484880Y-45862619D02*
X62484880Y-45672142D01*
X62532500Y-45576904D01*
X62580119Y-45529285D01*
X62722976Y-45434047D01*
X62913452Y-45386428D01*
X63294404Y-45386428D01*
X63389642Y-45434047D01*
X63437261Y-45481666D01*
X63484880Y-45576904D01*
X63484880Y-45767380D01*
X63437261Y-45862619D01*
X63389642Y-45910238D01*
X63294404Y-45957857D01*
X63056309Y-45957857D01*
X62961071Y-45910238D01*
X62913452Y-45862619D01*
X62865833Y-45767380D01*
X62865833Y-45576904D01*
X62913452Y-45481666D01*
X62961071Y-45434047D01*
X63056309Y-45386428D01*
X63164880Y-47863095D02*
X62164880Y-47863095D01*
X63164880Y-48434523D02*
X62593452Y-48005952D01*
X62164880Y-48434523D02*
X62736309Y-47863095D01*
X20622380Y-42719761D02*
X19622380Y-42719761D01*
X19622380Y-42957857D01*
X19670000Y-43100714D01*
X19765238Y-43195952D01*
X19860476Y-43243571D01*
X20050952Y-43291190D01*
X20193809Y-43291190D01*
X20384285Y-43243571D01*
X20479523Y-43195952D01*
X20574761Y-43100714D01*
X20622380Y-42957857D01*
X20622380Y-42719761D01*
X20717619Y-43481666D02*
X20717619Y-44243571D01*
X20622380Y-45005476D02*
X20622380Y-44434047D01*
X20622380Y-44719761D02*
X19622380Y-44719761D01*
X19765238Y-44624523D01*
X19860476Y-44529285D01*
X19908095Y-44434047D01*
X19622380Y-45910238D02*
X19622380Y-45434047D01*
X20098571Y-45386428D01*
X20050952Y-45434047D01*
X20003333Y-45529285D01*
X20003333Y-45767380D01*
X20050952Y-45862619D01*
X20098571Y-45910238D01*
X20193809Y-45957857D01*
X20431904Y-45957857D01*
X20527142Y-45910238D01*
X20574761Y-45862619D01*
X20622380Y-45767380D01*
X20622380Y-45529285D01*
X20574761Y-45434047D01*
X20527142Y-45386428D01*
X20302380Y-47863095D02*
X19302380Y-47863095D01*
X20302380Y-48434523D02*
X19730952Y-48005952D01*
X19302380Y-48434523D02*
X19873809Y-47863095D01*
X144311488Y-36703630D02*
X144311488Y-35703630D01*
X144073392Y-35703630D01*
X143930535Y-35751250D01*
X143835297Y-35846488D01*
X143787678Y-35941726D01*
X143740059Y-36132202D01*
X143740059Y-36275059D01*
X143787678Y-36465535D01*
X143835297Y-36560773D01*
X143930535Y-36656011D01*
X144073392Y-36703630D01*
X144311488Y-36703630D01*
X143549583Y-36798869D02*
X142787678Y-36798869D01*
X142025773Y-36703630D02*
X142597202Y-36703630D01*
X142311488Y-36703630D02*
X142311488Y-35703630D01*
X142406726Y-35846488D01*
X142501964Y-35941726D01*
X142597202Y-35989345D01*
X141168630Y-36036964D02*
X141168630Y-36703630D01*
X141406726Y-35656011D02*
X141644821Y-36370297D01*
X141025773Y-36370297D01*
X139168154Y-36383630D02*
X139168154Y-35383630D01*
X138596726Y-36383630D02*
X139025297Y-35812202D01*
X138596726Y-35383630D02*
X139168154Y-35955059D01*
X134922380Y-23669761D02*
X133922380Y-23669761D01*
X133922380Y-23907857D01*
X133970000Y-24050714D01*
X134065238Y-24145952D01*
X134160476Y-24193571D01*
X134350952Y-24241190D01*
X134493809Y-24241190D01*
X134684285Y-24193571D01*
X134779523Y-24145952D01*
X134874761Y-24050714D01*
X134922380Y-23907857D01*
X134922380Y-23669761D01*
X135017619Y-24431666D02*
X135017619Y-25193571D01*
X134922380Y-25955476D02*
X134922380Y-25384047D01*
X134922380Y-25669761D02*
X133922380Y-25669761D01*
X134065238Y-25574523D01*
X134160476Y-25479285D01*
X134208095Y-25384047D01*
X133922380Y-26288809D02*
X133922380Y-26907857D01*
X134303333Y-26574523D01*
X134303333Y-26717380D01*
X134350952Y-26812619D01*
X134398571Y-26860238D01*
X134493809Y-26907857D01*
X134731904Y-26907857D01*
X134827142Y-26860238D01*
X134874761Y-26812619D01*
X134922380Y-26717380D01*
X134922380Y-26431666D01*
X134874761Y-26336428D01*
X134827142Y-26288809D01*
X134602380Y-28813095D02*
X133602380Y-28813095D01*
X134602380Y-29384523D02*
X134030952Y-28955952D01*
X133602380Y-29384523D02*
X134173809Y-28813095D01*
X115872380Y-23669761D02*
X114872380Y-23669761D01*
X114872380Y-23907857D01*
X114920000Y-24050714D01*
X115015238Y-24145952D01*
X115110476Y-24193571D01*
X115300952Y-24241190D01*
X115443809Y-24241190D01*
X115634285Y-24193571D01*
X115729523Y-24145952D01*
X115824761Y-24050714D01*
X115872380Y-23907857D01*
X115872380Y-23669761D01*
X115967619Y-24431666D02*
X115967619Y-25193571D01*
X115872380Y-25955476D02*
X115872380Y-25384047D01*
X115872380Y-25669761D02*
X114872380Y-25669761D01*
X115015238Y-25574523D01*
X115110476Y-25479285D01*
X115158095Y-25384047D01*
X114967619Y-26336428D02*
X114920000Y-26384047D01*
X114872380Y-26479285D01*
X114872380Y-26717380D01*
X114920000Y-26812619D01*
X114967619Y-26860238D01*
X115062857Y-26907857D01*
X115158095Y-26907857D01*
X115300952Y-26860238D01*
X115872380Y-26288809D01*
X115872380Y-26907857D01*
X115552380Y-28813095D02*
X114552380Y-28813095D01*
X115552380Y-29384523D02*
X114980952Y-28955952D01*
X114552380Y-29384523D02*
X115123809Y-28813095D01*
X96822380Y-23669761D02*
X95822380Y-23669761D01*
X95822380Y-23907857D01*
X95870000Y-24050714D01*
X95965238Y-24145952D01*
X96060476Y-24193571D01*
X96250952Y-24241190D01*
X96393809Y-24241190D01*
X96584285Y-24193571D01*
X96679523Y-24145952D01*
X96774761Y-24050714D01*
X96822380Y-23907857D01*
X96822380Y-23669761D01*
X96917619Y-24431666D02*
X96917619Y-25193571D01*
X96822380Y-25955476D02*
X96822380Y-25384047D01*
X96822380Y-25669761D02*
X95822380Y-25669761D01*
X95965238Y-25574523D01*
X96060476Y-25479285D01*
X96108095Y-25384047D01*
X96822380Y-26907857D02*
X96822380Y-26336428D01*
X96822380Y-26622142D02*
X95822380Y-26622142D01*
X95965238Y-26526904D01*
X96060476Y-26431666D01*
X96108095Y-26336428D01*
X96502380Y-28813095D02*
X95502380Y-28813095D01*
X96502380Y-29384523D02*
X95930952Y-28955952D01*
X95502380Y-29384523D02*
X96073809Y-28813095D01*
X77772380Y-23669761D02*
X76772380Y-23669761D01*
X76772380Y-23907857D01*
X76820000Y-24050714D01*
X76915238Y-24145952D01*
X77010476Y-24193571D01*
X77200952Y-24241190D01*
X77343809Y-24241190D01*
X77534285Y-24193571D01*
X77629523Y-24145952D01*
X77724761Y-24050714D01*
X77772380Y-23907857D01*
X77772380Y-23669761D01*
X77867619Y-24431666D02*
X77867619Y-25193571D01*
X77772380Y-25955476D02*
X77772380Y-25384047D01*
X77772380Y-25669761D02*
X76772380Y-25669761D01*
X76915238Y-25574523D01*
X77010476Y-25479285D01*
X77058095Y-25384047D01*
X76772380Y-26574523D02*
X76772380Y-26669761D01*
X76820000Y-26765000D01*
X76867619Y-26812619D01*
X76962857Y-26860238D01*
X77153333Y-26907857D01*
X77391428Y-26907857D01*
X77581904Y-26860238D01*
X77677142Y-26812619D01*
X77724761Y-26765000D01*
X77772380Y-26669761D01*
X77772380Y-26574523D01*
X77724761Y-26479285D01*
X77677142Y-26431666D01*
X77581904Y-26384047D01*
X77391428Y-26336428D01*
X77153333Y-26336428D01*
X76962857Y-26384047D01*
X76867619Y-26431666D01*
X76820000Y-26479285D01*
X76772380Y-26574523D01*
X77452380Y-28813095D02*
X76452380Y-28813095D01*
X77452380Y-29384523D02*
X76880952Y-28955952D01*
X76452380Y-29384523D02*
X77023809Y-28813095D01*
X55753630Y-26820952D02*
X54753630Y-26820952D01*
X54753630Y-27059047D01*
X54801250Y-27201904D01*
X54896488Y-27297142D01*
X54991726Y-27344761D01*
X55182202Y-27392380D01*
X55325059Y-27392380D01*
X55515535Y-27344761D01*
X55610773Y-27297142D01*
X55706011Y-27201904D01*
X55753630Y-27059047D01*
X55753630Y-26820952D01*
X55848869Y-27582857D02*
X55848869Y-28344761D01*
X55753630Y-28630476D02*
X55753630Y-28820952D01*
X55706011Y-28916190D01*
X55658392Y-28963809D01*
X55515535Y-29059047D01*
X55325059Y-29106666D01*
X54944107Y-29106666D01*
X54848869Y-29059047D01*
X54801250Y-29011428D01*
X54753630Y-28916190D01*
X54753630Y-28725714D01*
X54801250Y-28630476D01*
X54848869Y-28582857D01*
X54944107Y-28535238D01*
X55182202Y-28535238D01*
X55277440Y-28582857D01*
X55325059Y-28630476D01*
X55372678Y-28725714D01*
X55372678Y-28916190D01*
X55325059Y-29011428D01*
X55277440Y-29059047D01*
X55182202Y-29106666D01*
X55433630Y-31488095D02*
X54433630Y-31488095D01*
X55433630Y-32059523D02*
X54862202Y-31630952D01*
X54433630Y-32059523D02*
X55005059Y-31488095D01*
X13977797Y-15001130D02*
X13977797Y-14001130D01*
X13739702Y-14001130D01*
X13596845Y-14048750D01*
X13501607Y-14143988D01*
X13453988Y-14239226D01*
X13406369Y-14429702D01*
X13406369Y-14572559D01*
X13453988Y-14763035D01*
X13501607Y-14858273D01*
X13596845Y-14953511D01*
X13739702Y-15001130D01*
X13977797Y-15001130D01*
X13215892Y-15096369D02*
X12453988Y-15096369D01*
X12073035Y-14429702D02*
X12168273Y-14382083D01*
X12215892Y-14334464D01*
X12263511Y-14239226D01*
X12263511Y-14191607D01*
X12215892Y-14096369D01*
X12168273Y-14048750D01*
X12073035Y-14001130D01*
X11882559Y-14001130D01*
X11787321Y-14048750D01*
X11739702Y-14096369D01*
X11692083Y-14191607D01*
X11692083Y-14239226D01*
X11739702Y-14334464D01*
X11787321Y-14382083D01*
X11882559Y-14429702D01*
X12073035Y-14429702D01*
X12168273Y-14477321D01*
X12215892Y-14524940D01*
X12263511Y-14620178D01*
X12263511Y-14810654D01*
X12215892Y-14905892D01*
X12168273Y-14953511D01*
X12073035Y-15001130D01*
X11882559Y-15001130D01*
X11787321Y-14953511D01*
X11739702Y-14905892D01*
X11692083Y-14810654D01*
X11692083Y-14620178D01*
X11739702Y-14524940D01*
X11787321Y-14477321D01*
X11882559Y-14429702D01*
X16930654Y-15321130D02*
X16930654Y-14321130D01*
X16359226Y-15321130D02*
X16787797Y-14749702D01*
X16359226Y-14321130D02*
X16930654Y-14892559D01*
X153360297Y-16859880D02*
X153360297Y-15859880D01*
X153122202Y-15859880D01*
X152979345Y-15907500D01*
X152884107Y-16002738D01*
X152836488Y-16097976D01*
X152788869Y-16288452D01*
X152788869Y-16431309D01*
X152836488Y-16621785D01*
X152884107Y-16717023D01*
X152979345Y-16812261D01*
X153122202Y-16859880D01*
X153360297Y-16859880D01*
X152598392Y-16955119D02*
X151836488Y-16955119D01*
X151693630Y-15859880D02*
X151026964Y-15859880D01*
X151455535Y-16859880D01*
X148693154Y-16539880D02*
X148693154Y-15539880D01*
X148121726Y-16539880D02*
X148550297Y-15968452D01*
X148121726Y-15539880D02*
X148693154Y-16111309D01*
X144447380Y-7770952D02*
X143447380Y-7770952D01*
X143447380Y-8009047D01*
X143495000Y-8151904D01*
X143590238Y-8247142D01*
X143685476Y-8294761D01*
X143875952Y-8342380D01*
X144018809Y-8342380D01*
X144209285Y-8294761D01*
X144304523Y-8247142D01*
X144399761Y-8151904D01*
X144447380Y-8009047D01*
X144447380Y-7770952D01*
X144542619Y-8532857D02*
X144542619Y-9294761D01*
X143447380Y-9961428D02*
X143447380Y-9770952D01*
X143495000Y-9675714D01*
X143542619Y-9628095D01*
X143685476Y-9532857D01*
X143875952Y-9485238D01*
X144256904Y-9485238D01*
X144352142Y-9532857D01*
X144399761Y-9580476D01*
X144447380Y-9675714D01*
X144447380Y-9866190D01*
X144399761Y-9961428D01*
X144352142Y-10009047D01*
X144256904Y-10056666D01*
X144018809Y-10056666D01*
X143923571Y-10009047D01*
X143875952Y-9961428D01*
X143828333Y-9866190D01*
X143828333Y-9675714D01*
X143875952Y-9580476D01*
X143923571Y-9532857D01*
X144018809Y-9485238D01*
X144127380Y-12438095D02*
X143127380Y-12438095D01*
X144127380Y-13009523D02*
X143555952Y-12580952D01*
X143127380Y-13009523D02*
X143698809Y-12438095D01*
X125397380Y-8564702D02*
X124397380Y-8564702D01*
X124397380Y-8802797D01*
X124445000Y-8945654D01*
X124540238Y-9040892D01*
X124635476Y-9088511D01*
X124825952Y-9136130D01*
X124968809Y-9136130D01*
X125159285Y-9088511D01*
X125254523Y-9040892D01*
X125349761Y-8945654D01*
X125397380Y-8802797D01*
X125397380Y-8564702D01*
X125492619Y-9326607D02*
X125492619Y-10088511D01*
X124397380Y-10802797D02*
X124397380Y-10326607D01*
X124873571Y-10278988D01*
X124825952Y-10326607D01*
X124778333Y-10421845D01*
X124778333Y-10659940D01*
X124825952Y-10755178D01*
X124873571Y-10802797D01*
X124968809Y-10850416D01*
X125206904Y-10850416D01*
X125302142Y-10802797D01*
X125349761Y-10755178D01*
X125397380Y-10659940D01*
X125397380Y-10421845D01*
X125349761Y-10326607D01*
X125302142Y-10278988D01*
X125077380Y-13231845D02*
X124077380Y-13231845D01*
X125077380Y-13803273D02*
X124505952Y-13374702D01*
X124077380Y-13803273D02*
X124648809Y-13231845D01*
X106347380Y-8564702D02*
X105347380Y-8564702D01*
X105347380Y-8802797D01*
X105395000Y-8945654D01*
X105490238Y-9040892D01*
X105585476Y-9088511D01*
X105775952Y-9136130D01*
X105918809Y-9136130D01*
X106109285Y-9088511D01*
X106204523Y-9040892D01*
X106299761Y-8945654D01*
X106347380Y-8802797D01*
X106347380Y-8564702D01*
X106442619Y-9326607D02*
X106442619Y-10088511D01*
X105680714Y-10755178D02*
X106347380Y-10755178D01*
X105299761Y-10517083D02*
X106014047Y-10278988D01*
X106014047Y-10898035D01*
X106027380Y-13231845D02*
X105027380Y-13231845D01*
X106027380Y-13803273D02*
X105455952Y-13374702D01*
X105027380Y-13803273D02*
X105598809Y-13231845D01*
X87297380Y-7770952D02*
X86297380Y-7770952D01*
X86297380Y-8009047D01*
X86345000Y-8151904D01*
X86440238Y-8247142D01*
X86535476Y-8294761D01*
X86725952Y-8342380D01*
X86868809Y-8342380D01*
X87059285Y-8294761D01*
X87154523Y-8247142D01*
X87249761Y-8151904D01*
X87297380Y-8009047D01*
X87297380Y-7770952D01*
X87392619Y-8532857D02*
X87392619Y-9294761D01*
X86297380Y-9437619D02*
X86297380Y-10056666D01*
X86678333Y-9723333D01*
X86678333Y-9866190D01*
X86725952Y-9961428D01*
X86773571Y-10009047D01*
X86868809Y-10056666D01*
X87106904Y-10056666D01*
X87202142Y-10009047D01*
X87249761Y-9961428D01*
X87297380Y-9866190D01*
X87297380Y-9580476D01*
X87249761Y-9485238D01*
X87202142Y-9437619D01*
X86977380Y-12438095D02*
X85977380Y-12438095D01*
X86977380Y-13009523D02*
X86405952Y-12580952D01*
X85977380Y-13009523D02*
X86548809Y-12438095D01*
X68247380Y-7770952D02*
X67247380Y-7770952D01*
X67247380Y-8009047D01*
X67295000Y-8151904D01*
X67390238Y-8247142D01*
X67485476Y-8294761D01*
X67675952Y-8342380D01*
X67818809Y-8342380D01*
X68009285Y-8294761D01*
X68104523Y-8247142D01*
X68199761Y-8151904D01*
X68247380Y-8009047D01*
X68247380Y-7770952D01*
X68342619Y-8532857D02*
X68342619Y-9294761D01*
X67342619Y-9485238D02*
X67295000Y-9532857D01*
X67247380Y-9628095D01*
X67247380Y-9866190D01*
X67295000Y-9961428D01*
X67342619Y-10009047D01*
X67437857Y-10056666D01*
X67533095Y-10056666D01*
X67675952Y-10009047D01*
X68247380Y-9437619D01*
X68247380Y-10056666D01*
X67927380Y-12438095D02*
X66927380Y-12438095D01*
X67927380Y-13009523D02*
X67355952Y-12580952D01*
X66927380Y-13009523D02*
X67498809Y-12438095D01*
X49197380Y-7770952D02*
X48197380Y-7770952D01*
X48197380Y-8009047D01*
X48245000Y-8151904D01*
X48340238Y-8247142D01*
X48435476Y-8294761D01*
X48625952Y-8342380D01*
X48768809Y-8342380D01*
X48959285Y-8294761D01*
X49054523Y-8247142D01*
X49149761Y-8151904D01*
X49197380Y-8009047D01*
X49197380Y-7770952D01*
X49292619Y-8532857D02*
X49292619Y-9294761D01*
X49197380Y-10056666D02*
X49197380Y-9485238D01*
X49197380Y-9770952D02*
X48197380Y-9770952D01*
X48340238Y-9675714D01*
X48435476Y-9580476D01*
X48483095Y-9485238D01*
X48877380Y-12438095D02*
X47877380Y-12438095D01*
X48877380Y-13009523D02*
X48305952Y-12580952D01*
X47877380Y-13009523D02*
X48448809Y-12438095D01*
X15794880Y-7453452D02*
X14794880Y-7453452D01*
X14794880Y-7691547D01*
X14842500Y-7834404D01*
X14937738Y-7929642D01*
X15032976Y-7977261D01*
X15223452Y-8024880D01*
X15366309Y-8024880D01*
X15556785Y-7977261D01*
X15652023Y-7929642D01*
X15747261Y-7834404D01*
X15794880Y-7691547D01*
X15794880Y-7453452D01*
X15890119Y-8215357D02*
X15890119Y-8977261D01*
X14794880Y-9405833D02*
X14794880Y-9501071D01*
X14842500Y-9596309D01*
X14890119Y-9643928D01*
X14985357Y-9691547D01*
X15175833Y-9739166D01*
X15413928Y-9739166D01*
X15604404Y-9691547D01*
X15699642Y-9643928D01*
X15747261Y-9596309D01*
X15794880Y-9501071D01*
X15794880Y-9405833D01*
X15747261Y-9310595D01*
X15699642Y-9262976D01*
X15604404Y-9215357D01*
X15413928Y-9167738D01*
X15175833Y-9167738D01*
X14985357Y-9215357D01*
X14890119Y-9262976D01*
X14842500Y-9310595D01*
X14794880Y-9405833D01*
X16114880Y-4500595D02*
X15114880Y-4500595D01*
X16114880Y-5072023D02*
X15543452Y-4643452D01*
X15114880Y-5072023D02*
X15686309Y-4500595D01*
M02*
